<?xml version="1.0" encoding="utf-8" ?>
<svg xmlns="http://www.w3.org/2000/svg" xmlns:xlink="http://www.w3.org/1999/xlink" width="1500" height="900">
	<rect fill="white" width="1500" height="900"/>
	<path fill="none" stroke="black" stroke-width="0.044999998" stroke-miterlimit="4" transform="matrix(67.5 0 -0 -67.5 -122259 720)" d="M1815.48 10L1815.48 10L1830.09 10L1827.79 0L1814.68 0L1815.48 10"/>
	<path fill="none" stroke="red" stroke-width="0.044999998" stroke-miterlimit="4" transform="matrix(67.5 0 -0 -67.5 -122259 720)" d="M1815.5 10L1814.62 0"/>
	<path fill="none" stroke="red" stroke-width="0.044999998" stroke-miterlimit="4" transform="matrix(67.5 0 -0 -67.5 -122259 720)" d="M1815.6 10L1814.72 0"/>
	<path fill="none" stroke="purple" stroke-width="0.044999998" stroke-miterlimit="4" transform="matrix(67.5 0 -0 -67.5 -122259 720)" d="M1816.54 10L1815.66 0"/>
	<path fill="none" stroke="purple" stroke-width="0.044999998" stroke-miterlimit="4" transform="matrix(67.5 0 -0 -67.5 -122259 720)" d="M1816.74 10L1815.86 0"/>
	<path fill="none" stroke="black" stroke-width="0.044999998" stroke-miterlimit="4" transform="matrix(67.5 0 -0 -67.5 -122259 720)" d="M1818.32 10L1817.27 -2"/>
	<path fill="none" stroke="black" stroke-width="0.044999998" stroke-miterlimit="4" transform="matrix(67.5 0 -0 -67.5 -122259 720)" d="M1818.52 10L1817.47 -2"/>
	<path fill="none" stroke="black" stroke-width="0.044999998" stroke-miterlimit="4" transform="matrix(67.5 0 -0 -67.5 -122259 720)" d="M1820.96 10L1819.91 -2"/>
	<path fill="none" stroke="black" stroke-width="0.044999998" stroke-miterlimit="4" transform="matrix(67.5 0 -0 -67.5 -122259 720)" d="M1821.16 10L1820.11 -2"/>
	<path fill="none" stroke="black" stroke-width="0.044999998" stroke-miterlimit="4" transform="matrix(67.5 0 -0 -67.5 -122259 720)" d="M1823.45 10L1822.4 -2"/>
	<path fill="none" stroke="black" stroke-width="0.044999998" stroke-miterlimit="4" transform="matrix(67.5 0 -0 -67.5 -122259 720)" d="M1823.65 10L1822.6 -2"/>
	<path fill="none" stroke="black" stroke-width="0.044999998" stroke-miterlimit="4" transform="matrix(67.5 0 -0 -67.5 -122259 720)" d="M1826.09 10L1825.04 -2"/>
	<path fill="none" stroke="black" stroke-width="0.044999998" stroke-miterlimit="4" transform="matrix(67.5 0 -0 -67.5 -122259 720)" d="M1826.29 10L1825.24 -2"/>
	<path fill="none" stroke="black" stroke-width="0.044999998" stroke-miterlimit="4" transform="matrix(67.5 0 -0 -67.5 -122259 720)" d="M1828.71 10L1827.66 -2"/>
	<path fill="none" stroke="black" stroke-width="0.044999998" stroke-miterlimit="4" transform="matrix(67.5 0 -0 -67.5 -122259 720)" d="M1828.91 10L1827.86 -2"/>
</svg>
