<?xml version="1.0" encoding="utf-8" ?>
<svg xmlns="http://www.w3.org/2000/svg" xmlns:xlink="http://www.w3.org/1999/xlink" width="2000" height="900">
	<rect fill="white" width="2000" height="900"/>
	<path fill="none" stroke="black" stroke-width="0.044999998" stroke-miterlimit="4" d="M1815.48 10L1815.48 10L1830.09 10L1827.79 0L1814.68 0L1815.48 10"/>
	<path fill="none" stroke="black" stroke-width="0.044999998" stroke-miterlimit="4" d="M1815.45 10L1825.45 10"/>
	<path fill="none" stroke="black" stroke-width="0.044999998" stroke-miterlimit="4" d="M1815.55 10L1825.55 10"/>
	<path fill="none" stroke="black" stroke-width="0.044999998" stroke-miterlimit="4" d="M1816.44 10L1826.44 10"/>
	<path fill="none" stroke="black" stroke-width="0.044999998" stroke-miterlimit="4" d="M1816.64 10L1826.64 10"/>
	<path fill="none" stroke="black" stroke-width="0.044999998" stroke-miterlimit="4" d="M1818.22 10L1830.22 10"/>
	<path fill="none" stroke="black" stroke-width="0.044999998" stroke-miterlimit="4" d="M1818.42 10L1830.42 10"/>
	<path fill="none" stroke="black" stroke-width="0.044999998" stroke-miterlimit="4" d="M1820.86 10L1832.86 10"/>
	<path fill="none" stroke="black" stroke-width="0.044999998" stroke-miterlimit="4" d="M1821.06 10L1833.06 10"/>
	<path fill="none" stroke="black" stroke-width="0.044999998" stroke-miterlimit="4" d="M1823.35 10L1835.35 10"/>
	<path fill="none" stroke="black" stroke-width="0.044999998" stroke-miterlimit="4" d="M1823.55 10L1835.55 10"/>
	<path fill="none" stroke="black" stroke-width="0.044999998" stroke-miterlimit="4" d="M1825.99 10L1837.99 10"/>
	<path fill="none" stroke="black" stroke-width="0.044999998" stroke-miterlimit="4" d="M1826.19 10L1838.19 10"/>
	<path fill="none" stroke="black" stroke-width="0.044999998" stroke-miterlimit="4" d="M1828.61 10L1840.61 10"/>
	<path fill="none" stroke="black" stroke-width="0.044999998" stroke-miterlimit="4" d="M1828.81 10L1840.81 10"/>
</svg>
