<?xml version="1.0" encoding="utf-8" ?>
<svg xmlns="http://www.w3.org/2000/svg" xmlns:xlink="http://www.w3.org/1999/xlink" width="1500" height="900">
	<rect fill="white" width="1500" height="900"/>
	<path fill="none" stroke="black" stroke-width="0.044999998" stroke-miterlimit="4" transform="matrix(67.5 0 -0 -67.5 -122133 720)" d="M1813.59 10L1813.59 10L1828.3 10L1825.99 0L1812.79 0L1813.59 10"/>
	<path fill="none" stroke="red" stroke-width="0.044999998" stroke-miterlimit="4" transform="matrix(67.5 0 -0 -67.5 -122133 720)" d="M1813.56 10L1812.69 0"/>
	<path fill="none" stroke="red" stroke-width="0.044999998" stroke-miterlimit="4" transform="matrix(67.5 0 -0 -67.5 -122133 720)" d="M1813.66 10L1812.79 0"/>
	<path fill="none" stroke="purple" stroke-width="0.044999998" stroke-miterlimit="4" transform="matrix(67.5 0 -0 -67.5 -122133 720)" d="M1814.72 10L1813.85 0"/>
	<path fill="none" stroke="purple" stroke-width="0.044999998" stroke-miterlimit="4" transform="matrix(67.5 0 -0 -67.5 -122133 720)" d="M1814.92 10L1814.05 0"/>
	<path fill="none" stroke="black" stroke-width="0.044999998" stroke-miterlimit="4" transform="matrix(67.5 0 -0 -67.5 -122133 720)" d="M1816.18 10L1815.14 -2"/>
	<path fill="none" stroke="black" stroke-width="0.044999998" stroke-miterlimit="4" transform="matrix(67.5 0 -0 -67.5 -122133 720)" d="M1816.38 10L1815.34 -2"/>
	<path fill="none" stroke="black" stroke-width="0.044999998" stroke-miterlimit="4" transform="matrix(67.5 0 -0 -67.5 -122133 720)" d="M1819.16 10L1818.11 -2"/>
	<path fill="none" stroke="black" stroke-width="0.044999998" stroke-miterlimit="4" transform="matrix(67.5 0 -0 -67.5 -122133 720)" d="M1819.36 10L1818.31 -2"/>
	<path fill="none" stroke="black" stroke-width="0.044999998" stroke-miterlimit="4" transform="matrix(67.5 0 -0 -67.5 -122133 720)" d="M1821.65 10L1820.6 -2"/>
	<path fill="none" stroke="black" stroke-width="0.044999998" stroke-miterlimit="4" transform="matrix(67.5 0 -0 -67.5 -122133 720)" d="M1821.85 10L1820.8 -2"/>
	<path fill="none" stroke="black" stroke-width="0.044999998" stroke-miterlimit="4" transform="matrix(67.5 0 -0 -67.5 -122133 720)" d="M1824.15 10L1823.1 -2"/>
	<path fill="none" stroke="black" stroke-width="0.044999998" stroke-miterlimit="4" transform="matrix(67.5 0 -0 -67.5 -122133 720)" d="M1824.35 10L1823.3 -2"/>
	<path fill="none" stroke="black" stroke-width="0.044999998" stroke-miterlimit="4" transform="matrix(67.5 0 -0 -67.5 -122133 720)" d="M1826.73 10L1825.68 -2"/>
	<path fill="none" stroke="black" stroke-width="0.044999998" stroke-miterlimit="4" transform="matrix(67.5 0 -0 -67.5 -122133 720)" d="M1826.93 10L1825.88 -2"/>
</svg>
