<?xml version="1.0" encoding="utf-8" ?>
<svg xmlns="http://www.w3.org/2000/svg" xmlns:xlink="http://www.w3.org/1999/xlink" width="1500" height="900">
	<rect fill="white" width="1500" height="900"/>
	<path fill="none" stroke="black" stroke-width="0.044999998" stroke-miterlimit="4" transform="matrix(14.6985 0 0 14.6985 -17450 -26261.8)" d="M1192.29 1814.3L1192.29 1814.3L1203.38 1804.78L1209.85 1812.32L1238.72 1815.93L1269.72 1814.71L1272.43 1810.7L1284.14 1818.6L1278.21 1828.97L1238.1 1830.57L1199.37 1825.72L1196.44 1819.14L1192.29 1814.3Z"/>
	<path fill="none" stroke="gray" stroke-width="0.022499999" stroke-miterlimit="4" transform="matrix(14.6985 0 0 14.6985 -17450 -26261.8)" d="M1209.29 1813.36L1209.29 1813.36L1238.67 1817.03L1270.32 1815.79L1272.72 1812.22L1283.59 1819.56L1278.21 1828.97L1238.1 1830.57L1199.37 1825.72L1196.44 1819.14L1193 1815.13L1203.26 1806.32L1209.29 1813.36Z"/>
	<path fill="none" stroke="gray" stroke-width="0.022499999" stroke-miterlimit="4" transform="matrix(14.6985 0 0 14.6985 -17450 -26261.8)" d="M1208.43 1814.96L1208.43 1814.96L1238.6 1818.74L1271.25 1817.45L1273.18 1814.58L1282.74 1821.04L1278.21 1828.97L1238.1 1830.57L1199.37 1825.72L1196.44 1819.14L1194.1 1816.42L1203.07 1808.72L1208.43 1814.96Z"/>
	<path fill="none" stroke="gray" stroke-width="0.022499999" stroke-miterlimit="4" transform="matrix(14.6985 0 0 14.6985 -17450 -26261.8)" d="M1207.11 1817.42L1207.11 1817.42L1238.49 1821.34L1272.66 1820L1273.87 1818.19L1281.44 1823.3L1278.21 1828.97L1238.1 1830.57L1199.37 1825.72L1196.44 1819.14L1195.79 1818.39L1202.79 1812.39L1207.11 1817.42Z"/>
	<path fill="none" stroke="gray" stroke-width="0.022499999" stroke-miterlimit="4" transform="matrix(14.6985 0 0 14.6985 -17450 -26261.8)" d="M1205.79 1819.87L1205.79 1819.87L1238.38 1823.95L1274.08 1822.54L1274.57 1821.8L1280.14 1825.56L1278.21 1828.97L1238.1 1830.57L1199.37 1825.72L1197.12 1820.68L1202.52 1816.06L1205.79 1819.87Z"/>
	<path fill="none" stroke="gray" stroke-width="0.022499999" stroke-miterlimit="4" transform="matrix(14.6985 0 0 14.6985 -17450 -26261.8)" d="M1204.47 1822.33L1204.47 1822.33L1238.27 1826.56L1274.83 1825.11L1278.85 1827.82L1278.21 1828.97L1238.1 1830.57L1199.37 1825.72L1198.22 1823.15L1202.23 1819.72L1204.47 1822.33Z"/>
	<path fill="none" stroke="gray" stroke-width="0.022499999" stroke-miterlimit="4" transform="matrix(14.6985 0 0 14.6985 -17450 -26261.8)" d="M1203.15 1824.79L1203.15 1824.79L1238.16 1829.16L1274.09 1827.75L1276.02 1829.05L1238.1 1830.57L1199.37 1825.72L1199.33 1825.63L1201.95 1823.39L1203.15 1824.79Z"/>
	<ellipse fill="red" transform="matrix(14.6985 0 0 14.6985 -17450 -26261.8)" cx="1192.2917" cy="1814.295" rx="0.08996582" ry="0.08996582"/>
	<ellipse fill="red" transform="matrix(14.6985 0 0 14.6985 -17450 -26261.8)" cx="1192.9846" cy="1813.7002" rx="0.08996582" ry="0.08996582"/>
	<ellipse fill="red" transform="matrix(14.6985 0 0 14.6985 -17450 -26261.8)" cx="1193.6775" cy="1813.1052" rx="0.08996582" ry="0.08996582"/>
	<ellipse fill="red" transform="matrix(14.6985 0 0 14.6985 -17450 -26261.8)" cx="1194.3704" cy="1812.5104" rx="0.08996582" ry="0.08996582"/>
	<ellipse fill="red" transform="matrix(14.6985 0 0 14.6985 -17450 -26261.8)" cx="1195.0632" cy="1811.9155" rx="0.08996582" ry="0.08996582"/>
	<ellipse fill="red" transform="matrix(14.6985 0 0 14.6985 -17450 -26261.8)" cx="1195.756" cy="1811.3207" rx="0.08996582" ry="0.08996582"/>
	<ellipse fill="red" transform="matrix(14.6985 0 0 14.6985 -17450 -26261.8)" cx="1196.4489" cy="1810.7257" rx="0.08996582" ry="0.08996582"/>
	<ellipse fill="red" transform="matrix(14.6985 0 0 14.6985 -17450 -26261.8)" cx="1197.1417" cy="1810.1309" rx="0.08996582" ry="0.08996582"/>
	<ellipse fill="red" transform="matrix(14.6985 0 0 14.6985 -17450 -26261.8)" cx="1197.8346" cy="1809.536" rx="0.08996582" ry="0.08996582"/>
	<ellipse fill="red" transform="matrix(14.6985 0 0 14.6985 -17450 -26261.8)" cx="1198.5275" cy="1808.9412" rx="0.08996582" ry="0.08996582"/>
	<ellipse fill="red" transform="matrix(14.6985 0 0 14.6985 -17450 -26261.8)" cx="1199.2203" cy="1808.3462" rx="0.08996582" ry="0.08996582"/>
	<ellipse fill="red" transform="matrix(14.6985 0 0 14.6985 -17450 -26261.8)" cx="1199.9131" cy="1807.7513" rx="0.08996582" ry="0.08996582"/>
	<ellipse fill="red" transform="matrix(14.6985 0 0 14.6985 -17450 -26261.8)" cx="1200.606" cy="1807.1565" rx="0.08996582" ry="0.08996582"/>
	<ellipse fill="red" transform="matrix(14.6985 0 0 14.6985 -17450 -26261.8)" cx="1201.2988" cy="1806.5615" rx="0.08996582" ry="0.08996582"/>
	<ellipse fill="red" transform="matrix(14.6985 0 0 14.6985 -17450 -26261.8)" cx="1201.9917" cy="1805.9667" rx="0.08996582" ry="0.08996582"/>
	<ellipse fill="red" transform="matrix(14.6985 0 0 14.6985 -17450 -26261.8)" cx="1202.6846" cy="1805.3718" rx="0.08996582" ry="0.08996582"/>
	<ellipse fill="red" transform="matrix(14.6985 0 0 14.6985 -17450 -26261.8)" cx="1203.3773" cy="1804.777" rx="0.08996582" ry="0.08996582"/>
	<ellipse fill="red" transform="matrix(14.6985 0 0 14.6985 -17450 -26261.8)" cx="1203.9658" cy="1805.4628" rx="0.08996582" ry="0.08996582"/>
	<ellipse fill="red" transform="matrix(14.6985 0 0 14.6985 -17450 -26261.8)" cx="1204.5542" cy="1806.1486" rx="0.08996582" ry="0.08996582"/>
	<ellipse fill="red" transform="matrix(14.6985 0 0 14.6985 -17450 -26261.8)" cx="1205.1426" cy="1806.8344" rx="0.08996582" ry="0.08996582"/>
	<ellipse fill="red" transform="matrix(14.6985 0 0 14.6985 -17450 -26261.8)" cx="1205.7311" cy="1807.5201" rx="0.08996582" ry="0.08996582"/>
	<ellipse fill="red" transform="matrix(14.6985 0 0 14.6985 -17450 -26261.8)" cx="1206.3195" cy="1808.2059" rx="0.08996582" ry="0.08996582"/>
	<ellipse fill="red" transform="matrix(14.6985 0 0 14.6985 -17450 -26261.8)" cx="1206.9078" cy="1808.8917" rx="0.08996582" ry="0.08996582"/>
	<ellipse fill="red" transform="matrix(14.6985 0 0 14.6985 -17450 -26261.8)" cx="1207.4963" cy="1809.5775" rx="0.08996582" ry="0.08996582"/>
	<ellipse fill="red" transform="matrix(14.6985 0 0 14.6985 -17450 -26261.8)" cx="1208.0847" cy="1810.2633" rx="0.08996582" ry="0.08996582"/>
	<ellipse fill="red" transform="matrix(14.6985 0 0 14.6985 -17450 -26261.8)" cx="1208.6731" cy="1810.9491" rx="0.08996582" ry="0.08996582"/>
	<ellipse fill="red" transform="matrix(14.6985 0 0 14.6985 -17450 -26261.8)" cx="1209.2616" cy="1811.635" rx="0.08996582" ry="0.08996582"/>
	<ellipse fill="red" transform="matrix(14.6985 0 0 14.6985 -17450 -26261.8)" cx="1209.85" cy="1812.3208" rx="0.08996582" ry="0.08996582"/>
	<ellipse fill="red" transform="matrix(14.6985 0 0 14.6985 -17450 -26261.8)" cx="1210.7521" cy="1812.4336" rx="0.08996582" ry="0.08996582"/>
	<ellipse fill="red" transform="matrix(14.6985 0 0 14.6985 -17450 -26261.8)" cx="1211.6542" cy="1812.5464" rx="0.08996582" ry="0.08996582"/>
	<ellipse fill="red" transform="matrix(14.6985 0 0 14.6985 -17450 -26261.8)" cx="1212.5564" cy="1812.6592" rx="0.08996582" ry="0.08996582"/>
	<ellipse fill="red" transform="matrix(14.6985 0 0 14.6985 -17450 -26261.8)" cx="1213.4585" cy="1812.772" rx="0.08996582" ry="0.08996582"/>
	<ellipse fill="red" transform="matrix(14.6985 0 0 14.6985 -17450 -26261.8)" cx="1214.3606" cy="1812.8848" rx="0.08996582" ry="0.08996582"/>
	<ellipse fill="red" transform="matrix(14.6985 0 0 14.6985 -17450 -26261.8)" cx="1215.2628" cy="1812.9976" rx="0.08996582" ry="0.08996582"/>
	<ellipse fill="red" transform="matrix(14.6985 0 0 14.6985 -17450 -26261.8)" cx="1216.1649" cy="1813.1104" rx="0.08996582" ry="0.08996582"/>
	<ellipse fill="red" transform="matrix(14.6985 0 0 14.6985 -17450 -26261.8)" cx="1217.067" cy="1813.2231" rx="0.08996582" ry="0.08996582"/>
	<ellipse fill="red" transform="matrix(14.6985 0 0 14.6985 -17450 -26261.8)" cx="1217.9691" cy="1813.3359" rx="0.08996582" ry="0.08996582"/>
	<ellipse fill="red" transform="matrix(14.6985 0 0 14.6985 -17450 -26261.8)" cx="1218.8713" cy="1813.4487" rx="0.08996582" ry="0.08996582"/>
	<ellipse fill="red" transform="matrix(14.6985 0 0 14.6985 -17450 -26261.8)" cx="1219.7734" cy="1813.5615" rx="0.08996582" ry="0.08996582"/>
	<ellipse fill="red" transform="matrix(14.6985 0 0 14.6985 -17450 -26261.8)" cx="1220.6755" cy="1813.6743" rx="0.08996582" ry="0.08996582"/>
	<ellipse fill="red" transform="matrix(14.6985 0 0 14.6985 -17450 -26261.8)" cx="1221.5776" cy="1813.7871" rx="0.08996582" ry="0.08996582"/>
	<ellipse fill="red" transform="matrix(14.6985 0 0 14.6985 -17450 -26261.8)" cx="1222.4799" cy="1813.8999" rx="0.08996582" ry="0.08996582"/>
	<ellipse fill="red" transform="matrix(14.6985 0 0 14.6985 -17450 -26261.8)" cx="1223.382" cy="1814.0128" rx="0.08996582" ry="0.08996582"/>
	<ellipse fill="red" transform="matrix(14.6985 0 0 14.6985 -17450 -26261.8)" cx="1224.2841" cy="1814.1256" rx="0.08996582" ry="0.08996582"/>
	<ellipse fill="red" transform="matrix(14.6985 0 0 14.6985 -17450 -26261.8)" cx="1225.1862" cy="1814.2384" rx="0.08996582" ry="0.08996582"/>
	<ellipse fill="red" transform="matrix(14.6985 0 0 14.6985 -17450 -26261.8)" cx="1226.0884" cy="1814.3512" rx="0.08996582" ry="0.08996582"/>
	<ellipse fill="red" transform="matrix(14.6985 0 0 14.6985 -17450 -26261.8)" cx="1226.9905" cy="1814.464" rx="0.08996582" ry="0.08996582"/>
	<ellipse fill="red" transform="matrix(14.6985 0 0 14.6985 -17450 -26261.8)" cx="1227.8926" cy="1814.5768" rx="0.08996582" ry="0.08996582"/>
	<ellipse fill="red" transform="matrix(14.6985 0 0 14.6985 -17450 -26261.8)" cx="1228.7947" cy="1814.6896" rx="0.08996582" ry="0.08996582"/>
	<ellipse fill="red" transform="matrix(14.6985 0 0 14.6985 -17450 -26261.8)" cx="1229.6969" cy="1814.8024" rx="0.08996582" ry="0.08996582"/>
	<ellipse fill="red" transform="matrix(14.6985 0 0 14.6985 -17450 -26261.8)" cx="1230.599" cy="1814.9152" rx="0.08996582" ry="0.08996582"/>
	<ellipse fill="red" transform="matrix(14.6985 0 0 14.6985 -17450 -26261.8)" cx="1231.5011" cy="1815.028" rx="0.08996582" ry="0.08996582"/>
	<ellipse fill="red" transform="matrix(14.6985 0 0 14.6985 -17450 -26261.8)" cx="1232.4032" cy="1815.1407" rx="0.08996582" ry="0.08996582"/>
	<ellipse fill="red" transform="matrix(14.6985 0 0 14.6985 -17450 -26261.8)" cx="1233.3054" cy="1815.2535" rx="0.08996582" ry="0.08996582"/>
	<ellipse fill="red" transform="matrix(14.6985 0 0 14.6985 -17450 -26261.8)" cx="1234.2075" cy="1815.3663" rx="0.08996582" ry="0.08996582"/>
	<ellipse fill="red" transform="matrix(14.6985 0 0 14.6985 -17450 -26261.8)" cx="1235.1096" cy="1815.4791" rx="0.08996582" ry="0.08996582"/>
	<ellipse fill="red" transform="matrix(14.6985 0 0 14.6985 -17450 -26261.8)" cx="1236.0118" cy="1815.5919" rx="0.08996582" ry="0.08996582"/>
	<ellipse fill="red" transform="matrix(14.6985 0 0 14.6985 -17450 -26261.8)" cx="1236.9139" cy="1815.7047" rx="0.08996582" ry="0.08996582"/>
	<ellipse fill="red" transform="matrix(14.6985 0 0 14.6985 -17450 -26261.8)" cx="1237.816" cy="1815.8175" rx="0.08996582" ry="0.08996582"/>
	<ellipse fill="red" transform="matrix(14.6985 0 0 14.6985 -17450 -26261.8)" cx="1238.7181" cy="1815.9304" rx="0.08996582" ry="0.08996582"/>
	<ellipse fill="red" transform="matrix(14.6985 0 0 14.6985 -17450 -26261.8)" cx="1239.63" cy="1815.8943" rx="0.08996582" ry="0.08996582"/>
	<ellipse fill="red" transform="matrix(14.6985 0 0 14.6985 -17450 -26261.8)" cx="1240.5417" cy="1815.8583" rx="0.08996582" ry="0.08996582"/>
	<ellipse fill="red" transform="matrix(14.6985 0 0 14.6985 -17450 -26261.8)" cx="1241.4536" cy="1815.8223" rx="0.08996582" ry="0.08996582"/>
	<ellipse fill="red" transform="matrix(14.6985 0 0 14.6985 -17450 -26261.8)" cx="1242.3654" cy="1815.7863" rx="0.08996582" ry="0.08996582"/>
	<ellipse fill="red" transform="matrix(14.6985 0 0 14.6985 -17450 -26261.8)" cx="1243.2772" cy="1815.7502" rx="0.08996582" ry="0.08996582"/>
	<ellipse fill="red" transform="matrix(14.6985 0 0 14.6985 -17450 -26261.8)" cx="1244.189" cy="1815.7142" rx="0.08996582" ry="0.08996582"/>
	<ellipse fill="red" transform="matrix(14.6985 0 0 14.6985 -17450 -26261.8)" cx="1245.1007" cy="1815.6782" rx="0.08996582" ry="0.08996582"/>
	<ellipse fill="red" transform="matrix(14.6985 0 0 14.6985 -17450 -26261.8)" cx="1246.0126" cy="1815.6422" rx="0.08996582" ry="0.08996582"/>
	<ellipse fill="red" transform="matrix(14.6985 0 0 14.6985 -17450 -26261.8)" cx="1246.9243" cy="1815.6062" rx="0.08996582" ry="0.08996582"/>
	<ellipse fill="red" transform="matrix(14.6985 0 0 14.6985 -17450 -26261.8)" cx="1247.8362" cy="1815.5702" rx="0.08996582" ry="0.08996582"/>
	<ellipse fill="red" transform="matrix(14.6985 0 0 14.6985 -17450 -26261.8)" cx="1248.7479" cy="1815.5342" rx="0.08996582" ry="0.08996582"/>
	<ellipse fill="red" transform="matrix(14.6985 0 0 14.6985 -17450 -26261.8)" cx="1249.6598" cy="1815.4982" rx="0.08996582" ry="0.08996582"/>
	<ellipse fill="red" transform="matrix(14.6985 0 0 14.6985 -17450 -26261.8)" cx="1250.5715" cy="1815.462" rx="0.08996582" ry="0.08996582"/>
	<ellipse fill="red" transform="matrix(14.6985 0 0 14.6985 -17450 -26261.8)" cx="1251.4834" cy="1815.426" rx="0.08996582" ry="0.08996582"/>
	<ellipse fill="red" transform="matrix(14.6985 0 0 14.6985 -17450 -26261.8)" cx="1252.3951" cy="1815.39" rx="0.08996582" ry="0.08996582"/>
	<ellipse fill="red" transform="matrix(14.6985 0 0 14.6985 -17450 -26261.8)" cx="1253.3069" cy="1815.354" rx="0.08996582" ry="0.08996582"/>
	<ellipse fill="red" transform="matrix(14.6985 0 0 14.6985 -17450 -26261.8)" cx="1254.2188" cy="1815.318" rx="0.08996582" ry="0.08996582"/>
	<ellipse fill="red" transform="matrix(14.6985 0 0 14.6985 -17450 -26261.8)" cx="1255.1305" cy="1815.282" rx="0.08996582" ry="0.08996582"/>
	<ellipse fill="red" transform="matrix(14.6985 0 0 14.6985 -17450 -26261.8)" cx="1256.0424" cy="1815.246" rx="0.08996582" ry="0.08996582"/>
	<ellipse fill="red" transform="matrix(14.6985 0 0 14.6985 -17450 -26261.8)" cx="1256.9541" cy="1815.21" rx="0.08996582" ry="0.08996582"/>
	<ellipse fill="red" transform="matrix(14.6985 0 0 14.6985 -17450 -26261.8)" cx="1257.866" cy="1815.174" rx="0.08996582" ry="0.08996582"/>
	<ellipse fill="red" transform="matrix(14.6985 0 0 14.6985 -17450 -26261.8)" cx="1258.7777" cy="1815.1379" rx="0.08996582" ry="0.08996582"/>
	<ellipse fill="red" transform="matrix(14.6985 0 0 14.6985 -17450 -26261.8)" cx="1259.6896" cy="1815.1019" rx="0.08996582" ry="0.08996582"/>
	<ellipse fill="red" transform="matrix(14.6985 0 0 14.6985 -17450 -26261.8)" cx="1260.6013" cy="1815.0659" rx="0.08996582" ry="0.08996582"/>
	<ellipse fill="red" transform="matrix(14.6985 0 0 14.6985 -17450 -26261.8)" cx="1261.5131" cy="1815.0298" rx="0.08996582" ry="0.08996582"/>
	<ellipse fill="red" transform="matrix(14.6985 0 0 14.6985 -17450 -26261.8)" cx="1262.4249" cy="1814.9938" rx="0.08996582" ry="0.08996582"/>
	<ellipse fill="red" transform="matrix(14.6985 0 0 14.6985 -17450 -26261.8)" cx="1263.3367" cy="1814.9578" rx="0.08996582" ry="0.08996582"/>
	<ellipse fill="red" transform="matrix(14.6985 0 0 14.6985 -17450 -26261.8)" cx="1264.2485" cy="1814.9218" rx="0.08996582" ry="0.08996582"/>
	<ellipse fill="red" transform="matrix(14.6985 0 0 14.6985 -17450 -26261.8)" cx="1265.1603" cy="1814.8857" rx="0.08996582" ry="0.08996582"/>
	<ellipse fill="red" transform="matrix(14.6985 0 0 14.6985 -17450 -26261.8)" cx="1266.0721" cy="1814.8497" rx="0.08996582" ry="0.08996582"/>
	<ellipse fill="red" transform="matrix(14.6985 0 0 14.6985 -17450 -26261.8)" cx="1266.9839" cy="1814.8137" rx="0.08996582" ry="0.08996582"/>
	<ellipse fill="red" transform="matrix(14.6985 0 0 14.6985 -17450 -26261.8)" cx="1267.8958" cy="1814.7777" rx="0.08996582" ry="0.08996582"/>
	<ellipse fill="red" transform="matrix(14.6985 0 0 14.6985 -17450 -26261.8)" cx="1268.8075" cy="1814.7417" rx="0.08996582" ry="0.08996582"/>
	<ellipse fill="red" transform="matrix(14.6985 0 0 14.6985 -17450 -26261.8)" cx="1269.7192" cy="1814.7057" rx="0.08996582" ry="0.08996582"/>
	<ellipse fill="red" transform="matrix(14.6985 0 0 14.6985 -17450 -26261.8)" cx="1270.2611" cy="1813.9036" rx="0.08996582" ry="0.08996582"/>
	<ellipse fill="red" transform="matrix(14.6985 0 0 14.6985 -17450 -26261.8)" cx="1270.803" cy="1813.1014" rx="0.08996582" ry="0.08996582"/>
	<ellipse fill="red" transform="matrix(14.6985 0 0 14.6985 -17450 -26261.8)" cx="1271.3447" cy="1812.2994" rx="0.08996582" ry="0.08996582"/>
	<ellipse fill="red" transform="matrix(14.6985 0 0 14.6985 -17450 -26261.8)" cx="1271.8866" cy="1811.4973" rx="0.08996582" ry="0.08996582"/>
	<ellipse fill="red" transform="matrix(14.6985 0 0 14.6985 -17450 -26261.8)" cx="1272.4283" cy="1810.6953" rx="0.08996582" ry="0.08996582"/>
	<ellipse fill="red" transform="matrix(14.6985 0 0 14.6985 -17450 -26261.8)" cx="1273.1602" cy="1811.1896" rx="0.08996582" ry="0.08996582"/>
	<ellipse fill="red" transform="matrix(14.6985 0 0 14.6985 -17450 -26261.8)" cx="1273.892" cy="1811.684" rx="0.08996582" ry="0.08996582"/>
	<ellipse fill="red" transform="matrix(14.6985 0 0 14.6985 -17450 -26261.8)" cx="1274.6239" cy="1812.1783" rx="0.08996582" ry="0.08996582"/>
	<ellipse fill="red" transform="matrix(14.6985 0 0 14.6985 -17450 -26261.8)" cx="1275.3557" cy="1812.6727" rx="0.08996582" ry="0.08996582"/>
	<ellipse fill="red" transform="matrix(14.6985 0 0 14.6985 -17450 -26261.8)" cx="1276.0875" cy="1813.1671" rx="0.08996582" ry="0.08996582"/>
	<ellipse fill="red" transform="matrix(14.6985 0 0 14.6985 -17450 -26261.8)" cx="1276.8193" cy="1813.6614" rx="0.08996582" ry="0.08996582"/>
	<ellipse fill="red" transform="matrix(14.6985 0 0 14.6985 -17450 -26261.8)" cx="1277.5511" cy="1814.1558" rx="0.08996582" ry="0.08996582"/>
	<ellipse fill="red" transform="matrix(14.6985 0 0 14.6985 -17450 -26261.8)" cx="1278.283" cy="1814.6501" rx="0.08996582" ry="0.08996582"/>
	<ellipse fill="red" transform="matrix(14.6985 0 0 14.6985 -17450 -26261.8)" cx="1279.0148" cy="1815.1445" rx="0.08996582" ry="0.08996582"/>
	<ellipse fill="red" transform="matrix(14.6985 0 0 14.6985 -17450 -26261.8)" cx="1279.7467" cy="1815.6389" rx="0.08996582" ry="0.08996582"/>
	<ellipse fill="red" transform="matrix(14.6985 0 0 14.6985 -17450 -26261.8)" cx="1280.4785" cy="1816.1332" rx="0.08996582" ry="0.08996582"/>
	<ellipse fill="red" transform="matrix(14.6985 0 0 14.6985 -17450 -26261.8)" cx="1281.2103" cy="1816.6276" rx="0.08996582" ry="0.08996582"/>
	<ellipse fill="red" transform="matrix(14.6985 0 0 14.6985 -17450 -26261.8)" cx="1281.9421" cy="1817.1219" rx="0.08996582" ry="0.08996582"/>
	<ellipse fill="red" transform="matrix(14.6985 0 0 14.6985 -17450 -26261.8)" cx="1282.674" cy="1817.6163" rx="0.08996582" ry="0.08996582"/>
	<ellipse fill="red" transform="matrix(14.6985 0 0 14.6985 -17450 -26261.8)" cx="1283.4058" cy="1818.1107" rx="0.08996582" ry="0.08996582"/>
	<ellipse fill="red" transform="matrix(14.6985 0 0 14.6985 -17450 -26261.8)" cx="1284.1377" cy="1818.605" rx="0.08996582" ry="0.08996582"/>
	<ellipse fill="purple" transform="matrix(14.6985 0 0 14.6985 -17450 -26261.8)" cx="1194.9686" cy="1813.4396" rx="0.08996582" ry="0.08996582"/>
	<ellipse fill="purple" transform="matrix(14.6985 0 0 14.6985 -17450 -26261.8)" cx="1196.9413" cy="1811.7457" rx="0.08996582" ry="0.08996582"/>
	<ellipse fill="purple" transform="matrix(14.6985 0 0 14.6985 -17450 -26261.8)" cx="1198.9138" cy="1810.052" rx="0.08996582" ry="0.08996582"/>
	<ellipse fill="purple" transform="matrix(14.6985 0 0 14.6985 -17450 -26261.8)" cx="1200.8864" cy="1808.3582" rx="0.08996582" ry="0.08996582"/>
	<ellipse fill="purple" transform="matrix(14.6985 0 0 14.6985 -17450 -26261.8)" cx="1202.859" cy="1806.6643" rx="0.08996582" ry="0.08996582"/>
	<ellipse fill="purple" transform="matrix(14.6985 0 0 14.6985 -17450 -26261.8)" cx="1204.6075" cy="1807.8932" rx="0.08996582" ry="0.08996582"/>
	<ellipse fill="purple" transform="matrix(14.6985 0 0 14.6985 -17450 -26261.8)" cx="1206.2988" cy="1809.8679" rx="0.08996582" ry="0.08996582"/>
	<ellipse fill="purple" transform="matrix(14.6985 0 0 14.6985 -17450 -26261.8)" cx="1207.9902" cy="1811.8425" rx="0.08996582" ry="0.08996582"/>
	<ellipse fill="purple" transform="matrix(14.6985 0 0 14.6985 -17450 -26261.8)" cx="1209.8873" cy="1813.4346" rx="0.08996582" ry="0.08996582"/>
	<ellipse fill="purple" transform="matrix(14.6985 0 0 14.6985 -17450 -26261.8)" cx="1212.4673" cy="1813.7568" rx="0.08996582" ry="0.08996582"/>
	<ellipse fill="purple" transform="matrix(14.6985 0 0 14.6985 -17450 -26261.8)" cx="1215.0472" cy="1814.0792" rx="0.08996582" ry="0.08996582"/>
	<ellipse fill="purple" transform="matrix(14.6985 0 0 14.6985 -17450 -26261.8)" cx="1217.6272" cy="1814.4015" rx="0.08996582" ry="0.08996582"/>
	<ellipse fill="purple" transform="matrix(14.6985 0 0 14.6985 -17450 -26261.8)" cx="1220.2072" cy="1814.7238" rx="0.08996582" ry="0.08996582"/>
	<ellipse fill="purple" transform="matrix(14.6985 0 0 14.6985 -17450 -26261.8)" cx="1222.7871" cy="1815.046" rx="0.08996582" ry="0.08996582"/>
	<ellipse fill="purple" transform="matrix(14.6985 0 0 14.6985 -17450 -26261.8)" cx="1225.3671" cy="1815.3683" rx="0.08996582" ry="0.08996582"/>
	<ellipse fill="purple" transform="matrix(14.6985 0 0 14.6985 -17450 -26261.8)" cx="1227.947" cy="1815.6906" rx="0.08996582" ry="0.08996582"/>
	<ellipse fill="purple" transform="matrix(14.6985 0 0 14.6985 -17450 -26261.8)" cx="1230.527" cy="1816.0128" rx="0.08996582" ry="0.08996582"/>
	<ellipse fill="purple" transform="matrix(14.6985 0 0 14.6985 -17450 -26261.8)" cx="1233.1068" cy="1816.3351" rx="0.08996582" ry="0.08996582"/>
	<ellipse fill="purple" transform="matrix(14.6985 0 0 14.6985 -17450 -26261.8)" cx="1235.6868" cy="1816.6573" rx="0.08996582" ry="0.08996582"/>
	<ellipse fill="purple" transform="matrix(14.6985 0 0 14.6985 -17450 -26261.8)" cx="1238.2667" cy="1816.9796" rx="0.08996582" ry="0.08996582"/>
	<ellipse fill="purple" transform="matrix(14.6985 0 0 14.6985 -17450 -26261.8)" cx="1240.8619" cy="1816.9441" rx="0.08996582" ry="0.08996582"/>
	<ellipse fill="purple" transform="matrix(14.6985 0 0 14.6985 -17450 -26261.8)" cx="1243.46" cy="1816.8423" rx="0.08996582" ry="0.08996582"/>
	<ellipse fill="purple" transform="matrix(14.6985 0 0 14.6985 -17450 -26261.8)" cx="1246.058" cy="1816.7406" rx="0.08996582" ry="0.08996582"/>
	<ellipse fill="purple" transform="matrix(14.6985 0 0 14.6985 -17450 -26261.8)" cx="1248.656" cy="1816.6388" rx="0.08996582" ry="0.08996582"/>
	<ellipse fill="purple" transform="matrix(14.6985 0 0 14.6985 -17450 -26261.8)" cx="1251.254" cy="1816.537" rx="0.08996582" ry="0.08996582"/>
	<ellipse fill="purple" transform="matrix(14.6985 0 0 14.6985 -17450 -26261.8)" cx="1253.8519" cy="1816.4352" rx="0.08996582" ry="0.08996582"/>
	<ellipse fill="purple" transform="matrix(14.6985 0 0 14.6985 -17450 -26261.8)" cx="1256.45" cy="1816.3334" rx="0.08996582" ry="0.08996582"/>
	<ellipse fill="purple" transform="matrix(14.6985 0 0 14.6985 -17450 -26261.8)" cx="1259.048" cy="1816.2316" rx="0.08996582" ry="0.08996582"/>
	<ellipse fill="purple" transform="matrix(14.6985 0 0 14.6985 -17450 -26261.8)" cx="1261.646" cy="1816.1299" rx="0.08996582" ry="0.08996582"/>
	<ellipse fill="purple" transform="matrix(14.6985 0 0 14.6985 -17450 -26261.8)" cx="1264.244" cy="1816.0281" rx="0.08996582" ry="0.08996582"/>
	<ellipse fill="purple" transform="matrix(14.6985 0 0 14.6985 -17450 -26261.8)" cx="1266.842" cy="1815.9263" rx="0.08996582" ry="0.08996582"/>
	<ellipse fill="purple" transform="matrix(14.6985 0 0 14.6985 -17450 -26261.8)" cx="1269.4401" cy="1815.8245" rx="0.08996582" ry="0.08996582"/>
	<ellipse fill="purple" transform="matrix(14.6985 0 0 14.6985 -17450 -26261.8)" cx="1271.2793" cy="1814.3632" rx="0.08996582" ry="0.08996582"/>
	<ellipse fill="purple" transform="matrix(14.6985 0 0 14.6985 -17450 -26261.8)" cx="1272.7346" cy="1812.2299" rx="0.08996582" ry="0.08996582"/>
	<ellipse fill="purple" transform="matrix(14.6985 0 0 14.6985 -17450 -26261.8)" cx="1274.8894" cy="1813.6848" rx="0.08996582" ry="0.08996582"/>
	<ellipse fill="purple" transform="matrix(14.6985 0 0 14.6985 -17450 -26261.8)" cx="1277.0441" cy="1815.1399" rx="0.08996582" ry="0.08996582"/>
	<ellipse fill="purple" transform="matrix(14.6985 0 0 14.6985 -17450 -26261.8)" cx="1279.1989" cy="1816.5948" rx="0.08996582" ry="0.08996582"/>
	<ellipse fill="purple" transform="matrix(14.6985 0 0 14.6985 -17450 -26261.8)" cx="1281.3536" cy="1818.0499" rx="0.08996582" ry="0.08996582"/>
	<ellipse transform="matrix(14.6985 0 0 14.6985 -17450 -26261.8)" cx="1196.0734" cy="1814.7261" rx="0.08996582" ry="0.08996582"/>
	<ellipse transform="matrix(14.6985 0 0 14.6985 -17450 -26261.8)" cx="1199.0326" cy="1812.1858" rx="0.08996582" ry="0.08996582"/>
	<ellipse transform="matrix(14.6985 0 0 14.6985 -17450 -26261.8)" cx="1201.9918" cy="1809.6455" rx="0.08996582" ry="0.08996582"/>
	<ellipse transform="matrix(14.6985 0 0 14.6985 -17450 -26261.8)" cx="1204.6853" cy="1810.6006" rx="0.08996582" ry="0.08996582"/>
	<ellipse transform="matrix(14.6985 0 0 14.6985 -17450 -26261.8)" cx="1207.2266" cy="1813.559" rx="0.08996582" ry="0.08996582"/>
	<ellipse transform="matrix(14.6985 0 0 14.6985 -17450 -26261.8)" cx="1210.4672" cy="1815.2152" rx="0.08996582" ry="0.08996582"/>
	<ellipse transform="matrix(14.6985 0 0 14.6985 -17450 -26261.8)" cx="1214.3369" cy="1815.7001" rx="0.08996582" ry="0.08996582"/>
	<ellipse transform="matrix(14.6985 0 0 14.6985 -17450 -26261.8)" cx="1218.2067" cy="1816.1849" rx="0.08996582" ry="0.08996582"/>
	<ellipse transform="matrix(14.6985 0 0 14.6985 -17450 -26261.8)" cx="1222.0764" cy="1816.6698" rx="0.08996582" ry="0.08996582"/>
	<ellipse transform="matrix(14.6985 0 0 14.6985 -17450 -26261.8)" cx="1225.9462" cy="1817.1545" rx="0.08996582" ry="0.08996582"/>
	<ellipse transform="matrix(14.6985 0 0 14.6985 -17450 -26261.8)" cx="1229.8159" cy="1817.6394" rx="0.08996582" ry="0.08996582"/>
	<ellipse transform="matrix(14.6985 0 0 14.6985 -17450 -26261.8)" cx="1233.6855" cy="1818.1243" rx="0.08996582" ry="0.08996582"/>
	<ellipse transform="matrix(14.6985 0 0 14.6985 -17450 -26261.8)" cx="1237.5553" cy="1818.6091" rx="0.08996582" ry="0.08996582"/>
	<ellipse transform="matrix(14.6985 0 0 14.6985 -17450 -26261.8)" cx="1241.4449" cy="1818.6276" rx="0.08996582" ry="0.08996582"/>
	<ellipse transform="matrix(14.6985 0 0 14.6985 -17450 -26261.8)" cx="1245.3419" cy="1818.4736" rx="0.08996582" ry="0.08996582"/>
	<ellipse transform="matrix(14.6985 0 0 14.6985 -17450 -26261.8)" cx="1249.2389" cy="1818.3197" rx="0.08996582" ry="0.08996582"/>
	<ellipse transform="matrix(14.6985 0 0 14.6985 -17450 -26261.8)" cx="1253.1359" cy="1818.1656" rx="0.08996582" ry="0.08996582"/>
	<ellipse transform="matrix(14.6985 0 0 14.6985 -17450 -26261.8)" cx="1257.0328" cy="1818.0117" rx="0.08996582" ry="0.08996582"/>
	<ellipse transform="matrix(14.6985 0 0 14.6985 -17450 -26261.8)" cx="1260.9298" cy="1817.8578" rx="0.08996582" ry="0.08996582"/>
	<ellipse transform="matrix(14.6985 0 0 14.6985 -17450 -26261.8)" cx="1264.8267" cy="1817.7037" rx="0.08996582" ry="0.08996582"/>
	<ellipse transform="matrix(14.6985 0 0 14.6985 -17450 -26261.8)" cx="1268.7236" cy="1817.5498" rx="0.08996582" ry="0.08996582"/>
	<ellipse transform="matrix(14.6985 0 0 14.6985 -17450 -26261.8)" cx="1272.0155" cy="1816.3118" rx="0.08996582" ry="0.08996582"/>
	<ellipse transform="matrix(14.6985 0 0 14.6985 -17450 -26261.8)" cx="1274.6823" cy="1815.5951" rx="0.08996582" ry="0.08996582"/>
	<ellipse transform="matrix(14.6985 0 0 14.6985 -17450 -26261.8)" cx="1277.9137" cy="1817.7787" rx="0.08996582" ry="0.08996582"/>
	<ellipse transform="matrix(14.6985 0 0 14.6985 -17450 -26261.8)" cx="1281.1451" cy="1819.9623" rx="0.08996582" ry="0.08996582"/>
	<ellipse transform="matrix(14.6985 0 0 14.6985 -17450 -26261.8)" cx="1197.7653" cy="1816.6969" rx="0.08996582" ry="0.08996582"/>
	<ellipse transform="matrix(14.6985 0 0 14.6985 -17450 -26261.8)" cx="1200.7263" cy="1814.1588" rx="0.08996582" ry="0.08996582"/>
	<ellipse transform="matrix(14.6985 0 0 14.6985 -17450 -26261.8)" cx="1203.5601" cy="1813.2866" rx="0.08996582" ry="0.08996582"/>
	<ellipse transform="matrix(14.6985 0 0 14.6985 -17450 -26261.8)" cx="1206.1011" cy="1816.2452" rx="0.08996582" ry="0.08996582"/>
	<ellipse transform="matrix(14.6985 0 0 14.6985 -17450 -26261.8)" cx="1209.4434" cy="1817.7114" rx="0.08996582" ry="0.08996582"/>
	<ellipse transform="matrix(14.6985 0 0 14.6985 -17450 -26261.8)" cx="1213.3132" cy="1818.1949" rx="0.08996582" ry="0.08996582"/>
	<ellipse transform="matrix(14.6985 0 0 14.6985 -17450 -26261.8)" cx="1217.1832" cy="1818.6783" rx="0.08996582" ry="0.08996582"/>
	<ellipse transform="matrix(14.6985 0 0 14.6985 -17450 -26261.8)" cx="1221.0531" cy="1819.1617" rx="0.08996582" ry="0.08996582"/>
	<ellipse transform="matrix(14.6985 0 0 14.6985 -17450 -26261.8)" cx="1224.9231" cy="1819.6453" rx="0.08996582" ry="0.08996582"/>
	<ellipse transform="matrix(14.6985 0 0 14.6985 -17450 -26261.8)" cx="1228.793" cy="1820.1287" rx="0.08996582" ry="0.08996582"/>
	<ellipse transform="matrix(14.6985 0 0 14.6985 -17450 -26261.8)" cx="1232.6628" cy="1820.6121" rx="0.08996582" ry="0.08996582"/>
	<ellipse transform="matrix(14.6985 0 0 14.6985 -17450 -26261.8)" cx="1236.5328" cy="1821.0955" rx="0.08996582" ry="0.08996582"/>
	<ellipse transform="matrix(14.6985 0 0 14.6985 -17450 -26261.8)" cx="1240.4161" cy="1821.2645" rx="0.08996582" ry="0.08996582"/>
	<ellipse transform="matrix(14.6985 0 0 14.6985 -17450 -26261.8)" cx="1244.3131" cy="1821.1117" rx="0.08996582" ry="0.08996582"/>
	<ellipse transform="matrix(14.6985 0 0 14.6985 -17450 -26261.8)" cx="1248.2101" cy="1820.9589" rx="0.08996582" ry="0.08996582"/>
	<ellipse transform="matrix(14.6985 0 0 14.6985 -17450 -26261.8)" cx="1252.1072" cy="1820.806" rx="0.08996582" ry="0.08996582"/>
	<ellipse transform="matrix(14.6985 0 0 14.6985 -17450 -26261.8)" cx="1256.0042" cy="1820.6532" rx="0.08996582" ry="0.08996582"/>
	<ellipse transform="matrix(14.6985 0 0 14.6985 -17450 -26261.8)" cx="1259.9011" cy="1820.5004" rx="0.08996582" ry="0.08996582"/>
	<ellipse transform="matrix(14.6985 0 0 14.6985 -17450 -26261.8)" cx="1263.7981" cy="1820.3475" rx="0.08996582" ry="0.08996582"/>
	<ellipse transform="matrix(14.6985 0 0 14.6985 -17450 -26261.8)" cx="1267.6952" cy="1820.1947" rx="0.08996582" ry="0.08996582"/>
	<ellipse transform="matrix(14.6985 0 0 14.6985 -17450 -26261.8)" cx="1271.5922" cy="1820.0419" rx="0.08996582" ry="0.08996582"/>
	<ellipse transform="matrix(14.6985 0 0 14.6985 -17450 -26261.8)" cx="1274.4121" cy="1818.556" rx="0.08996582" ry="0.08996582"/>
	<ellipse transform="matrix(14.6985 0 0 14.6985 -17450 -26261.8)" cx="1277.6447" cy="1820.738" rx="0.08996582" ry="0.08996582"/>
	<ellipse transform="matrix(14.6985 0 0 14.6985 -17450 -26261.8)" cx="1199.4619" cy="1818.6764" rx="0.08996582" ry="0.08996582"/>
	<ellipse transform="matrix(14.6985 0 0 14.6985 -17450 -26261.8)" cx="1202.4253" cy="1816.141" rx="0.08996582" ry="0.08996582"/>
	<ellipse transform="matrix(14.6985 0 0 14.6985 -17450 -26261.8)" cx="1204.9789" cy="1818.9249" rx="0.08996582" ry="0.08996582"/>
	<ellipse transform="matrix(14.6985 0 0 14.6985 -17450 -26261.8)" cx="1208.424" cy="1820.1997" rx="0.08996582" ry="0.08996582"/>
	<ellipse transform="matrix(14.6985 0 0 14.6985 -17450 -26261.8)" cx="1212.2937" cy="1820.6842" rx="0.08996582" ry="0.08996582"/>
	<ellipse transform="matrix(14.6985 0 0 14.6985 -17450 -26261.8)" cx="1216.1636" cy="1821.1687" rx="0.08996582" ry="0.08996582"/>
	<ellipse transform="matrix(14.6985 0 0 14.6985 -17450 -26261.8)" cx="1220.0333" cy="1821.6532" rx="0.08996582" ry="0.08996582"/>
	<ellipse transform="matrix(14.6985 0 0 14.6985 -17450 -26261.8)" cx="1223.9031" cy="1822.1376" rx="0.08996582" ry="0.08996582"/>
	<ellipse transform="matrix(14.6985 0 0 14.6985 -17450 -26261.8)" cx="1227.7729" cy="1822.6221" rx="0.08996582" ry="0.08996582"/>
	<ellipse transform="matrix(14.6985 0 0 14.6985 -17450 -26261.8)" cx="1231.6427" cy="1823.1066" rx="0.08996582" ry="0.08996582"/>
	<ellipse transform="matrix(14.6985 0 0 14.6985 -17450 -26261.8)" cx="1235.5125" cy="1823.5911" rx="0.08996582" ry="0.08996582"/>
	<ellipse transform="matrix(14.6985 0 0 14.6985 -17450 -26261.8)" cx="1239.3893" cy="1823.9102" rx="0.08996582" ry="0.08996582"/>
	<ellipse transform="matrix(14.6985 0 0 14.6985 -17450 -26261.8)" cx="1243.2863" cy="1823.7562" rx="0.08996582" ry="0.08996582"/>
	<ellipse transform="matrix(14.6985 0 0 14.6985 -17450 -26261.8)" cx="1247.1832" cy="1823.6023" rx="0.08996582" ry="0.08996582"/>
	<ellipse transform="matrix(14.6985 0 0 14.6985 -17450 -26261.8)" cx="1251.0802" cy="1823.4484" rx="0.08996582" ry="0.08996582"/>
	<ellipse transform="matrix(14.6985 0 0 14.6985 -17450 -26261.8)" cx="1254.9772" cy="1823.2944" rx="0.08996582" ry="0.08996582"/>
	<ellipse transform="matrix(14.6985 0 0 14.6985 -17450 -26261.8)" cx="1258.8741" cy="1823.1406" rx="0.08996582" ry="0.08996582"/>
	<ellipse transform="matrix(14.6985 0 0 14.6985 -17450 -26261.8)" cx="1262.7711" cy="1822.9867" rx="0.08996582" ry="0.08996582"/>
	<ellipse transform="matrix(14.6985 0 0 14.6985 -17450 -26261.8)" cx="1266.6681" cy="1822.8328" rx="0.08996582" ry="0.08996582"/>
	<ellipse transform="matrix(14.6985 0 0 14.6985 -17450 -26261.8)" cx="1270.5651" cy="1822.6788" rx="0.08996582" ry="0.08996582"/>
	<ellipse transform="matrix(14.6985 0 0 14.6985 -17450 -26261.8)" cx="1274.291" cy="1822.2213" rx="0.08996582" ry="0.08996582"/>
	<ellipse transform="matrix(14.6985 0 0 14.6985 -17450 -26261.8)" cx="1277.3837" cy="1823.6993" rx="0.08996582" ry="0.08996582"/>
	<ellipse transform="matrix(14.6985 0 0 14.6985 -17450 -26261.8)" cx="1201.1472" cy="1820.6462" rx="0.08996582" ry="0.08996582"/>
	<ellipse transform="matrix(14.6985 0 0 14.6985 -17450 -26261.8)" cx="1203.8419" cy="1821.5983" rx="0.08996582" ry="0.08996582"/>
	<ellipse transform="matrix(14.6985 0 0 14.6985 -17450 -26261.8)" cx="1207.3829" cy="1822.6946" rx="0.08996582" ry="0.08996582"/>
	<ellipse transform="matrix(14.6985 0 0 14.6985 -17450 -26261.8)" cx="1211.2528" cy="1823.1788" rx="0.08996582" ry="0.08996582"/>
	<ellipse transform="matrix(14.6985 0 0 14.6985 -17450 -26261.8)" cx="1215.1226" cy="1823.6631" rx="0.08996582" ry="0.08996582"/>
	<ellipse transform="matrix(14.6985 0 0 14.6985 -17450 -26261.8)" cx="1218.9924" cy="1824.1475" rx="0.08996582" ry="0.08996582"/>
	<ellipse transform="matrix(14.6985 0 0 14.6985 -17450 -26261.8)" cx="1222.8622" cy="1824.6317" rx="0.08996582" ry="0.08996582"/>
	<ellipse transform="matrix(14.6985 0 0 14.6985 -17450 -26261.8)" cx="1226.7321" cy="1825.1161" rx="0.08996582" ry="0.08996582"/>
	<ellipse transform="matrix(14.6985 0 0 14.6985 -17450 -26261.8)" cx="1230.6018" cy="1825.6003" rx="0.08996582" ry="0.08996582"/>
	<ellipse transform="matrix(14.6985 0 0 14.6985 -17450 -26261.8)" cx="1234.4717" cy="1826.0846" rx="0.08996582" ry="0.08996582"/>
	<ellipse transform="matrix(14.6985 0 0 14.6985 -17450 -26261.8)" cx="1238.3419" cy="1826.5571" rx="0.08996582" ry="0.08996582"/>
	<ellipse transform="matrix(14.6985 0 0 14.6985 -17450 -26261.8)" cx="1242.2389" cy="1826.4026" rx="0.08996582" ry="0.08996582"/>
	<ellipse transform="matrix(14.6985 0 0 14.6985 -17450 -26261.8)" cx="1246.1359" cy="1826.248" rx="0.08996582" ry="0.08996582"/>
	<ellipse transform="matrix(14.6985 0 0 14.6985 -17450 -26261.8)" cx="1250.0327" cy="1826.0935" rx="0.08996582" ry="0.08996582"/>
	<ellipse transform="matrix(14.6985 0 0 14.6985 -17450 -26261.8)" cx="1253.9297" cy="1825.939" rx="0.08996582" ry="0.08996582"/>
	<ellipse transform="matrix(14.6985 0 0 14.6985 -17450 -26261.8)" cx="1257.8267" cy="1825.7844" rx="0.08996582" ry="0.08996582"/>
	<ellipse transform="matrix(14.6985 0 0 14.6985 -17450 -26261.8)" cx="1261.7235" cy="1825.6298" rx="0.08996582" ry="0.08996582"/>
	<ellipse transform="matrix(14.6985 0 0 14.6985 -17450 -26261.8)" cx="1265.6205" cy="1825.4752" rx="0.08996582" ry="0.08996582"/>
	<ellipse transform="matrix(14.6985 0 0 14.6985 -17450 -26261.8)" cx="1269.5175" cy="1825.3207" rx="0.08996582" ry="0.08996582"/>
	<ellipse transform="matrix(14.6985 0 0 14.6985 -17450 -26261.8)" cx="1273.4144" cy="1825.1661" rx="0.08996582" ry="0.08996582"/>
	<ellipse transform="matrix(14.6985 0 0 14.6985 -17450 -26261.8)" cx="1276.889" cy="1826.498" rx="0.08996582" ry="0.08996582"/>
	<ellipse transform="matrix(14.6985 0 0 14.6985 -17450 -26261.8)" cx="1207.0596" cy="1825.278" rx="0.08996582" ry="0.08996582"/>
	<ellipse transform="matrix(14.6985 0 0 14.6985 -17450 -26261.8)" cx="1210.9296" cy="1825.7611" rx="0.08996582" ry="0.08996582"/>
	<ellipse transform="matrix(14.6985 0 0 14.6985 -17450 -26261.8)" cx="1214.7996" cy="1826.2441" rx="0.08996582" ry="0.08996582"/>
	<ellipse transform="matrix(14.6985 0 0 14.6985 -17450 -26261.8)" cx="1218.6696" cy="1826.7272" rx="0.08996582" ry="0.08996582"/>
	<ellipse transform="matrix(14.6985 0 0 14.6985 -17450 -26261.8)" cx="1222.5396" cy="1827.2102" rx="0.08996582" ry="0.08996582"/>
	<ellipse transform="matrix(14.6985 0 0 14.6985 -17450 -26261.8)" cx="1226.4094" cy="1827.6932" rx="0.08996582" ry="0.08996582"/>
	<ellipse transform="matrix(14.6985 0 0 14.6985 -17450 -26261.8)" cx="1230.2794" cy="1828.1764" rx="0.08996582" ry="0.08996582"/>
	<ellipse transform="matrix(14.6985 0 0 14.6985 -17450 -26261.8)" cx="1234.1494" cy="1828.6594" rx="0.08996582" ry="0.08996582"/>
	<ellipse transform="matrix(14.6985 0 0 14.6985 -17450 -26261.8)" cx="1238.0194" cy="1829.1425" rx="0.08996582" ry="0.08996582"/>
	<ellipse transform="matrix(14.6985 0 0 14.6985 -17450 -26261.8)" cx="1241.9154" cy="1829.0126" rx="0.08996582" ry="0.08996582"/>
	<ellipse transform="matrix(14.6985 0 0 14.6985 -17450 -26261.8)" cx="1245.8124" cy="1828.8597" rx="0.08996582" ry="0.08996582"/>
	<ellipse transform="matrix(14.6985 0 0 14.6985 -17450 -26261.8)" cx="1249.7094" cy="1828.7068" rx="0.08996582" ry="0.08996582"/>
	<ellipse transform="matrix(14.6985 0 0 14.6985 -17450 -26261.8)" cx="1253.6064" cy="1828.5538" rx="0.08996582" ry="0.08996582"/>
	<ellipse transform="matrix(14.6985 0 0 14.6985 -17450 -26261.8)" cx="1257.5034" cy="1828.4009" rx="0.08996582" ry="0.08996582"/>
	<ellipse transform="matrix(14.6985 0 0 14.6985 -17450 -26261.8)" cx="1261.4004" cy="1828.2479" rx="0.08996582" ry="0.08996582"/>
	<ellipse transform="matrix(14.6985 0 0 14.6985 -17450 -26261.8)" cx="1265.2974" cy="1828.0951" rx="0.08996582" ry="0.08996582"/>
	<ellipse transform="matrix(14.6985 0 0 14.6985 -17450 -26261.8)" cx="1269.1945" cy="1827.9421" rx="0.08996582" ry="0.08996582"/>
	<ellipse transform="matrix(14.6985 0 0 14.6985 -17450 -26261.8)" cx="1273.0914" cy="1827.7892" rx="0.08996582" ry="0.08996582"/>
	<ellipse transform="matrix(14.6985 0 0 14.6985 -17450 -26261.8)" cx="1203.1897" cy="1824.7949" rx="0.08996582" ry="0.08996582"/>
	<ellipse transform="matrix(14.6985 0 0 14.6985 -17450 -26261.8)" cx="1200.4176" cy="1824.7002" rx="0.08996582" ry="0.08996582"/>
</svg>
