<?xml version="1.0" encoding="utf-8" ?>
<svg xmlns="http://www.w3.org/2000/svg" xmlns:xlink="http://www.w3.org/1999/xlink" width="2000" height="300">
	<rect fill="white" width="2000" height="300"/>
	<path fill="none" stroke="black" stroke-width="2" stroke-miterlimit="4" d="M50 100L850 100"/>
	<path fill="none" stroke="red" stroke-width="1" stroke-miterlimit="4" d="M50 96L900 96"/>
	<path fill="none" stroke="green" stroke-width="1" stroke-miterlimit="4" d="M50 93L900 93"/>
	<path fill="none" stroke="black" stroke-width="1" stroke-miterlimit="4" d="M50 85L850 85"/>
	<path fill="none" stroke="black" stroke-width="1" stroke-miterlimit="4" d="M50 135L850 135"/>
	<path fill="none" stroke="black" stroke-width="1" stroke-miterlimit="4" d="M50 135L53 133.5L53 136.5L50 135Z"/>
	<path fill="none" stroke="black" stroke-width="1" stroke-miterlimit="4" d="M50 132L50 138"/>
	<path fill="none" stroke="black" stroke-width="1" stroke-miterlimit="4" d="M850 135L847 133.5L847 136.5L850 135Z"/>
	<path fill="none" stroke="black" stroke-width="1" stroke-miterlimit="4" d="M850 132L850 138"/>
	<text font-size="8" font-family="PingFang SC, 蘋方-簡, 苹方-简" x="437.19199, 441.99197, 446.79199, 451.59198, 455.96799, " y="130, ">
			800cm
	</text>
	<rect fill="red" x="50" y="85" width="1" height="15"/>
	<rect fill="red" x="50" y="90" width="25" height="10"/>
	<rect fill="none" stroke="black" stroke-width="1" stroke-miterlimit="4" x="50" y="90" width="25" height="10"/>
	<path fill="none" stroke="black" stroke-width="1" stroke-miterlimit="4" d="M50 120L75 120"/>
	<path fill="none" stroke="black" stroke-width="1" stroke-miterlimit="4" d="M50 120L53 118.5L53 121.5L50 120Z"/>
	<path fill="none" stroke="black" stroke-width="1" stroke-miterlimit="4" d="M50 117L50 123"/>
	<path fill="none" stroke="black" stroke-width="1" stroke-miterlimit="4" d="M75 120L72 118.5L72 121.5L75 120Z"/>
	<path fill="none" stroke="black" stroke-width="1" stroke-miterlimit="4" d="M75 117L75 123"/>
	<text font-size="8" font-family="PingFang SC, 蘋方-簡, 苹方-简" x="57.700001, 62.5, " y="115, ">
			25
	</text>
	<rect fill="red" x="75" y="90" width="25" height="10"/>
	<rect fill="none" stroke="black" stroke-width="1" stroke-miterlimit="4" x="75" y="90" width="25" height="10"/>
	<path fill="none" stroke="black" stroke-width="1" stroke-miterlimit="4" d="M75 120L100 120"/>
	<path fill="none" stroke="black" stroke-width="1" stroke-miterlimit="4" d="M75 120L78 118.5L78 121.5L75 120Z"/>
	<path fill="none" stroke="black" stroke-width="1" stroke-miterlimit="4" d="M75 117L75 123"/>
	<path fill="none" stroke="black" stroke-width="1" stroke-miterlimit="4" d="M100 120L97 118.5L97 121.5L100 120Z"/>
	<path fill="none" stroke="black" stroke-width="1" stroke-miterlimit="4" d="M100 117L100 123"/>
	<text font-size="8" font-family="PingFang SC, 蘋方-簡, 苹方-简" x="82.699997, 87.5, " y="115, ">
			25
	</text>
	<rect fill="red" x="100" y="90" width="25" height="10"/>
	<rect fill="none" stroke="black" stroke-width="1" stroke-miterlimit="4" x="100" y="90" width="25" height="10"/>
	<path fill="none" stroke="black" stroke-width="1" stroke-miterlimit="4" d="M100 120L125 120"/>
	<path fill="none" stroke="black" stroke-width="1" stroke-miterlimit="4" d="M100 120L103 118.5L103 121.5L100 120Z"/>
	<path fill="none" stroke="black" stroke-width="1" stroke-miterlimit="4" d="M100 117L100 123"/>
	<path fill="none" stroke="black" stroke-width="1" stroke-miterlimit="4" d="M125 120L122 118.5L122 121.5L125 120Z"/>
	<path fill="none" stroke="black" stroke-width="1" stroke-miterlimit="4" d="M125 117L125 123"/>
	<text font-size="8" font-family="PingFang SC, 蘋方-簡, 苹方-简" x="107.7, 112.5, " y="115, ">
			25
	</text>
	<rect fill="red" x="125" y="90" width="25" height="10"/>
	<rect fill="none" stroke="black" stroke-width="1" stroke-miterlimit="4" x="125" y="90" width="25" height="10"/>
	<path fill="none" stroke="black" stroke-width="1" stroke-miterlimit="4" d="M125 120L150 120"/>
	<path fill="none" stroke="black" stroke-width="1" stroke-miterlimit="4" d="M125 120L128 118.5L128 121.5L125 120Z"/>
	<path fill="none" stroke="black" stroke-width="1" stroke-miterlimit="4" d="M125 117L125 123"/>
	<path fill="none" stroke="black" stroke-width="1" stroke-miterlimit="4" d="M150 120L147 118.5L147 121.5L150 120Z"/>
	<path fill="none" stroke="black" stroke-width="1" stroke-miterlimit="4" d="M150 117L150 123"/>
	<text font-size="8" font-family="PingFang SC, 蘋方-簡, 苹方-简" x="132.7, 137.5, " y="115, ">
			25
	</text>
	<rect fill="red" x="150" y="90" width="25" height="10"/>
	<rect fill="none" stroke="black" stroke-width="1" stroke-miterlimit="4" x="150" y="90" width="25" height="10"/>
	<path fill="none" stroke="black" stroke-width="1" stroke-miterlimit="4" d="M150 120L175 120"/>
	<path fill="none" stroke="black" stroke-width="1" stroke-miterlimit="4" d="M150 120L153 118.5L153 121.5L150 120Z"/>
	<path fill="none" stroke="black" stroke-width="1" stroke-miterlimit="4" d="M150 117L150 123"/>
	<path fill="none" stroke="black" stroke-width="1" stroke-miterlimit="4" d="M175 120L172 118.5L172 121.5L175 120Z"/>
	<path fill="none" stroke="black" stroke-width="1" stroke-miterlimit="4" d="M175 117L175 123"/>
	<text font-size="8" font-family="PingFang SC, 蘋方-簡, 苹方-简" x="157.7, 162.5, " y="115, ">
			25
	</text>
	<rect fill="red" x="175" y="90" width="25" height="10"/>
	<rect fill="none" stroke="black" stroke-width="1" stroke-miterlimit="4" x="175" y="90" width="25" height="10"/>
	<path fill="none" stroke="black" stroke-width="1" stroke-miterlimit="4" d="M175 120L200 120"/>
	<path fill="none" stroke="black" stroke-width="1" stroke-miterlimit="4" d="M175 120L178 118.5L178 121.5L175 120Z"/>
	<path fill="none" stroke="black" stroke-width="1" stroke-miterlimit="4" d="M175 117L175 123"/>
	<path fill="none" stroke="black" stroke-width="1" stroke-miterlimit="4" d="M200 120L197 118.5L197 121.5L200 120Z"/>
	<path fill="none" stroke="black" stroke-width="1" stroke-miterlimit="4" d="M200 117L200 123"/>
	<text font-size="8" font-family="PingFang SC, 蘋方-簡, 苹方-简" x="182.7, 187.5, " y="115, ">
			25
	</text>
	<rect fill="red" x="200" y="90" width="25" height="10"/>
	<rect fill="none" stroke="black" stroke-width="1" stroke-miterlimit="4" x="200" y="90" width="25" height="10"/>
	<path fill="none" stroke="black" stroke-width="1" stroke-miterlimit="4" d="M200 120L225 120"/>
	<path fill="none" stroke="black" stroke-width="1" stroke-miterlimit="4" d="M200 120L203 118.5L203 121.5L200 120Z"/>
	<path fill="none" stroke="black" stroke-width="1" stroke-miterlimit="4" d="M200 117L200 123"/>
	<path fill="none" stroke="black" stroke-width="1" stroke-miterlimit="4" d="M225 120L222 118.5L222 121.5L225 120Z"/>
	<path fill="none" stroke="black" stroke-width="1" stroke-miterlimit="4" d="M225 117L225 123"/>
	<text font-size="8" font-family="PingFang SC, 蘋方-簡, 苹方-简" x="207.7, 212.5, " y="115, ">
			25
	</text>
	<rect fill="red" x="225" y="90" width="25" height="10"/>
	<rect fill="none" stroke="black" stroke-width="1" stroke-miterlimit="4" x="225" y="90" width="25" height="10"/>
	<path fill="none" stroke="black" stroke-width="1" stroke-miterlimit="4" d="M225 120L250 120"/>
	<path fill="none" stroke="black" stroke-width="1" stroke-miterlimit="4" d="M225 120L228 118.5L228 121.5L225 120Z"/>
	<path fill="none" stroke="black" stroke-width="1" stroke-miterlimit="4" d="M225 117L225 123"/>
	<path fill="none" stroke="black" stroke-width="1" stroke-miterlimit="4" d="M250 120L247 118.5L247 121.5L250 120Z"/>
	<path fill="none" stroke="black" stroke-width="1" stroke-miterlimit="4" d="M250 117L250 123"/>
	<text font-size="8" font-family="PingFang SC, 蘋方-簡, 苹方-简" x="232.7, 237.5, " y="115, ">
			25
	</text>
	<rect fill="red" x="250" y="90" width="25" height="10"/>
	<rect fill="none" stroke="black" stroke-width="1" stroke-miterlimit="4" x="250" y="90" width="25" height="10"/>
	<path fill="none" stroke="black" stroke-width="1" stroke-miterlimit="4" d="M250 120L275 120"/>
	<path fill="none" stroke="black" stroke-width="1" stroke-miterlimit="4" d="M250 120L253 118.5L253 121.5L250 120Z"/>
	<path fill="none" stroke="black" stroke-width="1" stroke-miterlimit="4" d="M250 117L250 123"/>
	<path fill="none" stroke="black" stroke-width="1" stroke-miterlimit="4" d="M275 120L272 118.5L272 121.5L275 120Z"/>
	<path fill="none" stroke="black" stroke-width="1" stroke-miterlimit="4" d="M275 117L275 123"/>
	<text font-size="8" font-family="PingFang SC, 蘋方-簡, 苹方-简" x="257.70001, 262.5, " y="115, ">
			25
	</text>
	<rect fill="red" x="275" y="90" width="25" height="10"/>
	<rect fill="none" stroke="black" stroke-width="1" stroke-miterlimit="4" x="275" y="90" width="25" height="10"/>
	<path fill="none" stroke="black" stroke-width="1" stroke-miterlimit="4" d="M275 120L300 120"/>
	<path fill="none" stroke="black" stroke-width="1" stroke-miterlimit="4" d="M275 120L278 118.5L278 121.5L275 120Z"/>
	<path fill="none" stroke="black" stroke-width="1" stroke-miterlimit="4" d="M275 117L275 123"/>
	<path fill="none" stroke="black" stroke-width="1" stroke-miterlimit="4" d="M300 120L297 118.5L297 121.5L300 120Z"/>
	<path fill="none" stroke="black" stroke-width="1" stroke-miterlimit="4" d="M300 117L300 123"/>
	<text font-size="8" font-family="PingFang SC, 蘋方-簡, 苹方-简" x="282.70001, 287.5, " y="115, ">
			25
	</text>
	<rect fill="red" x="300" y="90" width="25" height="10"/>
	<rect fill="none" stroke="black" stroke-width="1" stroke-miterlimit="4" x="300" y="90" width="25" height="10"/>
	<path fill="none" stroke="black" stroke-width="1" stroke-miterlimit="4" d="M300 120L325 120"/>
	<path fill="none" stroke="black" stroke-width="1" stroke-miterlimit="4" d="M300 120L303 118.5L303 121.5L300 120Z"/>
	<path fill="none" stroke="black" stroke-width="1" stroke-miterlimit="4" d="M300 117L300 123"/>
	<path fill="none" stroke="black" stroke-width="1" stroke-miterlimit="4" d="M325 120L322 118.5L322 121.5L325 120Z"/>
	<path fill="none" stroke="black" stroke-width="1" stroke-miterlimit="4" d="M325 117L325 123"/>
	<text font-size="8" font-family="PingFang SC, 蘋方-簡, 苹方-简" x="307.70001, 312.5, " y="115, ">
			25
	</text>
	<rect fill="red" x="325" y="90" width="25" height="10"/>
	<rect fill="none" stroke="black" stroke-width="1" stroke-miterlimit="4" x="325" y="90" width="25" height="10"/>
	<path fill="none" stroke="black" stroke-width="1" stroke-miterlimit="4" d="M325 120L350 120"/>
	<path fill="none" stroke="black" stroke-width="1" stroke-miterlimit="4" d="M325 120L328 118.5L328 121.5L325 120Z"/>
	<path fill="none" stroke="black" stroke-width="1" stroke-miterlimit="4" d="M325 117L325 123"/>
	<path fill="none" stroke="black" stroke-width="1" stroke-miterlimit="4" d="M350 120L347 118.5L347 121.5L350 120Z"/>
	<path fill="none" stroke="black" stroke-width="1" stroke-miterlimit="4" d="M350 117L350 123"/>
	<text font-size="8" font-family="PingFang SC, 蘋方-簡, 苹方-简" x="332.70001, 337.5, " y="115, ">
			25
	</text>
	<rect fill="red" x="350" y="90" width="25" height="10"/>
	<rect fill="none" stroke="black" stroke-width="1" stroke-miterlimit="4" x="350" y="90" width="25" height="10"/>
	<path fill="none" stroke="black" stroke-width="1" stroke-miterlimit="4" d="M350 120L375 120"/>
	<path fill="none" stroke="black" stroke-width="1" stroke-miterlimit="4" d="M350 120L353 118.5L353 121.5L350 120Z"/>
	<path fill="none" stroke="black" stroke-width="1" stroke-miterlimit="4" d="M350 117L350 123"/>
	<path fill="none" stroke="black" stroke-width="1" stroke-miterlimit="4" d="M375 120L372 118.5L372 121.5L375 120Z"/>
	<path fill="none" stroke="black" stroke-width="1" stroke-miterlimit="4" d="M375 117L375 123"/>
	<text font-size="8" font-family="PingFang SC, 蘋方-簡, 苹方-简" x="357.70001, 362.5, " y="115, ">
			25
	</text>
	<rect fill="red" x="375" y="90" width="25" height="10"/>
	<rect fill="none" stroke="black" stroke-width="1" stroke-miterlimit="4" x="375" y="90" width="25" height="10"/>
	<path fill="none" stroke="black" stroke-width="1" stroke-miterlimit="4" d="M375 120L400 120"/>
	<path fill="none" stroke="black" stroke-width="1" stroke-miterlimit="4" d="M375 120L378 118.5L378 121.5L375 120Z"/>
	<path fill="none" stroke="black" stroke-width="1" stroke-miterlimit="4" d="M375 117L375 123"/>
	<path fill="none" stroke="black" stroke-width="1" stroke-miterlimit="4" d="M400 120L397 118.5L397 121.5L400 120Z"/>
	<path fill="none" stroke="black" stroke-width="1" stroke-miterlimit="4" d="M400 117L400 123"/>
	<text font-size="8" font-family="PingFang SC, 蘋方-簡, 苹方-简" x="382.70001, 387.5, " y="115, ">
			25
	</text>
	<rect fill="red" x="400" y="90" width="25" height="10"/>
	<rect fill="none" stroke="black" stroke-width="1" stroke-miterlimit="4" x="400" y="90" width="25" height="10"/>
	<path fill="none" stroke="black" stroke-width="1" stroke-miterlimit="4" d="M400 120L425 120"/>
	<path fill="none" stroke="black" stroke-width="1" stroke-miterlimit="4" d="M400 120L403 118.5L403 121.5L400 120Z"/>
	<path fill="none" stroke="black" stroke-width="1" stroke-miterlimit="4" d="M400 117L400 123"/>
	<path fill="none" stroke="black" stroke-width="1" stroke-miterlimit="4" d="M425 120L422 118.5L422 121.5L425 120Z"/>
	<path fill="none" stroke="black" stroke-width="1" stroke-miterlimit="4" d="M425 117L425 123"/>
	<text font-size="8" font-family="PingFang SC, 蘋方-簡, 苹方-简" x="407.70001, 412.5, " y="115, ">
			25
	</text>
	<rect fill="red" x="425" y="90" width="25" height="10"/>
	<rect fill="none" stroke="black" stroke-width="1" stroke-miterlimit="4" x="425" y="90" width="25" height="10"/>
	<path fill="none" stroke="black" stroke-width="1" stroke-miterlimit="4" d="M425 120L450 120"/>
	<path fill="none" stroke="black" stroke-width="1" stroke-miterlimit="4" d="M425 120L428 118.5L428 121.5L425 120Z"/>
	<path fill="none" stroke="black" stroke-width="1" stroke-miterlimit="4" d="M425 117L425 123"/>
	<path fill="none" stroke="black" stroke-width="1" stroke-miterlimit="4" d="M450 120L447 118.5L447 121.5L450 120Z"/>
	<path fill="none" stroke="black" stroke-width="1" stroke-miterlimit="4" d="M450 117L450 123"/>
	<text font-size="8" font-family="PingFang SC, 蘋方-簡, 苹方-简" x="432.70001, 437.5, " y="115, ">
			25
	</text>
	<rect fill="red" x="450" y="90" width="25" height="10"/>
	<rect fill="none" stroke="black" stroke-width="1" stroke-miterlimit="4" x="450" y="90" width="25" height="10"/>
	<path fill="none" stroke="black" stroke-width="1" stroke-miterlimit="4" d="M450 120L475 120"/>
	<path fill="none" stroke="black" stroke-width="1" stroke-miterlimit="4" d="M450 120L453 118.5L453 121.5L450 120Z"/>
	<path fill="none" stroke="black" stroke-width="1" stroke-miterlimit="4" d="M450 117L450 123"/>
	<path fill="none" stroke="black" stroke-width="1" stroke-miterlimit="4" d="M475 120L472 118.5L472 121.5L475 120Z"/>
	<path fill="none" stroke="black" stroke-width="1" stroke-miterlimit="4" d="M475 117L475 123"/>
	<text font-size="8" font-family="PingFang SC, 蘋方-簡, 苹方-简" x="457.70001, 462.5, " y="115, ">
			25
	</text>
	<rect fill="red" x="475" y="90" width="25" height="10"/>
	<rect fill="none" stroke="black" stroke-width="1" stroke-miterlimit="4" x="475" y="90" width="25" height="10"/>
	<path fill="none" stroke="black" stroke-width="1" stroke-miterlimit="4" d="M475 120L500 120"/>
	<path fill="none" stroke="black" stroke-width="1" stroke-miterlimit="4" d="M475 120L478 118.5L478 121.5L475 120Z"/>
	<path fill="none" stroke="black" stroke-width="1" stroke-miterlimit="4" d="M475 117L475 123"/>
	<path fill="none" stroke="black" stroke-width="1" stroke-miterlimit="4" d="M500 120L497 118.5L497 121.5L500 120Z"/>
	<path fill="none" stroke="black" stroke-width="1" stroke-miterlimit="4" d="M500 117L500 123"/>
	<text font-size="8" font-family="PingFang SC, 蘋方-簡, 苹方-简" x="482.70001, 487.5, " y="115, ">
			25
	</text>
	<rect fill="red" x="500" y="90" width="25" height="10"/>
	<rect fill="none" stroke="black" stroke-width="1" stroke-miterlimit="4" x="500" y="90" width="25" height="10"/>
	<path fill="none" stroke="black" stroke-width="1" stroke-miterlimit="4" d="M500 120L525 120"/>
	<path fill="none" stroke="black" stroke-width="1" stroke-miterlimit="4" d="M500 120L503 118.5L503 121.5L500 120Z"/>
	<path fill="none" stroke="black" stroke-width="1" stroke-miterlimit="4" d="M500 117L500 123"/>
	<path fill="none" stroke="black" stroke-width="1" stroke-miterlimit="4" d="M525 120L522 118.5L522 121.5L525 120Z"/>
	<path fill="none" stroke="black" stroke-width="1" stroke-miterlimit="4" d="M525 117L525 123"/>
	<text font-size="8" font-family="PingFang SC, 蘋方-簡, 苹方-简" x="507.70001, 512.5, " y="115, ">
			25
	</text>
	<rect fill="red" x="525" y="90" width="25" height="10"/>
	<rect fill="none" stroke="black" stroke-width="1" stroke-miterlimit="4" x="525" y="90" width="25" height="10"/>
	<path fill="none" stroke="black" stroke-width="1" stroke-miterlimit="4" d="M525 120L550 120"/>
	<path fill="none" stroke="black" stroke-width="1" stroke-miterlimit="4" d="M525 120L528 118.5L528 121.5L525 120Z"/>
	<path fill="none" stroke="black" stroke-width="1" stroke-miterlimit="4" d="M525 117L525 123"/>
	<path fill="none" stroke="black" stroke-width="1" stroke-miterlimit="4" d="M550 120L547 118.5L547 121.5L550 120Z"/>
	<path fill="none" stroke="black" stroke-width="1" stroke-miterlimit="4" d="M550 117L550 123"/>
	<text font-size="8" font-family="PingFang SC, 蘋方-簡, 苹方-简" x="532.70001, 537.5, " y="115, ">
			25
	</text>
	<rect fill="red" x="550" y="90" width="25" height="10"/>
	<rect fill="none" stroke="black" stroke-width="1" stroke-miterlimit="4" x="550" y="90" width="25" height="10"/>
	<path fill="none" stroke="black" stroke-width="1" stroke-miterlimit="4" d="M550 120L575 120"/>
	<path fill="none" stroke="black" stroke-width="1" stroke-miterlimit="4" d="M550 120L553 118.5L553 121.5L550 120Z"/>
	<path fill="none" stroke="black" stroke-width="1" stroke-miterlimit="4" d="M550 117L550 123"/>
	<path fill="none" stroke="black" stroke-width="1" stroke-miterlimit="4" d="M575 120L572 118.5L572 121.5L575 120Z"/>
	<path fill="none" stroke="black" stroke-width="1" stroke-miterlimit="4" d="M575 117L575 123"/>
	<text font-size="8" font-family="PingFang SC, 蘋方-簡, 苹方-简" x="557.70001, 562.5, " y="115, ">
			25
	</text>
	<rect fill="red" x="575" y="90" width="25" height="10"/>
	<rect fill="none" stroke="black" stroke-width="1" stroke-miterlimit="4" x="575" y="90" width="25" height="10"/>
	<path fill="none" stroke="black" stroke-width="1" stroke-miterlimit="4" d="M575 120L600 120"/>
	<path fill="none" stroke="black" stroke-width="1" stroke-miterlimit="4" d="M575 120L578 118.5L578 121.5L575 120Z"/>
	<path fill="none" stroke="black" stroke-width="1" stroke-miterlimit="4" d="M575 117L575 123"/>
	<path fill="none" stroke="black" stroke-width="1" stroke-miterlimit="4" d="M600 120L597 118.5L597 121.5L600 120Z"/>
	<path fill="none" stroke="black" stroke-width="1" stroke-miterlimit="4" d="M600 117L600 123"/>
	<text font-size="8" font-family="PingFang SC, 蘋方-簡, 苹方-简" x="582.70001, 587.5, " y="115, ">
			25
	</text>
	<rect fill="red" x="600" y="90" width="25" height="10"/>
	<rect fill="none" stroke="black" stroke-width="1" stroke-miterlimit="4" x="600" y="90" width="25" height="10"/>
	<path fill="none" stroke="black" stroke-width="1" stroke-miterlimit="4" d="M600 120L625 120"/>
	<path fill="none" stroke="black" stroke-width="1" stroke-miterlimit="4" d="M600 120L603 118.5L603 121.5L600 120Z"/>
	<path fill="none" stroke="black" stroke-width="1" stroke-miterlimit="4" d="M600 117L600 123"/>
	<path fill="none" stroke="black" stroke-width="1" stroke-miterlimit="4" d="M625 120L622 118.5L622 121.5L625 120Z"/>
	<path fill="none" stroke="black" stroke-width="1" stroke-miterlimit="4" d="M625 117L625 123"/>
	<text font-size="8" font-family="PingFang SC, 蘋方-簡, 苹方-简" x="607.70001, 612.5, " y="115, ">
			25
	</text>
	<rect fill="red" x="625" y="90" width="25" height="10"/>
	<rect fill="none" stroke="black" stroke-width="1" stroke-miterlimit="4" x="625" y="90" width="25" height="10"/>
	<path fill="none" stroke="black" stroke-width="1" stroke-miterlimit="4" d="M625 120L650 120"/>
	<path fill="none" stroke="black" stroke-width="1" stroke-miterlimit="4" d="M625 120L628 118.5L628 121.5L625 120Z"/>
	<path fill="none" stroke="black" stroke-width="1" stroke-miterlimit="4" d="M625 117L625 123"/>
	<path fill="none" stroke="black" stroke-width="1" stroke-miterlimit="4" d="M650 120L647 118.5L647 121.5L650 120Z"/>
	<path fill="none" stroke="black" stroke-width="1" stroke-miterlimit="4" d="M650 117L650 123"/>
	<text font-size="8" font-family="PingFang SC, 蘋方-簡, 苹方-简" x="632.70001, 637.5, " y="115, ">
			25
	</text>
	<rect fill="red" x="650" y="90" width="25" height="10"/>
	<rect fill="none" stroke="black" stroke-width="1" stroke-miterlimit="4" x="650" y="90" width="25" height="10"/>
	<path fill="none" stroke="black" stroke-width="1" stroke-miterlimit="4" d="M650 120L675 120"/>
	<path fill="none" stroke="black" stroke-width="1" stroke-miterlimit="4" d="M650 120L653 118.5L653 121.5L650 120Z"/>
	<path fill="none" stroke="black" stroke-width="1" stroke-miterlimit="4" d="M650 117L650 123"/>
	<path fill="none" stroke="black" stroke-width="1" stroke-miterlimit="4" d="M675 120L672 118.5L672 121.5L675 120Z"/>
	<path fill="none" stroke="black" stroke-width="1" stroke-miterlimit="4" d="M675 117L675 123"/>
	<text font-size="8" font-family="PingFang SC, 蘋方-簡, 苹方-简" x="657.70001, 662.5, " y="115, ">
			25
	</text>
	<rect fill="red" x="675" y="90" width="25" height="10"/>
	<rect fill="none" stroke="black" stroke-width="1" stroke-miterlimit="4" x="675" y="90" width="25" height="10"/>
	<path fill="none" stroke="black" stroke-width="1" stroke-miterlimit="4" d="M675 120L700 120"/>
	<path fill="none" stroke="black" stroke-width="1" stroke-miterlimit="4" d="M675 120L678 118.5L678 121.5L675 120Z"/>
	<path fill="none" stroke="black" stroke-width="1" stroke-miterlimit="4" d="M675 117L675 123"/>
	<path fill="none" stroke="black" stroke-width="1" stroke-miterlimit="4" d="M700 120L697 118.5L697 121.5L700 120Z"/>
	<path fill="none" stroke="black" stroke-width="1" stroke-miterlimit="4" d="M700 117L700 123"/>
	<text font-size="8" font-family="PingFang SC, 蘋方-簡, 苹方-简" x="682.70001, 687.5, " y="115, ">
			25
	</text>
	<rect fill="red" x="700" y="90" width="25" height="10"/>
	<rect fill="none" stroke="black" stroke-width="1" stroke-miterlimit="4" x="700" y="90" width="25" height="10"/>
	<path fill="none" stroke="black" stroke-width="1" stroke-miterlimit="4" d="M700 120L725 120"/>
	<path fill="none" stroke="black" stroke-width="1" stroke-miterlimit="4" d="M700 120L703 118.5L703 121.5L700 120Z"/>
	<path fill="none" stroke="black" stroke-width="1" stroke-miterlimit="4" d="M700 117L700 123"/>
	<path fill="none" stroke="black" stroke-width="1" stroke-miterlimit="4" d="M725 120L722 118.5L722 121.5L725 120Z"/>
	<path fill="none" stroke="black" stroke-width="1" stroke-miterlimit="4" d="M725 117L725 123"/>
	<text font-size="8" font-family="PingFang SC, 蘋方-簡, 苹方-简" x="707.70001, 712.5, " y="115, ">
			25
	</text>
	<rect fill="red" x="725" y="90" width="25" height="10"/>
	<rect fill="none" stroke="black" stroke-width="1" stroke-miterlimit="4" x="725" y="90" width="25" height="10"/>
	<path fill="none" stroke="black" stroke-width="1" stroke-miterlimit="4" d="M725 120L750 120"/>
	<path fill="none" stroke="black" stroke-width="1" stroke-miterlimit="4" d="M725 120L728 118.5L728 121.5L725 120Z"/>
	<path fill="none" stroke="black" stroke-width="1" stroke-miterlimit="4" d="M725 117L725 123"/>
	<path fill="none" stroke="black" stroke-width="1" stroke-miterlimit="4" d="M750 120L747 118.5L747 121.5L750 120Z"/>
	<path fill="none" stroke="black" stroke-width="1" stroke-miterlimit="4" d="M750 117L750 123"/>
	<text font-size="8" font-family="PingFang SC, 蘋方-簡, 苹方-简" x="732.70001, 737.5, " y="115, ">
			25
	</text>
	<rect fill="gray" x="750" y="85" width="100" height="15"/>
	<rect fill="none" stroke="black" stroke-width="1" stroke-miterlimit="4" x="750" y="85" width="100" height="15"/>
	<path fill="none" stroke="black" stroke-width="1" stroke-miterlimit="4" d="M750 120L850 120"/>
	<path fill="none" stroke="black" stroke-width="1" stroke-miterlimit="4" d="M750 120L753 118.5L753 121.5L750 120Z"/>
	<path fill="none" stroke="black" stroke-width="1" stroke-miterlimit="4" d="M750 117L750 123"/>
	<path fill="none" stroke="black" stroke-width="1" stroke-miterlimit="4" d="M850 120L847 118.5L847 121.5L850 120Z"/>
	<path fill="none" stroke="black" stroke-width="1" stroke-miterlimit="4" d="M850 117L850 123"/>
	<text font-size="8" font-family="PingFang SC, 蘋方-簡, 苹方-简" x="770.65601, 773.86401, 778.664, 783.46399, 787.84003, 794.67999, 797.34399, 805.34399, 813.34399, 821.34399, " y="115, ">
			100cm 炮孔堵塞
	</text>
	<path fill="none" stroke="black" stroke-width="1" stroke-miterlimit="4" d="M875 93L905 73"/>
	<path fill="none" stroke="black" stroke-width="1" stroke-miterlimit="4" d="M905 73L925 73"/>
	<text font-size="8" font-family="PingFang SC, 蘋方-簡, 苹方-简" x="905, 913, 921, " y="68, ">
			导爆索
	</text>
	<path fill="none" stroke="black" stroke-width="1" stroke-miterlimit="4" d="M880 96L910 116"/>
	<path fill="none" stroke="black" stroke-width="1" stroke-miterlimit="4" d="M910 116L930 116"/>
	<text font-size="8" font-family="PingFang SC, 蘋方-簡, 苹方-简" x="910, 918, " y="111, ">
			⽵⽚
	</text>
</svg>
