<?xml version="1.0" encoding="utf-8" ?>
<svg xmlns="http://www.w3.org/2000/svg" xmlns:xlink="http://www.w3.org/1999/xlink" width="1500" height="900">
	<rect fill="white" width="1500" height="900"/>
	<path fill="none" stroke="black" stroke-width="0.044999998" stroke-miterlimit="4" transform="matrix(-67.5 -0 -0 -67.5 123560 720)" d="M1812.42 10L1812.42 10L1827.13 10L1824.82 0L1811.62 0L1812.42 10"/>
	<path fill="none" stroke="red" stroke-width="0.044999998" stroke-miterlimit="4" transform="matrix(-67.5 -0 -0 -67.5 123560 720)" d="M1827.19 10L1824.88 0"/>
	<path fill="none" stroke="red" stroke-width="0.044999998" stroke-miterlimit="4" transform="matrix(-67.5 -0 -0 -67.5 123560 720)" d="M1827.09 10L1824.78 0"/>
	<path fill="none" stroke="purple" stroke-width="0.044999998" stroke-miterlimit="4" transform="matrix(-67.5 -0 -0 -67.5 123560 720)" d="M1825.97 10L1823.66 0"/>
	<path fill="none" stroke="purple" stroke-width="0.044999998" stroke-miterlimit="4" transform="matrix(-67.5 -0 -0 -67.5 123560 720)" d="M1825.77 10L1823.46 0"/>
	<path fill="none" stroke="black" stroke-width="0.044999998" stroke-miterlimit="4" transform="matrix(-67.5 -0 -0 -67.5 123560 720)" d="M1824.17 10L1821.16 -1.93938"/>
	<path fill="none" stroke="black" stroke-width="0.044999998" stroke-miterlimit="4" transform="matrix(-67.5 -0 -0 -67.5 123560 720)" d="M1823.97 10L1820.96 -1.93938"/>
	<path fill="none" stroke="black" stroke-width="0.044999998" stroke-miterlimit="4" transform="matrix(-67.5 -0 -0 -67.5 123560 720)" d="M1821.53 10L1819.27 -1.96524"/>
	<path fill="none" stroke="black" stroke-width="0.044999998" stroke-miterlimit="4" transform="matrix(-67.5 -0 -0 -67.5 123560 720)" d="M1821.33 10L1819.07 -1.96524"/>
	<path fill="none" stroke="black" stroke-width="0.044999998" stroke-miterlimit="4" transform="matrix(-67.5 -0 -0 -67.5 123560 720)" d="M1818.91 10L1817.39 -1.9841"/>
	<path fill="none" stroke="black" stroke-width="0.044999998" stroke-miterlimit="4" transform="matrix(-67.5 -0 -0 -67.5 123560 720)" d="M1818.71 10L1817.19 -1.9841"/>
	<path fill="none" stroke="black" stroke-width="0.044999998" stroke-miterlimit="4" transform="matrix(-67.5 -0 -0 -67.5 123560 720)" d="M1816.27 10L1815.51 -1.99596"/>
	<path fill="none" stroke="black" stroke-width="0.044999998" stroke-miterlimit="4" transform="matrix(-67.5 -0 -0 -67.5 123560 720)" d="M1816.07 10L1815.31 -1.99596"/>
	<path fill="none" stroke="black" stroke-width="0.044999998" stroke-miterlimit="4" transform="matrix(-67.5 -0 -0 -67.5 123560 720)" d="M1813.64 10L1813.63 -2"/>
	<path fill="none" stroke="black" stroke-width="0.044999998" stroke-miterlimit="4" transform="matrix(-67.5 -0 -0 -67.5 123560 720)" d="M1813.44 10L1813.43 -2"/>
</svg>
