<?xml version="1.0" encoding="utf-8" ?>
<svg xmlns="http://www.w3.org/2000/svg" xmlns:xlink="http://www.w3.org/1999/xlink" width="1500" height="900">
	<rect fill="white" width="1500" height="900"/>
	<path fill="none" stroke="black" stroke-width="0.044999998" stroke-miterlimit="4" transform="matrix(-55.4981 -0 -0 -55.4981 57629.4 108323)" d="M1020.53 1951.02L1020.53 1951.02L1029.25 1951.02L1029.25 1936.43L1020.53 1936.43L1020.53 1951.02"/>
	<path fill="none" stroke="red" stroke-width="0.044999998" stroke-miterlimit="4" transform="matrix(-55.4981 -0 -0 -55.4981 57629.4 108323)" d="M1029.2 1951.02L1029.25 1936.43"/>
	<path fill="none" stroke="red" stroke-width="0.044999998" stroke-miterlimit="4" transform="matrix(-55.4981 -0 -0 -55.4981 57629.4 108323)" d="M1029.1 1951.02L1029.15 1936.43"/>
	<path fill="none" stroke="purple" stroke-width="0.044999998" stroke-miterlimit="4" transform="matrix(-55.4981 -0 -0 -55.4981 57629.4 108323)" d="M1028.05 1951.02L1028.1 1943.73"/>
	<path fill="none" stroke="purple" stroke-width="0.044999998" stroke-miterlimit="4" transform="matrix(-55.4981 -0 -0 -55.4981 57629.4 108323)" d="M1027.85 1951.02L1027.9 1943.73"/>
	<path fill="none" stroke="black" stroke-width="0.044999998" stroke-miterlimit="4" transform="matrix(-55.4981 -0 -0 -55.4981 57629.4 108323)" d="M1026.5 1951.02L1026.22 1941.73"/>
	<path fill="none" stroke="black" stroke-width="0.044999998" stroke-miterlimit="4" transform="matrix(-55.4981 -0 -0 -55.4981 57629.4 108323)" d="M1026.3 1951.02L1026.02 1941.73"/>
	<path fill="none" stroke="black" stroke-width="0.044999998" stroke-miterlimit="4" transform="matrix(-55.4981 -0 -0 -55.4981 57629.4 108323)" d="M1023.97 1951.02L1023.97 1941.73"/>
	<path fill="none" stroke="black" stroke-width="0.044999998" stroke-miterlimit="4" transform="matrix(-55.4981 -0 -0 -55.4981 57629.4 108323)" d="M1023.77 1951.02L1023.77 1941.73"/>
	<text transform="matrix(55.4981 0 0 55.4981 57629.4 108323)" font-size="0.72975463" font-family="PingFang SC, 蘋方-簡, 苹方-简" x="-1025.96, -1025.2302, -1024.5005, -1024.2574, " y="-1951.024, ">
			剖⾯ 3
	</text>
</svg>
