<?xml version="1.0" encoding="utf-8" ?>
<svg xmlns="http://www.w3.org/2000/svg" xmlns:xlink="http://www.w3.org/1999/xlink" width="1500" height="900">
	<rect fill="white" width="1500" height="900"/>
	<path fill="none" stroke="black" stroke-width="0.044999998" stroke-miterlimit="4" transform="matrix(-48.8172 -0 -0 -48.8172 50800.8 95288.5)" d="M1020.86 1951.02L1020.86 1951.02L1029.68 1951.02L1029.68 1936.43L1020.86 1936.43L1020.86 1951.02"/>
	<path fill="none" stroke="red" stroke-width="0.044999998" stroke-miterlimit="4" transform="matrix(-48.8172 -0 -0 -48.8172 50800.8 95288.5)" d="M1029.66 1951.02L1029.66 1936.43"/>
	<path fill="none" stroke="red" stroke-width="0.044999998" stroke-miterlimit="4" transform="matrix(-48.8172 -0 -0 -48.8172 50800.8 95288.5)" d="M1029.56 1951.02L1029.56 1936.43"/>
	<path fill="none" stroke="purple" stroke-width="0.044999998" stroke-miterlimit="4" transform="matrix(-48.8172 -0 -0 -48.8172 50800.8 95288.5)" d="M1028.68 1951.02L1028.68 1936.43"/>
	<path fill="none" stroke="purple" stroke-width="0.044999998" stroke-miterlimit="4" transform="matrix(-48.8172 -0 -0 -48.8172 50800.8 95288.5)" d="M1028.48 1951.02L1028.48 1936.43"/>
	<path fill="none" stroke="black" stroke-width="0.044999998" stroke-miterlimit="4" transform="matrix(-48.8172 -0 -0 -48.8172 50800.8 95288.5)" d="M1026.96 1951.02L1026.12 1934.43"/>
	<path fill="none" stroke="black" stroke-width="0.044999998" stroke-miterlimit="4" transform="matrix(-48.8172 -0 -0 -48.8172 50800.8 95288.5)" d="M1026.76 1951.02L1025.92 1934.43"/>
	<path fill="none" stroke="black" stroke-width="0.044999998" stroke-miterlimit="4" transform="matrix(-48.8172 -0 -0 -48.8172 50800.8 95288.5)" d="M1024.05 1951.02L1021.33 1934.46"/>
	<path fill="none" stroke="black" stroke-width="0.044999998" stroke-miterlimit="4" transform="matrix(-48.8172 -0 -0 -48.8172 50800.8 95288.5)" d="M1023.85 1951.02L1021.13 1934.46"/>
</svg>
