<?xml version="1.0" encoding="utf-8" ?>
<svg xmlns="http://www.w3.org/2000/svg" xmlns:xlink="http://www.w3.org/1999/xlink" width="1500" height="900">
	<rect fill="white" width="1500" height="900"/>
	<path fill="none" stroke="black" stroke-width="0.044999998" stroke-miterlimit="4" transform="matrix(-48.8101 -0 -0 -48.8101 50906.4 95274.7)" d="M1022.84 1951.02L1022.84 1951.02L1032.28 1951.02L1032.28 1936.43L1022.84 1936.43L1022.84 1951.02"/>
	<path fill="none" stroke="red" stroke-width="0.044999998" stroke-miterlimit="4" transform="matrix(-48.8101 -0 -0 -48.8101 50906.4 95274.7)" d="M1032.33 1951.02L1032.33 1936.43"/>
	<path fill="none" stroke="red" stroke-width="0.044999998" stroke-miterlimit="4" transform="matrix(-48.8101 -0 -0 -48.8101 50906.4 95274.7)" d="M1032.23 1951.02L1032.23 1936.43"/>
	<path fill="none" stroke="purple" stroke-width="0.044999998" stroke-miterlimit="4" transform="matrix(-48.8101 -0 -0 -48.8101 50906.4 95274.7)" d="M1031.02 1951.02L1031.02 1936.43"/>
	<path fill="none" stroke="purple" stroke-width="0.044999998" stroke-miterlimit="4" transform="matrix(-48.8101 -0 -0 -48.8101 50906.4 95274.7)" d="M1030.82 1951.02L1030.82 1936.43"/>
	<path fill="none" stroke="black" stroke-width="0.044999998" stroke-miterlimit="4" transform="matrix(-48.8101 -0 -0 -48.8101 50906.4 95274.7)" d="M1029.38 1951.02L1030.23 1934.43"/>
	<path fill="none" stroke="black" stroke-width="0.044999998" stroke-miterlimit="4" transform="matrix(-48.8101 -0 -0 -48.8101 50906.4 95274.7)" d="M1029.18 1951.02L1030.03 1934.43"/>
	<path fill="none" stroke="black" stroke-width="0.044999998" stroke-miterlimit="4" transform="matrix(-48.8101 -0 -0 -48.8101 50906.4 95274.7)" d="M1027.08 1951.02L1026.86 1934.43"/>
	<path fill="none" stroke="black" stroke-width="0.044999998" stroke-miterlimit="4" transform="matrix(-48.8101 -0 -0 -48.8101 50906.4 95274.7)" d="M1026.88 1951.02L1026.66 1934.43"/>
	<path fill="none" stroke="black" stroke-width="0.044999998" stroke-miterlimit="4" transform="matrix(-48.8101 -0 -0 -48.8101 50906.4 95274.7)" d="M1024.33 1951.02L1023.54 1934.43"/>
	<path fill="none" stroke="black" stroke-width="0.044999998" stroke-miterlimit="4" transform="matrix(-48.8101 -0 -0 -48.8101 50906.4 95274.7)" d="M1024.13 1951.02L1023.34 1934.43"/>
</svg>
