<?xml version="1.0" encoding="utf-8" ?>
<svg xmlns="http://www.w3.org/2000/svg" xmlns:xlink="http://www.w3.org/1999/xlink" width="1500" height="900">
	<rect fill="white" width="1500" height="900"/>
	<path fill="none" stroke="black" stroke-width="0.044999998" stroke-miterlimit="4" transform="matrix(-48.8096 -0 -0 -48.8096 50867.5 95273.7)" d="M1022.18 1951.02L1022.18 1951.02L1031.41 1951.02L1031.41 1936.43L1022.18 1936.43L1022.18 1951.02"/>
	<path fill="none" stroke="red" stroke-width="0.044999998" stroke-miterlimit="4" transform="matrix(-48.8096 -0 -0 -48.8096 50867.5 95273.7)" d="M1031.4 1951.02L1031.41 1936.43"/>
	<path fill="none" stroke="red" stroke-width="0.044999998" stroke-miterlimit="4" transform="matrix(-48.8096 -0 -0 -48.8096 50867.5 95273.7)" d="M1031.3 1951.02L1031.31 1936.43"/>
	<path fill="none" stroke="purple" stroke-width="0.044999998" stroke-miterlimit="4" transform="matrix(-48.8096 -0 -0 -48.8096 50867.5 95273.7)" d="M1030.34 1951.02L1030.31 1936.43"/>
	<path fill="none" stroke="purple" stroke-width="0.044999998" stroke-miterlimit="4" transform="matrix(-48.8096 -0 -0 -48.8096 50867.5 95273.7)" d="M1030.14 1951.02L1030.11 1936.43"/>
	<path fill="none" stroke="black" stroke-width="0.044999998" stroke-miterlimit="4" transform="matrix(-48.8096 -0 -0 -48.8096 50867.5 95273.7)" d="M1028.51 1951.02L1027.84 1934.43"/>
	<path fill="none" stroke="black" stroke-width="0.044999998" stroke-miterlimit="4" transform="matrix(-48.8096 -0 -0 -48.8096 50867.5 95273.7)" d="M1028.31 1951.02L1027.64 1934.43"/>
	<path fill="none" stroke="black" stroke-width="0.044999998" stroke-miterlimit="4" transform="matrix(-48.8096 -0 -0 -48.8096 50867.5 95273.7)" d="M1025.9 1951.02L1025.48 1934.43"/>
	<path fill="none" stroke="black" stroke-width="0.044999998" stroke-miterlimit="4" transform="matrix(-48.8096 -0 -0 -48.8096 50867.5 95273.7)" d="M1025.7 1951.02L1025.28 1934.43"/>
	<path fill="none" stroke="black" stroke-width="0.044999998" stroke-miterlimit="4" transform="matrix(-48.8096 -0 -0 -48.8096 50867.5 95273.7)" d="M1023.14 1951.02L1023.14 1934.43"/>
	<path fill="none" stroke="black" stroke-width="0.044999998" stroke-miterlimit="4" transform="matrix(-48.8096 -0 -0 -48.8096 50867.5 95273.7)" d="M1022.94 1951.02L1022.94 1934.43"/>
</svg>
