<?xml version="1.0" encoding="utf-8" ?>
<svg xmlns="http://www.w3.org/2000/svg" xmlns:xlink="http://www.w3.org/1999/xlink" width="1500" height="900">
	<rect fill="white" width="1500" height="900"/>
	<path fill="none" stroke="black" stroke-width="0.044999998" stroke-miterlimit="4" transform="matrix(-55.4981 -0 -0 -55.4981 57735.2 108323)" d="M1022.18 1951.02L1022.18 1951.02L1031.41 1951.02L1031.41 1936.43L1022.18 1936.43L1022.18 1951.02"/>
	<path fill="none" stroke="red" stroke-width="0.044999998" stroke-miterlimit="4" transform="matrix(-55.4981 -0 -0 -55.4981 57735.2 108323)" d="M1031.4 1951.02L1031.41 1936.43"/>
	<path fill="none" stroke="red" stroke-width="0.044999998" stroke-miterlimit="4" transform="matrix(-55.4981 -0 -0 -55.4981 57735.2 108323)" d="M1031.3 1951.02L1031.31 1936.43"/>
	<path fill="none" stroke="purple" stroke-width="0.044999998" stroke-miterlimit="4" transform="matrix(-55.4981 -0 -0 -55.4981 57735.2 108323)" d="M1030.34 1951.02L1030.32 1943.73"/>
	<path fill="none" stroke="purple" stroke-width="0.044999998" stroke-miterlimit="4" transform="matrix(-55.4981 -0 -0 -55.4981 57735.2 108323)" d="M1030.14 1951.02L1030.12 1943.73"/>
	<path fill="none" stroke="black" stroke-width="0.044999998" stroke-miterlimit="4" transform="matrix(-55.4981 -0 -0 -55.4981 57735.2 108323)" d="M1028.51 1951.02L1028.14 1941.73"/>
	<path fill="none" stroke="black" stroke-width="0.044999998" stroke-miterlimit="4" transform="matrix(-55.4981 -0 -0 -55.4981 57735.2 108323)" d="M1028.31 1951.02L1027.94 1941.73"/>
	<path fill="none" stroke="black" stroke-width="0.044999998" stroke-miterlimit="4" transform="matrix(-55.4981 -0 -0 -55.4981 57735.2 108323)" d="M1025.9 1951.02L1025.66 1941.73"/>
	<path fill="none" stroke="black" stroke-width="0.044999998" stroke-miterlimit="4" transform="matrix(-55.4981 -0 -0 -55.4981 57735.2 108323)" d="M1025.7 1951.02L1025.46 1941.73"/>
	<path fill="none" stroke="black" stroke-width="0.044999998" stroke-miterlimit="4" transform="matrix(-55.4981 -0 -0 -55.4981 57735.2 108323)" d="M1023.14 1951.02L1023.14 1941.73"/>
	<path fill="none" stroke="black" stroke-width="0.044999998" stroke-miterlimit="4" transform="matrix(-55.4981 -0 -0 -55.4981 57735.2 108323)" d="M1022.94 1951.02L1022.94 1941.73"/>
	<text transform="matrix(55.4981 0 0 55.4981 57735.2 108323)" font-size="0.72975463" font-family="PingFang SC, 蘋方-簡, 苹方-简" x="-1027.7926, -1027.0629, -1026.3331, -1026.0901, " y="-1951.024, ">
			剖⾯ 1
	</text>
</svg>
