<?xml version="1.0" encoding="utf-8" ?>
<svg xmlns="http://www.w3.org/2000/svg" xmlns:xlink="http://www.w3.org/1999/xlink" width="1500" height="900">
	<rect fill="white" width="1500" height="900"/>
	<path fill="none" stroke="black" stroke-width="0.044999998" stroke-miterlimit="4" transform="matrix(-55.4981 -0 -0 -55.4981 57683 108323)" d="M1021.35 1951.02L1021.35 1951.02L1030.33 1951.02L1030.33 1936.43L1021.35 1936.43L1021.35 1951.02"/>
	<path fill="none" stroke="red" stroke-width="0.044999998" stroke-miterlimit="4" transform="matrix(-55.4981 -0 -0 -55.4981 57683 108323)" d="M1030.36 1951.02L1030.33 1936.43"/>
	<path fill="none" stroke="red" stroke-width="0.044999998" stroke-miterlimit="4" transform="matrix(-55.4981 -0 -0 -55.4981 57683 108323)" d="M1030.26 1951.02L1030.23 1936.43"/>
	<path fill="none" stroke="purple" stroke-width="0.044999998" stroke-miterlimit="4" transform="matrix(-55.4981 -0 -0 -55.4981 57683 108323)" d="M1029.35 1951.02L1029.29 1943.73"/>
	<path fill="none" stroke="purple" stroke-width="0.044999998" stroke-miterlimit="4" transform="matrix(-55.4981 -0 -0 -55.4981 57683 108323)" d="M1029.15 1951.02L1029.09 1943.73"/>
	<path fill="none" stroke="black" stroke-width="0.044999998" stroke-miterlimit="4" transform="matrix(-55.4981 -0 -0 -55.4981 57683 108323)" d="M1027.51 1951.02L1027.24 1941.73"/>
	<path fill="none" stroke="black" stroke-width="0.044999998" stroke-miterlimit="4" transform="matrix(-55.4981 -0 -0 -55.4981 57683 108323)" d="M1027.31 1951.02L1027.04 1941.73"/>
	<path fill="none" stroke="black" stroke-width="0.044999998" stroke-miterlimit="4" transform="matrix(-55.4981 -0 -0 -55.4981 57683 108323)" d="M1024.93 1951.02L1024.93 1941.73"/>
	<path fill="none" stroke="black" stroke-width="0.044999998" stroke-miterlimit="4" transform="matrix(-55.4981 -0 -0 -55.4981 57683 108323)" d="M1024.73 1951.02L1024.73 1941.73"/>
	<text transform="matrix(55.4981 0 0 55.4981 57683 108323)" font-size="0.72975463" font-family="PingFang SC, 蘋方-簡, 苹方-简" x="-1026.9254, -1026.1957, -1025.4659, -1025.2229, " y="-1951.024, ">
			剖⾯ 2
	</text>
</svg>
