<?xml version="1.0" encoding="utf-8" ?>
<svg xmlns="http://www.w3.org/2000/svg" xmlns:xlink="http://www.w3.org/1999/xlink" width="1500" height="900">
	<rect fill="white" width="1500" height="900"/>
	<path fill="none" stroke="black" stroke-width="0.044999998" stroke-miterlimit="4" transform="matrix(14.6985 0 -0 -14.6985 -17450 27161.8)" d="M1192.29 1814.3L1192.29 1814.3L1203.38 1804.78L1209.85 1812.32L1238.72 1815.93L1269.72 1814.71L1272.43 1810.7L1284.14 1818.6L1278.21 1828.97L1238.1 1830.57L1199.37 1825.72L1196.44 1819.14L1192.29 1814.3Z"/>
	<path fill="none" stroke="gray" stroke-width="0.022499999" stroke-miterlimit="4" transform="matrix(14.6985 0 -0 -14.6985 -17450 27161.8)" d="M1209.85 1812.32L1209.85 1812.32L1238.72 1815.93L1269.72 1814.71L1272.43 1810.7L1283.22 1817.99L1277.56 1827.89L1238.13 1829.46L1200.11 1824.7L1197.38 1818.55L1193.12 1813.58L1203.38 1804.78L1209.85 1812.32Z"/>
	<path fill="none" stroke="gray" stroke-width="0.022499999" stroke-miterlimit="4" transform="matrix(14.6985 0 -0 -14.6985 -17450 27161.8)" d="M1209.85 1812.32L1209.85 1812.32L1238.72 1815.93L1269.72 1814.71L1272.43 1810.7L1281.81 1817.03L1276.55 1826.23L1238.21 1827.76L1201.28 1823.13L1198.83 1817.63L1194.41 1812.46L1203.38 1804.78L1209.85 1812.32Z"/>
	<path fill="none" stroke="gray" stroke-width="0.022499999" stroke-miterlimit="4" transform="matrix(14.6985 0 -0 -14.6985 -17450 27161.8)" d="M1209.85 1812.32L1209.85 1812.32L1238.72 1815.93L1269.72 1814.71L1272.43 1810.7L1279.64 1815.56L1275 1823.68L1238.31 1825.15L1203.06 1820.73L1201.05 1816.22L1196.38 1810.77L1203.38 1804.78L1209.85 1812.32Z"/>
	<path fill="none" stroke="gray" stroke-width="0.022499999" stroke-miterlimit="4" transform="matrix(14.6985 0 -0 -14.6985 -17450 27161.8)" d="M1209.85 1812.32L1209.85 1812.32L1238.72 1815.93L1269.72 1814.71L1272.43 1810.7L1277.48 1814.11L1273.46 1821.15L1238.47 1822.55L1204.83 1818.34L1203.27 1814.82L1198.35 1809.08L1203.38 1804.78L1209.85 1812.32Z"/>
	<path fill="none" stroke="gray" stroke-width="0.022499999" stroke-miterlimit="4" transform="matrix(14.6985 0 -0 -14.6985 -17450 27161.8)" d="M1209.85 1812.32L1209.85 1812.32L1238.72 1815.93L1269.72 1814.71L1272.43 1810.7L1275.32 1812.65L1271.92 1818.61L1238.57 1819.94L1206.62 1815.94L1205.5 1813.42L1200.33 1807.38L1203.38 1804.78L1209.85 1812.32Z"/>
	<path fill="none" stroke="gray" stroke-width="0.022499999" stroke-miterlimit="4" transform="matrix(14.6985 0 -0 -14.6985 -17450 27161.8)" d="M1209.85 1812.32L1209.85 1812.32L1238.72 1815.93L1269.72 1814.71L1272.43 1810.7L1273.16 1811.19L1270.38 1816.07L1238.67 1817.33L1208.4 1813.54L1207.72 1812.01L1202.3 1805.69L1203.38 1804.78L1209.85 1812.32Z"/>
	<ellipse fill="none" stroke="red" stroke-width="0.044999998" stroke-miterlimit="4" transform="matrix(14.6985 0 -0 -14.6985 -17450 27161.8)" cx="1283.6816" cy="1819.4025" rx="0.18005371" ry="0.18005371"/>
	<ellipse fill="none" stroke="red" stroke-width="0.044999998" stroke-miterlimit="4" transform="matrix(14.6985 0 -0 -14.6985 -17450 27161.8)" cx="1283.2257" cy="1820.2" rx="0.18005371" ry="0.18005371"/>
	<ellipse fill="none" stroke="red" stroke-width="0.044999998" stroke-miterlimit="4" transform="matrix(14.6985 0 -0 -14.6985 -17450 27161.8)" cx="1282.7697" cy="1820.9973" rx="0.18005371" ry="0.18005371"/>
	<ellipse fill="none" stroke="red" stroke-width="0.044999998" stroke-miterlimit="4" transform="matrix(14.6985 0 -0 -14.6985 -17450 27161.8)" cx="1282.3137" cy="1821.7948" rx="0.18005371" ry="0.18005371"/>
	<ellipse fill="none" stroke="red" stroke-width="0.044999998" stroke-miterlimit="4" transform="matrix(14.6985 0 -0 -14.6985 -17450 27161.8)" cx="1281.8577" cy="1822.5922" rx="0.18005371" ry="0.18005371"/>
	<ellipse fill="none" stroke="red" stroke-width="0.044999998" stroke-miterlimit="4" transform="matrix(14.6985 0 -0 -14.6985 -17450 27161.8)" cx="1281.4017" cy="1823.3896" rx="0.18005371" ry="0.18005371"/>
	<ellipse fill="none" stroke="red" stroke-width="0.044999998" stroke-miterlimit="4" transform="matrix(14.6985 0 -0 -14.6985 -17450 27161.8)" cx="1280.9457" cy="1824.1871" rx="0.18005371" ry="0.18005371"/>
	<ellipse fill="none" stroke="red" stroke-width="0.044999998" stroke-miterlimit="4" transform="matrix(14.6985 0 -0 -14.6985 -17450 27161.8)" cx="1280.4897" cy="1824.9845" rx="0.18005371" ry="0.18005371"/>
	<ellipse fill="none" stroke="red" stroke-width="0.044999998" stroke-miterlimit="4" transform="matrix(14.6985 0 -0 -14.6985 -17450 27161.8)" cx="1280.0337" cy="1825.782" rx="0.18005371" ry="0.18005371"/>
	<ellipse fill="none" stroke="red" stroke-width="0.044999998" stroke-miterlimit="4" transform="matrix(14.6985 0 -0 -14.6985 -17450 27161.8)" cx="1279.5778" cy="1826.5795" rx="0.18005371" ry="0.18005371"/>
	<ellipse fill="none" stroke="red" stroke-width="0.044999998" stroke-miterlimit="4" transform="matrix(14.6985 0 -0 -14.6985 -17450 27161.8)" cx="1279.1217" cy="1827.3768" rx="0.18005371" ry="0.18005371"/>
	<ellipse fill="none" stroke="red" stroke-width="0.044999998" stroke-miterlimit="4" transform="matrix(14.6985 0 -0 -14.6985 -17450 27161.8)" cx="1278.6658" cy="1828.1743" rx="0.18005371" ry="0.18005371"/>
	<ellipse fill="none" stroke="red" stroke-width="0.044999998" stroke-miterlimit="4" transform="matrix(14.6985 0 -0 -14.6985 -17450 27161.8)" cx="1278.2097" cy="1828.9717" rx="0.18005371" ry="0.18005371"/>
	<ellipse fill="none" stroke="red" stroke-width="0.044999998" stroke-miterlimit="4" transform="matrix(14.6985 0 -0 -14.6985 -17450 27161.8)" cx="1277.3184" cy="1829.0072" rx="0.18005371" ry="0.18005371"/>
	<ellipse fill="none" stroke="red" stroke-width="0.044999998" stroke-miterlimit="4" transform="matrix(14.6985 0 -0 -14.6985 -17450 27161.8)" cx="1276.427" cy="1829.0426" rx="0.18005371" ry="0.18005371"/>
	<ellipse fill="none" stroke="red" stroke-width="0.044999998" stroke-miterlimit="4" transform="matrix(14.6985 0 -0 -14.6985 -17450 27161.8)" cx="1275.5355" cy="1829.078" rx="0.18005371" ry="0.18005371"/>
	<ellipse fill="none" stroke="red" stroke-width="0.044999998" stroke-miterlimit="4" transform="matrix(14.6985 0 -0 -14.6985 -17450 27161.8)" cx="1274.6442" cy="1829.1135" rx="0.18005371" ry="0.18005371"/>
	<ellipse fill="none" stroke="red" stroke-width="0.044999998" stroke-miterlimit="4" transform="matrix(14.6985 0 -0 -14.6985 -17450 27161.8)" cx="1273.7528" cy="1829.1489" rx="0.18005371" ry="0.18005371"/>
	<ellipse fill="none" stroke="red" stroke-width="0.044999998" stroke-miterlimit="4" transform="matrix(14.6985 0 -0 -14.6985 -17450 27161.8)" cx="1272.8613" cy="1829.1843" rx="0.18005371" ry="0.18005371"/>
	<ellipse fill="none" stroke="red" stroke-width="0.044999998" stroke-miterlimit="4" transform="matrix(14.6985 0 -0 -14.6985 -17450 27161.8)" cx="1271.97" cy="1829.2197" rx="0.18005371" ry="0.18005371"/>
	<ellipse fill="none" stroke="red" stroke-width="0.044999998" stroke-miterlimit="4" transform="matrix(14.6985 0 -0 -14.6985 -17450 27161.8)" cx="1271.0785" cy="1829.2552" rx="0.18005371" ry="0.18005371"/>
	<ellipse fill="none" stroke="red" stroke-width="0.044999998" stroke-miterlimit="4" transform="matrix(14.6985 0 -0 -14.6985 -17450 27161.8)" cx="1270.1871" cy="1829.2906" rx="0.18005371" ry="0.18005371"/>
	<ellipse fill="none" stroke="red" stroke-width="0.044999998" stroke-miterlimit="4" transform="matrix(14.6985 0 -0 -14.6985 -17450 27161.8)" cx="1269.2958" cy="1829.326" rx="0.18005371" ry="0.18005371"/>
	<ellipse fill="none" stroke="red" stroke-width="0.044999998" stroke-miterlimit="4" transform="matrix(14.6985 0 -0 -14.6985 -17450 27161.8)" cx="1268.4043" cy="1829.3616" rx="0.18005371" ry="0.18005371"/>
	<ellipse fill="none" stroke="red" stroke-width="0.044999998" stroke-miterlimit="4" transform="matrix(14.6985 0 -0 -14.6985 -17450 27161.8)" cx="1267.5129" cy="1829.397" rx="0.18005371" ry="0.18005371"/>
	<ellipse fill="none" stroke="red" stroke-width="0.044999998" stroke-miterlimit="4" transform="matrix(14.6985 0 -0 -14.6985 -17450 27161.8)" cx="1266.6216" cy="1829.4324" rx="0.18005371" ry="0.18005371"/>
	<ellipse fill="none" stroke="red" stroke-width="0.044999998" stroke-miterlimit="4" transform="matrix(14.6985 0 -0 -14.6985 -17450 27161.8)" cx="1265.7301" cy="1829.4678" rx="0.18005371" ry="0.18005371"/>
	<ellipse fill="none" stroke="red" stroke-width="0.044999998" stroke-miterlimit="4" transform="matrix(14.6985 0 -0 -14.6985 -17450 27161.8)" cx="1264.8387" cy="1829.5033" rx="0.18005371" ry="0.18005371"/>
	<ellipse fill="none" stroke="red" stroke-width="0.044999998" stroke-miterlimit="4" transform="matrix(14.6985 0 -0 -14.6985 -17450 27161.8)" cx="1263.9474" cy="1829.5387" rx="0.18005371" ry="0.18005371"/>
	<ellipse fill="none" stroke="red" stroke-width="0.044999998" stroke-miterlimit="4" transform="matrix(14.6985 0 -0 -14.6985 -17450 27161.8)" cx="1263.0559" cy="1829.5741" rx="0.18005371" ry="0.18005371"/>
	<ellipse fill="none" stroke="red" stroke-width="0.044999998" stroke-miterlimit="4" transform="matrix(14.6985 0 -0 -14.6985 -17450 27161.8)" cx="1262.1646" cy="1829.6096" rx="0.18005371" ry="0.18005371"/>
	<ellipse fill="none" stroke="red" stroke-width="0.044999998" stroke-miterlimit="4" transform="matrix(14.6985 0 -0 -14.6985 -17450 27161.8)" cx="1261.2731" cy="1829.645" rx="0.18005371" ry="0.18005371"/>
	<ellipse fill="none" stroke="red" stroke-width="0.044999998" stroke-miterlimit="4" transform="matrix(14.6985 0 -0 -14.6985 -17450 27161.8)" cx="1260.3817" cy="1829.6804" rx="0.18005371" ry="0.18005371"/>
	<ellipse fill="none" stroke="red" stroke-width="0.044999998" stroke-miterlimit="4" transform="matrix(14.6985 0 -0 -14.6985 -17450 27161.8)" cx="1259.4904" cy="1829.7159" rx="0.18005371" ry="0.18005371"/>
	<ellipse fill="none" stroke="red" stroke-width="0.044999998" stroke-miterlimit="4" transform="matrix(14.6985 0 -0 -14.6985 -17450 27161.8)" cx="1258.5989" cy="1829.7513" rx="0.18005371" ry="0.18005371"/>
	<ellipse fill="none" stroke="red" stroke-width="0.044999998" stroke-miterlimit="4" transform="matrix(14.6985 0 -0 -14.6985 -17450 27161.8)" cx="1257.7075" cy="1829.7867" rx="0.18005371" ry="0.18005371"/>
	<ellipse fill="none" stroke="red" stroke-width="0.044999998" stroke-miterlimit="4" transform="matrix(14.6985 0 -0 -14.6985 -17450 27161.8)" cx="1256.8162" cy="1829.8221" rx="0.18005371" ry="0.18005371"/>
	<ellipse fill="none" stroke="red" stroke-width="0.044999998" stroke-miterlimit="4" transform="matrix(14.6985 0 -0 -14.6985 -17450 27161.8)" cx="1255.9247" cy="1829.8577" rx="0.18005371" ry="0.18005371"/>
	<ellipse fill="none" stroke="red" stroke-width="0.044999998" stroke-miterlimit="4" transform="matrix(14.6985 0 -0 -14.6985 -17450 27161.8)" cx="1255.0333" cy="1829.8931" rx="0.18005371" ry="0.18005371"/>
	<ellipse fill="none" stroke="red" stroke-width="0.044999998" stroke-miterlimit="4" transform="matrix(14.6985 0 -0 -14.6985 -17450 27161.8)" cx="1254.142" cy="1829.9285" rx="0.18005371" ry="0.18005371"/>
	<ellipse fill="none" stroke="red" stroke-width="0.044999998" stroke-miterlimit="4" transform="matrix(14.6985 0 -0 -14.6985 -17450 27161.8)" cx="1253.2505" cy="1829.964" rx="0.18005371" ry="0.18005371"/>
	<ellipse fill="none" stroke="red" stroke-width="0.044999998" stroke-miterlimit="4" transform="matrix(14.6985 0 -0 -14.6985 -17450 27161.8)" cx="1252.3591" cy="1829.9994" rx="0.18005371" ry="0.18005371"/>
	<ellipse fill="none" stroke="red" stroke-width="0.044999998" stroke-miterlimit="4" transform="matrix(14.6985 0 -0 -14.6985 -17450 27161.8)" cx="1251.4677" cy="1830.0348" rx="0.18005371" ry="0.18005371"/>
	<ellipse fill="none" stroke="red" stroke-width="0.044999998" stroke-miterlimit="4" transform="matrix(14.6985 0 -0 -14.6985 -17450 27161.8)" cx="1250.5763" cy="1830.0702" rx="0.18005371" ry="0.18005371"/>
	<ellipse fill="none" stroke="red" stroke-width="0.044999998" stroke-miterlimit="4" transform="matrix(14.6985 0 -0 -14.6985 -17450 27161.8)" cx="1249.6849" cy="1830.1057" rx="0.18005371" ry="0.18005371"/>
	<ellipse fill="none" stroke="red" stroke-width="0.044999998" stroke-miterlimit="4" transform="matrix(14.6985 0 -0 -14.6985 -17450 27161.8)" cx="1248.7935" cy="1830.1411" rx="0.18005371" ry="0.18005371"/>
	<ellipse fill="none" stroke="red" stroke-width="0.044999998" stroke-miterlimit="4" transform="matrix(14.6985 0 -0 -14.6985 -17450 27161.8)" cx="1247.9021" cy="1830.1765" rx="0.18005371" ry="0.18005371"/>
	<ellipse fill="none" stroke="red" stroke-width="0.044999998" stroke-miterlimit="4" transform="matrix(14.6985 0 -0 -14.6985 -17450 27161.8)" cx="1247.0107" cy="1830.212" rx="0.18005371" ry="0.18005371"/>
	<ellipse fill="none" stroke="red" stroke-width="0.044999998" stroke-miterlimit="4" transform="matrix(14.6985 0 -0 -14.6985 -17450 27161.8)" cx="1246.1193" cy="1830.2474" rx="0.18005371" ry="0.18005371"/>
	<ellipse fill="none" stroke="red" stroke-width="0.044999998" stroke-miterlimit="4" transform="matrix(14.6985 0 -0 -14.6985 -17450 27161.8)" cx="1245.2279" cy="1830.2828" rx="0.18005371" ry="0.18005371"/>
	<ellipse fill="none" stroke="red" stroke-width="0.044999998" stroke-miterlimit="4" transform="matrix(14.6985 0 -0 -14.6985 -17450 27161.8)" cx="1244.3365" cy="1830.3182" rx="0.18005371" ry="0.18005371"/>
	<ellipse fill="none" stroke="red" stroke-width="0.044999998" stroke-miterlimit="4" transform="matrix(14.6985 0 -0 -14.6985 -17450 27161.8)" cx="1243.4451" cy="1830.3538" rx="0.18005371" ry="0.18005371"/>
	<ellipse fill="none" stroke="red" stroke-width="0.044999998" stroke-miterlimit="4" transform="matrix(14.6985 0 -0 -14.6985 -17450 27161.8)" cx="1242.5537" cy="1830.3892" rx="0.18005371" ry="0.18005371"/>
	<ellipse fill="none" stroke="red" stroke-width="0.044999998" stroke-miterlimit="4" transform="matrix(14.6985 0 -0 -14.6985 -17450 27161.8)" cx="1241.6622" cy="1830.4246" rx="0.18005371" ry="0.18005371"/>
	<ellipse fill="none" stroke="red" stroke-width="0.044999998" stroke-miterlimit="4" transform="matrix(14.6985 0 -0 -14.6985 -17450 27161.8)" cx="1240.7709" cy="1830.4601" rx="0.18005371" ry="0.18005371"/>
	<ellipse fill="none" stroke="red" stroke-width="0.044999998" stroke-miterlimit="4" transform="matrix(14.6985 0 -0 -14.6985 -17450 27161.8)" cx="1239.8795" cy="1830.4955" rx="0.18005371" ry="0.18005371"/>
	<ellipse fill="none" stroke="red" stroke-width="0.044999998" stroke-miterlimit="4" transform="matrix(14.6985 0 -0 -14.6985 -17450 27161.8)" cx="1238.988" cy="1830.5309" rx="0.18005371" ry="0.18005371"/>
	<ellipse fill="none" stroke="red" stroke-width="0.044999998" stroke-miterlimit="4" transform="matrix(14.6985 0 -0 -14.6985 -17450 27161.8)" cx="1238.0967" cy="1830.5664" rx="0.18005371" ry="0.18005371"/>
	<ellipse fill="none" stroke="red" stroke-width="0.044999998" stroke-miterlimit="4" transform="matrix(14.6985 0 -0 -14.6985 -17450 27161.8)" cx="1237.196" cy="1830.4537" rx="0.18005371" ry="0.18005371"/>
	<ellipse fill="none" stroke="red" stroke-width="0.044999998" stroke-miterlimit="4" transform="matrix(14.6985 0 -0 -14.6985 -17450 27161.8)" cx="1236.2954" cy="1830.3411" rx="0.18005371" ry="0.18005371"/>
	<ellipse fill="none" stroke="red" stroke-width="0.044999998" stroke-miterlimit="4" transform="matrix(14.6985 0 -0 -14.6985 -17450 27161.8)" cx="1235.3948" cy="1830.2284" rx="0.18005371" ry="0.18005371"/>
	<ellipse fill="none" stroke="red" stroke-width="0.044999998" stroke-miterlimit="4" transform="matrix(14.6985 0 -0 -14.6985 -17450 27161.8)" cx="1234.494" cy="1830.1157" rx="0.18005371" ry="0.18005371"/>
	<ellipse fill="none" stroke="red" stroke-width="0.044999998" stroke-miterlimit="4" transform="matrix(14.6985 0 -0 -14.6985 -17450 27161.8)" cx="1233.5934" cy="1830.0031" rx="0.18005371" ry="0.18005371"/>
	<ellipse fill="none" stroke="red" stroke-width="0.044999998" stroke-miterlimit="4" transform="matrix(14.6985 0 -0 -14.6985 -17450 27161.8)" cx="1232.6927" cy="1829.8905" rx="0.18005371" ry="0.18005371"/>
	<ellipse fill="none" stroke="red" stroke-width="0.044999998" stroke-miterlimit="4" transform="matrix(14.6985 0 -0 -14.6985 -17450 27161.8)" cx="1231.7921" cy="1829.7778" rx="0.18005371" ry="0.18005371"/>
	<ellipse fill="none" stroke="red" stroke-width="0.044999998" stroke-miterlimit="4" transform="matrix(14.6985 0 -0 -14.6985 -17450 27161.8)" cx="1230.8915" cy="1829.6652" rx="0.18005371" ry="0.18005371"/>
	<ellipse fill="none" stroke="red" stroke-width="0.044999998" stroke-miterlimit="4" transform="matrix(14.6985 0 -0 -14.6985 -17450 27161.8)" cx="1229.9908" cy="1829.5525" rx="0.18005371" ry="0.18005371"/>
	<ellipse fill="none" stroke="red" stroke-width="0.044999998" stroke-miterlimit="4" transform="matrix(14.6985 0 -0 -14.6985 -17450 27161.8)" cx="1229.0901" cy="1829.4398" rx="0.18005371" ry="0.18005371"/>
	<ellipse fill="none" stroke="red" stroke-width="0.044999998" stroke-miterlimit="4" transform="matrix(14.6985 0 -0 -14.6985 -17450 27161.8)" cx="1228.1895" cy="1829.3271" rx="0.18005371" ry="0.18005371"/>
	<ellipse fill="none" stroke="red" stroke-width="0.044999998" stroke-miterlimit="4" transform="matrix(14.6985 0 -0 -14.6985 -17450 27161.8)" cx="1227.2888" cy="1829.2146" rx="0.18005371" ry="0.18005371"/>
	<ellipse fill="none" stroke="red" stroke-width="0.044999998" stroke-miterlimit="4" transform="matrix(14.6985 0 -0 -14.6985 -17450 27161.8)" cx="1226.3882" cy="1829.1019" rx="0.18005371" ry="0.18005371"/>
	<ellipse fill="none" stroke="red" stroke-width="0.044999998" stroke-miterlimit="4" transform="matrix(14.6985 0 -0 -14.6985 -17450 27161.8)" cx="1225.4875" cy="1828.9893" rx="0.18005371" ry="0.18005371"/>
	<ellipse fill="none" stroke="red" stroke-width="0.044999998" stroke-miterlimit="4" transform="matrix(14.6985 0 -0 -14.6985 -17450 27161.8)" cx="1224.5869" cy="1828.8766" rx="0.18005371" ry="0.18005371"/>
	<ellipse fill="none" stroke="red" stroke-width="0.044999998" stroke-miterlimit="4" transform="matrix(14.6985 0 -0 -14.6985 -17450 27161.8)" cx="1223.6863" cy="1828.7639" rx="0.18005371" ry="0.18005371"/>
	<ellipse fill="none" stroke="red" stroke-width="0.044999998" stroke-miterlimit="4" transform="matrix(14.6985 0 -0 -14.6985 -17450 27161.8)" cx="1222.7855" cy="1828.6512" rx="0.18005371" ry="0.18005371"/>
	<ellipse fill="none" stroke="red" stroke-width="0.044999998" stroke-miterlimit="4" transform="matrix(14.6985 0 -0 -14.6985 -17450 27161.8)" cx="1221.8849" cy="1828.5387" rx="0.18005371" ry="0.18005371"/>
	<ellipse fill="none" stroke="red" stroke-width="0.044999998" stroke-miterlimit="4" transform="matrix(14.6985 0 -0 -14.6985 -17450 27161.8)" cx="1220.9843" cy="1828.426" rx="0.18005371" ry="0.18005371"/>
	<ellipse fill="none" stroke="red" stroke-width="0.044999998" stroke-miterlimit="4" transform="matrix(14.6985 0 -0 -14.6985 -17450 27161.8)" cx="1220.0836" cy="1828.3134" rx="0.18005371" ry="0.18005371"/>
	<ellipse fill="none" stroke="red" stroke-width="0.044999998" stroke-miterlimit="4" transform="matrix(14.6985 0 -0 -14.6985 -17450 27161.8)" cx="1219.183" cy="1828.2007" rx="0.18005371" ry="0.18005371"/>
	<ellipse fill="none" stroke="red" stroke-width="0.044999998" stroke-miterlimit="4" transform="matrix(14.6985 0 -0 -14.6985 -17450 27161.8)" cx="1218.2823" cy="1828.088" rx="0.18005371" ry="0.18005371"/>
	<ellipse fill="none" stroke="red" stroke-width="0.044999998" stroke-miterlimit="4" transform="matrix(14.6985 0 -0 -14.6985 -17450 27161.8)" cx="1217.3816" cy="1827.9753" rx="0.18005371" ry="0.18005371"/>
	<ellipse fill="none" stroke="red" stroke-width="0.044999998" stroke-miterlimit="4" transform="matrix(14.6985 0 -0 -14.6985 -17450 27161.8)" cx="1216.481" cy="1827.8628" rx="0.18005371" ry="0.18005371"/>
	<ellipse fill="none" stroke="red" stroke-width="0.044999998" stroke-miterlimit="4" transform="matrix(14.6985 0 -0 -14.6985 -17450 27161.8)" cx="1215.5803" cy="1827.7501" rx="0.18005371" ry="0.18005371"/>
	<ellipse fill="none" stroke="red" stroke-width="0.044999998" stroke-miterlimit="4" transform="matrix(14.6985 0 -0 -14.6985 -17450 27161.8)" cx="1214.6797" cy="1827.6375" rx="0.18005371" ry="0.18005371"/>
	<ellipse fill="none" stroke="red" stroke-width="0.044999998" stroke-miterlimit="4" transform="matrix(14.6985 0 -0 -14.6985 -17450 27161.8)" cx="1213.7791" cy="1827.5248" rx="0.18005371" ry="0.18005371"/>
	<ellipse fill="none" stroke="red" stroke-width="0.044999998" stroke-miterlimit="4" transform="matrix(14.6985 0 -0 -14.6985 -17450 27161.8)" cx="1212.8784" cy="1827.4121" rx="0.18005371" ry="0.18005371"/>
	<ellipse fill="none" stroke="red" stroke-width="0.044999998" stroke-miterlimit="4" transform="matrix(14.6985 0 -0 -14.6985 -17450 27161.8)" cx="1211.9778" cy="1827.2994" rx="0.18005371" ry="0.18005371"/>
	<ellipse fill="none" stroke="red" stroke-width="0.044999998" stroke-miterlimit="4" transform="matrix(14.6985 0 -0 -14.6985 -17450 27161.8)" cx="1211.077" cy="1827.1869" rx="0.18005371" ry="0.18005371"/>
	<ellipse fill="none" stroke="red" stroke-width="0.044999998" stroke-miterlimit="4" transform="matrix(14.6985 0 -0 -14.6985 -17450 27161.8)" cx="1210.1764" cy="1827.0742" rx="0.18005371" ry="0.18005371"/>
	<ellipse fill="none" stroke="red" stroke-width="0.044999998" stroke-miterlimit="4" transform="matrix(14.6985 0 -0 -14.6985 -17450 27161.8)" cx="1209.2758" cy="1826.9615" rx="0.18005371" ry="0.18005371"/>
	<ellipse fill="none" stroke="red" stroke-width="0.044999998" stroke-miterlimit="4" transform="matrix(14.6985 0 -0 -14.6985 -17450 27161.8)" cx="1208.3751" cy="1826.8489" rx="0.18005371" ry="0.18005371"/>
	<ellipse fill="none" stroke="red" stroke-width="0.044999998" stroke-miterlimit="4" transform="matrix(14.6985 0 -0 -14.6985 -17450 27161.8)" cx="1207.4745" cy="1826.7362" rx="0.18005371" ry="0.18005371"/>
	<ellipse fill="none" stroke="red" stroke-width="0.044999998" stroke-miterlimit="4" transform="matrix(14.6985 0 -0 -14.6985 -17450 27161.8)" cx="1206.5739" cy="1826.6235" rx="0.18005371" ry="0.18005371"/>
	<ellipse fill="none" stroke="red" stroke-width="0.044999998" stroke-miterlimit="4" transform="matrix(14.6985 0 -0 -14.6985 -17450 27161.8)" cx="1205.6732" cy="1826.511" rx="0.18005371" ry="0.18005371"/>
	<ellipse fill="none" stroke="red" stroke-width="0.044999998" stroke-miterlimit="4" transform="matrix(14.6985 0 -0 -14.6985 -17450 27161.8)" cx="1204.7725" cy="1826.3983" rx="0.18005371" ry="0.18005371"/>
	<ellipse fill="none" stroke="red" stroke-width="0.044999998" stroke-miterlimit="4" transform="matrix(14.6985 0 -0 -14.6985 -17450 27161.8)" cx="1203.8718" cy="1826.2856" rx="0.18005371" ry="0.18005371"/>
	<ellipse fill="none" stroke="red" stroke-width="0.044999998" stroke-miterlimit="4" transform="matrix(14.6985 0 -0 -14.6985 -17450 27161.8)" cx="1202.9712" cy="1826.173" rx="0.18005371" ry="0.18005371"/>
	<ellipse fill="none" stroke="red" stroke-width="0.044999998" stroke-miterlimit="4" transform="matrix(14.6985 0 -0 -14.6985 -17450 27161.8)" cx="1202.0706" cy="1826.0603" rx="0.18005371" ry="0.18005371"/>
	<ellipse fill="none" stroke="red" stroke-width="0.044999998" stroke-miterlimit="4" transform="matrix(14.6985 0 -0 -14.6985 -17450 27161.8)" cx="1201.1699" cy="1825.9476" rx="0.18005371" ry="0.18005371"/>
	<ellipse fill="none" stroke="red" stroke-width="0.044999998" stroke-miterlimit="4" transform="matrix(14.6985 0 -0 -14.6985 -17450 27161.8)" cx="1200.2693" cy="1825.8351" rx="0.18005371" ry="0.18005371"/>
	<ellipse fill="none" stroke="red" stroke-width="0.044999998" stroke-miterlimit="4" transform="matrix(14.6985 0 -0 -14.6985 -17450 27161.8)" cx="1199.3685" cy="1825.7224" rx="0.18005371" ry="0.18005371"/>
	<ellipse fill="none" stroke="red" stroke-width="0.044999998" stroke-miterlimit="4" transform="matrix(14.6985 0 -0 -14.6985 -17450 27161.8)" cx="1199.0024" cy="1824.9001" rx="0.18005371" ry="0.18005371"/>
	<ellipse fill="none" stroke="red" stroke-width="0.044999998" stroke-miterlimit="4" transform="matrix(14.6985 0 -0 -14.6985 -17450 27161.8)" cx="1198.6364" cy="1824.078" rx="0.18005371" ry="0.18005371"/>
	<ellipse fill="none" stroke="red" stroke-width="0.044999998" stroke-miterlimit="4" transform="matrix(14.6985 0 -0 -14.6985 -17450 27161.8)" cx="1198.2703" cy="1823.2559" rx="0.18005371" ry="0.18005371"/>
	<ellipse fill="none" stroke="red" stroke-width="0.044999998" stroke-miterlimit="4" transform="matrix(14.6985 0 -0 -14.6985 -17450 27161.8)" cx="1197.9041" cy="1822.4336" rx="0.18005371" ry="0.18005371"/>
	<ellipse fill="none" stroke="red" stroke-width="0.044999998" stroke-miterlimit="4" transform="matrix(14.6985 0 -0 -14.6985 -17450 27161.8)" cx="1197.538" cy="1821.6115" rx="0.18005371" ry="0.18005371"/>
	<ellipse fill="none" stroke="red" stroke-width="0.044999998" stroke-miterlimit="4" transform="matrix(14.6985 0 -0 -14.6985 -17450 27161.8)" cx="1197.1719" cy="1820.7893" rx="0.18005371" ry="0.18005371"/>
	<ellipse fill="none" stroke="red" stroke-width="0.044999998" stroke-miterlimit="4" transform="matrix(14.6985 0 -0 -14.6985 -17450 27161.8)" cx="1196.8057" cy="1819.967" rx="0.18005371" ry="0.18005371"/>
	<ellipse fill="none" stroke="red" stroke-width="0.044999998" stroke-miterlimit="4" transform="matrix(14.6985 0 -0 -14.6985 -17450 27161.8)" cx="1196.4396" cy="1819.1449" rx="0.18005371" ry="0.18005371"/>
	<ellipse fill="none" stroke="red" stroke-width="0.044999998" stroke-miterlimit="4" transform="matrix(14.6985 0 -0 -14.6985 -17450 27161.8)" cx="1195.847" cy="1818.452" rx="0.18005371" ry="0.18005371"/>
	<ellipse fill="none" stroke="red" stroke-width="0.044999998" stroke-miterlimit="4" transform="matrix(14.6985 0 -0 -14.6985 -17450 27161.8)" cx="1195.2545" cy="1817.7592" rx="0.18005371" ry="0.18005371"/>
	<ellipse fill="none" stroke="red" stroke-width="0.044999998" stroke-miterlimit="4" transform="matrix(14.6985 0 -0 -14.6985 -17450 27161.8)" cx="1194.662" cy="1817.0664" rx="0.18005371" ry="0.18005371"/>
	<ellipse fill="none" stroke="red" stroke-width="0.044999998" stroke-miterlimit="4" transform="matrix(14.6985 0 -0 -14.6985 -17450 27161.8)" cx="1194.0695" cy="1816.3735" rx="0.18005371" ry="0.18005371"/>
	<ellipse fill="none" stroke="red" stroke-width="0.044999998" stroke-miterlimit="4" transform="matrix(14.6985 0 -0 -14.6985 -17450 27161.8)" cx="1193.4769" cy="1815.6807" rx="0.18005371" ry="0.18005371"/>
	<ellipse fill="none" stroke="red" stroke-width="0.044999998" stroke-miterlimit="4" transform="matrix(14.6985 0 -0 -14.6985 -17450 27161.8)" cx="1192.8843" cy="1814.9879" rx="0.18005371" ry="0.18005371"/>
	<ellipse fill="none" stroke="purple" stroke-width="0.044999998" stroke-miterlimit="4" transform="matrix(14.6985 0 -0 -14.6985 -17450 27161.8)" cx="1281.4347" cy="1821.1127" rx="0.18005371" ry="0.18005371"/>
	<ellipse fill="none" stroke="purple" stroke-width="0.044999998" stroke-miterlimit="4" transform="matrix(14.6985 0 -0 -14.6985 -17450 27161.8)" cx="1280.1443" cy="1823.3699" rx="0.18005371" ry="0.18005371"/>
	<ellipse fill="none" stroke="purple" stroke-width="0.044999998" stroke-miterlimit="4" transform="matrix(14.6985 0 -0 -14.6985 -17450 27161.8)" cx="1278.8538" cy="1825.627" rx="0.18005371" ry="0.18005371"/>
	<ellipse fill="none" stroke="purple" stroke-width="0.044999998" stroke-miterlimit="4" transform="matrix(14.6985 0 -0 -14.6985 -17450 27161.8)" cx="1277.5634" cy="1827.8842" rx="0.18005371" ry="0.18005371"/>
	<ellipse fill="none" stroke="purple" stroke-width="0.044999998" stroke-miterlimit="4" transform="matrix(14.6985 0 -0 -14.6985 -17450 27161.8)" cx="1274.9688" cy="1827.9932" rx="0.18005371" ry="0.18005371"/>
	<ellipse fill="none" stroke="purple" stroke-width="0.044999998" stroke-miterlimit="4" transform="matrix(14.6985 0 -0 -14.6985 -17450 27161.8)" cx="1272.3708" cy="1828.0966" rx="0.18005371" ry="0.18005371"/>
	<ellipse fill="none" stroke="purple" stroke-width="0.044999998" stroke-miterlimit="4" transform="matrix(14.6985 0 -0 -14.6985 -17450 27161.8)" cx="1269.7729" cy="1828.2001" rx="0.18005371" ry="0.18005371"/>
	<ellipse fill="none" stroke="purple" stroke-width="0.044999998" stroke-miterlimit="4" transform="matrix(14.6985 0 -0 -14.6985 -17450 27161.8)" cx="1267.1749" cy="1828.3035" rx="0.18005371" ry="0.18005371"/>
	<ellipse fill="none" stroke="purple" stroke-width="0.044999998" stroke-miterlimit="4" transform="matrix(14.6985 0 -0 -14.6985 -17450 27161.8)" cx="1264.577" cy="1828.407" rx="0.18005371" ry="0.18005371"/>
	<ellipse fill="none" stroke="purple" stroke-width="0.044999998" stroke-miterlimit="4" transform="matrix(14.6985 0 -0 -14.6985 -17450 27161.8)" cx="1261.9791" cy="1828.5104" rx="0.18005371" ry="0.18005371"/>
	<ellipse fill="none" stroke="purple" stroke-width="0.044999998" stroke-miterlimit="4" transform="matrix(14.6985 0 -0 -14.6985 -17450 27161.8)" cx="1259.3811" cy="1828.6139" rx="0.18005371" ry="0.18005371"/>
	<ellipse fill="none" stroke="purple" stroke-width="0.044999998" stroke-miterlimit="4" transform="matrix(14.6985 0 -0 -14.6985 -17450 27161.8)" cx="1256.7832" cy="1828.7173" rx="0.18005371" ry="0.18005371"/>
	<ellipse fill="none" stroke="purple" stroke-width="0.044999998" stroke-miterlimit="4" transform="matrix(14.6985 0 -0 -14.6985 -17450 27161.8)" cx="1254.1853" cy="1828.8207" rx="0.18005371" ry="0.18005371"/>
	<ellipse fill="none" stroke="purple" stroke-width="0.044999998" stroke-miterlimit="4" transform="matrix(14.6985 0 -0 -14.6985 -17450 27161.8)" cx="1251.5873" cy="1828.9242" rx="0.18005371" ry="0.18005371"/>
	<ellipse fill="none" stroke="purple" stroke-width="0.044999998" stroke-miterlimit="4" transform="matrix(14.6985 0 -0 -14.6985 -17450 27161.8)" cx="1248.9894" cy="1829.0276" rx="0.18005371" ry="0.18005371"/>
	<ellipse fill="none" stroke="purple" stroke-width="0.044999998" stroke-miterlimit="4" transform="matrix(14.6985 0 -0 -14.6985 -17450 27161.8)" cx="1246.3915" cy="1829.1311" rx="0.18005371" ry="0.18005371"/>
	<ellipse fill="none" stroke="purple" stroke-width="0.044999998" stroke-miterlimit="4" transform="matrix(14.6985 0 -0 -14.6985 -17450 27161.8)" cx="1243.7935" cy="1829.2345" rx="0.18005371" ry="0.18005371"/>
	<ellipse fill="none" stroke="purple" stroke-width="0.044999998" stroke-miterlimit="4" transform="matrix(14.6985 0 -0 -14.6985 -17450 27161.8)" cx="1241.1956" cy="1829.3379" rx="0.18005371" ry="0.18005371"/>
	<ellipse fill="none" stroke="purple" stroke-width="0.044999998" stroke-miterlimit="4" transform="matrix(14.6985 0 -0 -14.6985 -17450 27161.8)" cx="1238.5977" cy="1829.4414" rx="0.18005371" ry="0.18005371"/>
	<ellipse fill="none" stroke="purple" stroke-width="0.044999998" stroke-miterlimit="4" transform="matrix(14.6985 0 -0 -14.6985 -17450 27161.8)" cx="1236.0145" cy="1829.1952" rx="0.18005371" ry="0.18005371"/>
	<ellipse fill="none" stroke="purple" stroke-width="0.044999998" stroke-miterlimit="4" transform="matrix(14.6985 0 -0 -14.6985 -17450 27161.8)" cx="1233.4347" cy="1828.8722" rx="0.18005371" ry="0.18005371"/>
	<ellipse fill="none" stroke="purple" stroke-width="0.044999998" stroke-miterlimit="4" transform="matrix(14.6985 0 -0 -14.6985 -17450 27161.8)" cx="1230.8547" cy="1828.5492" rx="0.18005371" ry="0.18005371"/>
	<ellipse fill="none" stroke="purple" stroke-width="0.044999998" stroke-miterlimit="4" transform="matrix(14.6985 0 -0 -14.6985 -17450 27161.8)" cx="1228.2749" cy="1828.2262" rx="0.18005371" ry="0.18005371"/>
	<ellipse fill="none" stroke="purple" stroke-width="0.044999998" stroke-miterlimit="4" transform="matrix(14.6985 0 -0 -14.6985 -17450 27161.8)" cx="1225.6951" cy="1827.9032" rx="0.18005371" ry="0.18005371"/>
	<ellipse fill="none" stroke="purple" stroke-width="0.044999998" stroke-miterlimit="4" transform="matrix(14.6985 0 -0 -14.6985 -17450 27161.8)" cx="1223.1152" cy="1827.5802" rx="0.18005371" ry="0.18005371"/>
	<ellipse fill="none" stroke="purple" stroke-width="0.044999998" stroke-miterlimit="4" transform="matrix(14.6985 0 -0 -14.6985 -17450 27161.8)" cx="1220.5354" cy="1827.2572" rx="0.18005371" ry="0.18005371"/>
	<ellipse fill="none" stroke="purple" stroke-width="0.044999998" stroke-miterlimit="4" transform="matrix(14.6985 0 -0 -14.6985 -17450 27161.8)" cx="1217.9554" cy="1826.9342" rx="0.18005371" ry="0.18005371"/>
	<ellipse fill="none" stroke="purple" stroke-width="0.044999998" stroke-miterlimit="4" transform="matrix(14.6985 0 -0 -14.6985 -17450 27161.8)" cx="1215.3756" cy="1826.6112" rx="0.18005371" ry="0.18005371"/>
	<ellipse fill="none" stroke="purple" stroke-width="0.044999998" stroke-miterlimit="4" transform="matrix(14.6985 0 -0 -14.6985 -17450 27161.8)" cx="1212.7958" cy="1826.2882" rx="0.18005371" ry="0.18005371"/>
	<ellipse fill="none" stroke="purple" stroke-width="0.044999998" stroke-miterlimit="4" transform="matrix(14.6985 0 -0 -14.6985 -17450 27161.8)" cx="1210.2159" cy="1825.9652" rx="0.18005371" ry="0.18005371"/>
	<ellipse fill="none" stroke="purple" stroke-width="0.044999998" stroke-miterlimit="4" transform="matrix(14.6985 0 -0 -14.6985 -17450 27161.8)" cx="1207.6361" cy="1825.6422" rx="0.18005371" ry="0.18005371"/>
	<ellipse fill="none" stroke="purple" stroke-width="0.044999998" stroke-miterlimit="4" transform="matrix(14.6985 0 -0 -14.6985 -17450 27161.8)" cx="1205.0562" cy="1825.3192" rx="0.18005371" ry="0.18005371"/>
	<ellipse fill="none" stroke="purple" stroke-width="0.044999998" stroke-miterlimit="4" transform="matrix(14.6985 0 -0 -14.6985 -17450 27161.8)" cx="1202.4763" cy="1824.9962" rx="0.18005371" ry="0.18005371"/>
	<ellipse fill="none" stroke="purple" stroke-width="0.044999998" stroke-miterlimit="4" transform="matrix(14.6985 0 -0 -14.6985 -17450 27161.8)" cx="1200.0227" cy="1824.5033" rx="0.18005371" ry="0.18005371"/>
	<ellipse fill="none" stroke="purple" stroke-width="0.044999998" stroke-miterlimit="4" transform="matrix(14.6985 0 -0 -14.6985 -17450 27161.8)" cx="1198.9678" cy="1822.127" rx="0.18005371" ry="0.18005371"/>
	<ellipse fill="none" stroke="purple" stroke-width="0.044999998" stroke-miterlimit="4" transform="matrix(14.6985 0 -0 -14.6985 -17450 27161.8)" cx="1197.913" cy="1819.7505" rx="0.18005371" ry="0.18005371"/>
	<ellipse fill="none" stroke="purple" stroke-width="0.044999998" stroke-miterlimit="4" transform="matrix(14.6985 0 -0 -14.6985 -17450 27161.8)" cx="1196.5427" cy="1817.5732" rx="0.18005371" ry="0.18005371"/>
	<ellipse fill="none" stroke="purple" stroke-width="0.044999998" stroke-miterlimit="4" transform="matrix(14.6985 0 -0 -14.6985 -17450 27161.8)" cx="1194.8507" cy="1815.5991" rx="0.18005371" ry="0.18005371"/>
	<ellipse fill="none" stroke="black" stroke-width="0.044999998" stroke-miterlimit="4" transform="matrix(14.6985 0 -0 -14.6985 -17450 27161.8)" cx="1279.9584" cy="1820.2687" rx="0.18005371" ry="0.18005371"/>
	<ellipse fill="none" stroke="black" stroke-width="0.044999998" stroke-miterlimit="4" transform="matrix(14.6985 0 -0 -14.6985 -17450 27161.8)" cx="1278.0226" cy="1823.6543" rx="0.18005371" ry="0.18005371"/>
	<ellipse fill="none" stroke="black" stroke-width="0.044999998" stroke-miterlimit="4" transform="matrix(14.6985 0 -0 -14.6985 -17450 27161.8)" cx="1275.6177" cy="1826.2672" rx="0.18005371" ry="0.18005371"/>
	<ellipse fill="none" stroke="black" stroke-width="0.044999998" stroke-miterlimit="4" transform="matrix(14.6985 0 -0 -14.6985 -17450 27161.8)" cx="1271.7208" cy="1826.4227" rx="0.18005371" ry="0.18005371"/>
	<ellipse fill="none" stroke="black" stroke-width="0.044999998" stroke-miterlimit="4" transform="matrix(14.6985 0 -0 -14.6985 -17450 27161.8)" cx="1267.8239" cy="1826.5782" rx="0.18005371" ry="0.18005371"/>
	<ellipse fill="none" stroke="black" stroke-width="0.044999998" stroke-miterlimit="4" transform="matrix(14.6985 0 -0 -14.6985 -17450 27161.8)" cx="1263.927" cy="1826.7338" rx="0.18005371" ry="0.18005371"/>
	<ellipse fill="none" stroke="black" stroke-width="0.044999998" stroke-miterlimit="4" transform="matrix(14.6985 0 -0 -14.6985 -17450 27161.8)" cx="1260.03" cy="1826.8893" rx="0.18005371" ry="0.18005371"/>
	<ellipse fill="none" stroke="black" stroke-width="0.044999998" stroke-miterlimit="4" transform="matrix(14.6985 0 -0 -14.6985 -17450 27161.8)" cx="1256.1332" cy="1827.0448" rx="0.18005371" ry="0.18005371"/>
	<ellipse fill="none" stroke="black" stroke-width="0.044999998" stroke-miterlimit="4" transform="matrix(14.6985 0 -0 -14.6985 -17450 27161.8)" cx="1252.2363" cy="1827.2003" rx="0.18005371" ry="0.18005371"/>
	<ellipse fill="none" stroke="black" stroke-width="0.044999998" stroke-miterlimit="4" transform="matrix(14.6985 0 -0 -14.6985 -17450 27161.8)" cx="1248.3394" cy="1827.3558" rx="0.18005371" ry="0.18005371"/>
	<ellipse fill="none" stroke="black" stroke-width="0.044999998" stroke-miterlimit="4" transform="matrix(14.6985 0 -0 -14.6985 -17450 27161.8)" cx="1244.4425" cy="1827.5112" rx="0.18005371" ry="0.18005371"/>
	<ellipse fill="none" stroke="black" stroke-width="0.044999998" stroke-miterlimit="4" transform="matrix(14.6985 0 -0 -14.6985 -17450 27161.8)" cx="1240.5457" cy="1827.6667" rx="0.18005371" ry="0.18005371"/>
	<ellipse fill="none" stroke="black" stroke-width="0.044999998" stroke-miterlimit="4" transform="matrix(14.6985 0 -0 -14.6985 -17450 27161.8)" cx="1236.6595" cy="1827.5657" rx="0.18005371" ry="0.18005371"/>
	<ellipse fill="none" stroke="black" stroke-width="0.044999998" stroke-miterlimit="4" transform="matrix(14.6985 0 -0 -14.6985 -17450 27161.8)" cx="1232.7899" cy="1827.0804" rx="0.18005371" ry="0.18005371"/>
	<ellipse fill="none" stroke="black" stroke-width="0.044999998" stroke-miterlimit="4" transform="matrix(14.6985 0 -0 -14.6985 -17450 27161.8)" cx="1228.9202" cy="1826.5953" rx="0.18005371" ry="0.18005371"/>
	<ellipse fill="none" stroke="black" stroke-width="0.044999998" stroke-miterlimit="4" transform="matrix(14.6985 0 -0 -14.6985 -17450 27161.8)" cx="1225.0505" cy="1826.1101" rx="0.18005371" ry="0.18005371"/>
	<ellipse fill="none" stroke="black" stroke-width="0.044999998" stroke-miterlimit="4" transform="matrix(14.6985 0 -0 -14.6985 -17450 27161.8)" cx="1221.1808" cy="1825.625" rx="0.18005371" ry="0.18005371"/>
	<ellipse fill="none" stroke="black" stroke-width="0.044999998" stroke-miterlimit="4" transform="matrix(14.6985 0 -0 -14.6985 -17450 27161.8)" cx="1217.311" cy="1825.1399" rx="0.18005371" ry="0.18005371"/>
	<ellipse fill="none" stroke="black" stroke-width="0.044999998" stroke-miterlimit="4" transform="matrix(14.6985 0 -0 -14.6985 -17450 27161.8)" cx="1213.4414" cy="1824.6547" rx="0.18005371" ry="0.18005371"/>
	<ellipse fill="none" stroke="black" stroke-width="0.044999998" stroke-miterlimit="4" transform="matrix(14.6985 0 -0 -14.6985 -17450 27161.8)" cx="1209.5717" cy="1824.1696" rx="0.18005371" ry="0.18005371"/>
	<ellipse fill="none" stroke="black" stroke-width="0.044999998" stroke-miterlimit="4" transform="matrix(14.6985 0 -0 -14.6985 -17450 27161.8)" cx="1205.7019" cy="1823.6844" rx="0.18005371" ry="0.18005371"/>
	<ellipse fill="none" stroke="black" stroke-width="0.044999998" stroke-miterlimit="4" transform="matrix(14.6985 0 -0 -14.6985 -17450 27161.8)" cx="1201.8323" cy="1823.1992" rx="0.18005371" ry="0.18005371"/>
	<ellipse fill="none" stroke="black" stroke-width="0.044999998" stroke-miterlimit="4" transform="matrix(14.6985 0 -0 -14.6985 -17450 27161.8)" cx="1199.9196" cy="1820.0759" rx="0.18005371" ry="0.18005371"/>
	<ellipse fill="none" stroke="black" stroke-width="0.044999998" stroke-miterlimit="4" transform="matrix(14.6985 0 -0 -14.6985 -17450 27161.8)" cx="1198.0356" cy="1816.7008" rx="0.18005371" ry="0.18005371"/>
	<ellipse fill="none" stroke="black" stroke-width="0.044999998" stroke-miterlimit="4" transform="matrix(14.6985 0 -0 -14.6985 -17450 27161.8)" cx="1195.5013" cy="1813.7365" rx="0.18005371" ry="0.18005371"/>
	<ellipse fill="none" stroke="black" stroke-width="0.044999998" stroke-miterlimit="4" transform="matrix(14.6985 0 -0 -14.6985 -17450 27161.8)" cx="1271.6167" cy="1823.8156" rx="0.18005371" ry="0.18005371"/>
	<ellipse fill="none" stroke="black" stroke-width="0.044999998" stroke-miterlimit="4" transform="matrix(14.6985 0 -0 -14.6985 -17450 27161.8)" cx="1267.7198" cy="1823.9717" rx="0.18005371" ry="0.18005371"/>
	<ellipse fill="none" stroke="black" stroke-width="0.044999998" stroke-miterlimit="4" transform="matrix(14.6985 0 -0 -14.6985 -17450 27161.8)" cx="1263.823" cy="1824.1278" rx="0.18005371" ry="0.18005371"/>
	<ellipse fill="none" stroke="black" stroke-width="0.044999998" stroke-miterlimit="4" transform="matrix(14.6985 0 -0 -14.6985 -17450 27161.8)" cx="1259.9261" cy="1824.2839" rx="0.18005371" ry="0.18005371"/>
	<ellipse fill="none" stroke="black" stroke-width="0.044999998" stroke-miterlimit="4" transform="matrix(14.6985 0 -0 -14.6985 -17450 27161.8)" cx="1256.0292" cy="1824.4401" rx="0.18005371" ry="0.18005371"/>
	<ellipse fill="none" stroke="black" stroke-width="0.044999998" stroke-miterlimit="4" transform="matrix(14.6985 0 -0 -14.6985 -17450 27161.8)" cx="1252.1323" cy="1824.5962" rx="0.18005371" ry="0.18005371"/>
	<ellipse fill="none" stroke="black" stroke-width="0.044999998" stroke-miterlimit="4" transform="matrix(14.6985 0 -0 -14.6985 -17450 27161.8)" cx="1248.2355" cy="1824.7523" rx="0.18005371" ry="0.18005371"/>
	<ellipse fill="none" stroke="black" stroke-width="0.044999998" stroke-miterlimit="4" transform="matrix(14.6985 0 -0 -14.6985 -17450 27161.8)" cx="1244.3386" cy="1824.9084" rx="0.18005371" ry="0.18005371"/>
	<ellipse fill="none" stroke="black" stroke-width="0.044999998" stroke-miterlimit="4" transform="matrix(14.6985 0 -0 -14.6985 -17450 27161.8)" cx="1240.4418" cy="1825.0646" rx="0.18005371" ry="0.18005371"/>
	<ellipse fill="none" stroke="black" stroke-width="0.044999998" stroke-miterlimit="4" transform="matrix(14.6985 0 -0 -14.6985 -17450 27161.8)" cx="1236.5571" cy="1824.9302" rx="0.18005371" ry="0.18005371"/>
	<ellipse fill="none" stroke="black" stroke-width="0.044999998" stroke-miterlimit="4" transform="matrix(14.6985 0 -0 -14.6985 -17450 27161.8)" cx="1232.6875" cy="1824.4449" rx="0.18005371" ry="0.18005371"/>
	<ellipse fill="none" stroke="black" stroke-width="0.044999998" stroke-miterlimit="4" transform="matrix(14.6985 0 -0 -14.6985 -17450 27161.8)" cx="1228.8177" cy="1823.9597" rx="0.18005371" ry="0.18005371"/>
	<ellipse fill="none" stroke="black" stroke-width="0.044999998" stroke-miterlimit="4" transform="matrix(14.6985 0 -0 -14.6985 -17450 27161.8)" cx="1224.9481" cy="1823.4746" rx="0.18005371" ry="0.18005371"/>
	<ellipse fill="none" stroke="black" stroke-width="0.044999998" stroke-miterlimit="4" transform="matrix(14.6985 0 -0 -14.6985 -17450 27161.8)" cx="1221.0784" cy="1822.9894" rx="0.18005371" ry="0.18005371"/>
	<ellipse fill="none" stroke="black" stroke-width="0.044999998" stroke-miterlimit="4" transform="matrix(14.6985 0 -0 -14.6985 -17450 27161.8)" cx="1217.2087" cy="1822.5042" rx="0.18005371" ry="0.18005371"/>
	<ellipse fill="none" stroke="black" stroke-width="0.044999998" stroke-miterlimit="4" transform="matrix(14.6985 0 -0 -14.6985 -17450 27161.8)" cx="1213.339" cy="1822.0189" rx="0.18005371" ry="0.18005371"/>
	<ellipse fill="none" stroke="black" stroke-width="0.044999998" stroke-miterlimit="4" transform="matrix(14.6985 0 -0 -14.6985 -17450 27161.8)" cx="1209.4692" cy="1821.5337" rx="0.18005371" ry="0.18005371"/>
	<ellipse fill="none" stroke="black" stroke-width="0.044999998" stroke-miterlimit="4" transform="matrix(14.6985 0 -0 -14.6985 -17450 27161.8)" cx="1205.5996" cy="1821.0485" rx="0.18005371" ry="0.18005371"/>
	<ellipse fill="none" stroke="black" stroke-width="0.044999998" stroke-miterlimit="4" transform="matrix(14.6985 0 -0 -14.6985 -17450 27161.8)" cx="1202.5143" cy="1819.5056" rx="0.18005371" ry="0.18005371"/>
	<ellipse fill="none" stroke="black" stroke-width="0.044999998" stroke-miterlimit="4" transform="matrix(14.6985 0 -0 -14.6985 -17450 27161.8)" cx="1200.8529" cy="1815.99" rx="0.18005371" ry="0.18005371"/>
	<ellipse fill="none" stroke="black" stroke-width="0.044999998" stroke-miterlimit="4" transform="matrix(14.6985 0 -0 -14.6985 -17450 27161.8)" cx="1198.3153" cy="1813.0286" rx="0.18005371" ry="0.18005371"/>
	<ellipse fill="none" stroke="black" stroke-width="0.044999998" stroke-miterlimit="4" transform="matrix(14.6985 0 -0 -14.6985 -17450 27161.8)" cx="1275.255" cy="1823.2336" rx="0.18005371" ry="0.18005371"/>
	<ellipse fill="none" stroke="black" stroke-width="0.044999998" stroke-miterlimit="4" transform="matrix(14.6985 0 -0 -14.6985 -17450 27161.8)" cx="1277.1899" cy="1819.8475" rx="0.18005371" ry="0.18005371"/>
	<ellipse fill="none" stroke="black" stroke-width="0.044999998" stroke-miterlimit="4" transform="matrix(14.6985 0 -0 -14.6985 -17450 27161.8)" cx="1279.1249" cy="1816.4614" rx="0.18005371" ry="0.18005371"/>
	<ellipse fill="none" stroke="black" stroke-width="0.044999998" stroke-miterlimit="4" transform="matrix(14.6985 0 -0 -14.6985 -17450 27161.8)" cx="1263.7192" cy="1821.5398" rx="0.18005371" ry="0.18005371"/>
	<ellipse fill="none" stroke="black" stroke-width="0.044999998" stroke-miterlimit="4" transform="matrix(14.6985 0 -0 -14.6985 -17450 27161.8)" cx="1259.8224" cy="1821.6957" rx="0.18005371" ry="0.18005371"/>
	<ellipse fill="none" stroke="black" stroke-width="0.044999998" stroke-miterlimit="4" transform="matrix(14.6985 0 -0 -14.6985 -17450 27161.8)" cx="1255.9255" cy="1821.8516" rx="0.18005371" ry="0.18005371"/>
	<ellipse fill="none" stroke="black" stroke-width="0.044999998" stroke-miterlimit="4" transform="matrix(14.6985 0 -0 -14.6985 -17450 27161.8)" cx="1252.0287" cy="1822.0074" rx="0.18005371" ry="0.18005371"/>
	<ellipse fill="none" stroke="black" stroke-width="0.044999998" stroke-miterlimit="4" transform="matrix(14.6985 0 -0 -14.6985 -17450 27161.8)" cx="1248.1317" cy="1822.1635" rx="0.18005371" ry="0.18005371"/>
	<ellipse fill="none" stroke="black" stroke-width="0.044999998" stroke-miterlimit="4" transform="matrix(14.6985 0 -0 -14.6985 -17450 27161.8)" cx="1244.2349" cy="1822.3193" rx="0.18005371" ry="0.18005371"/>
	<ellipse fill="none" stroke="black" stroke-width="0.044999998" stroke-miterlimit="4" transform="matrix(14.6985 0 -0 -14.6985 -17450 27161.8)" cx="1240.338" cy="1822.4752" rx="0.18005371" ry="0.18005371"/>
	<ellipse fill="none" stroke="black" stroke-width="0.044999998" stroke-miterlimit="4" transform="matrix(14.6985 0 -0 -14.6985 -17450 27161.8)" cx="1236.4552" cy="1822.2979" rx="0.18005371" ry="0.18005371"/>
	<ellipse fill="none" stroke="black" stroke-width="0.044999998" stroke-miterlimit="4" transform="matrix(14.6985 0 -0 -14.6985 -17450 27161.8)" cx="1232.5854" cy="1821.8136" rx="0.18005371" ry="0.18005371"/>
	<ellipse fill="none" stroke="black" stroke-width="0.044999998" stroke-miterlimit="4" transform="matrix(14.6985 0 -0 -14.6985 -17450 27161.8)" cx="1228.7156" cy="1821.3292" rx="0.18005371" ry="0.18005371"/>
	<ellipse fill="none" stroke="black" stroke-width="0.044999998" stroke-miterlimit="4" transform="matrix(14.6985 0 -0 -14.6985 -17450 27161.8)" cx="1224.8458" cy="1820.845" rx="0.18005371" ry="0.18005371"/>
	<ellipse fill="none" stroke="black" stroke-width="0.044999998" stroke-miterlimit="4" transform="matrix(14.6985 0 -0 -14.6985 -17450 27161.8)" cx="1220.976" cy="1820.3606" rx="0.18005371" ry="0.18005371"/>
	<ellipse fill="none" stroke="black" stroke-width="0.044999998" stroke-miterlimit="4" transform="matrix(14.6985 0 -0 -14.6985 -17450 27161.8)" cx="1217.1061" cy="1819.8763" rx="0.18005371" ry="0.18005371"/>
	<ellipse fill="none" stroke="black" stroke-width="0.044999998" stroke-miterlimit="4" transform="matrix(14.6985 0 -0 -14.6985 -17450 27161.8)" cx="1213.2363" cy="1819.3921" rx="0.18005371" ry="0.18005371"/>
	<ellipse fill="none" stroke="black" stroke-width="0.044999998" stroke-miterlimit="4" transform="matrix(14.6985 0 -0 -14.6985 -17450 27161.8)" cx="1209.3665" cy="1818.9077" rx="0.18005371" ry="0.18005371"/>
	<ellipse fill="none" stroke="black" stroke-width="0.044999998" stroke-miterlimit="4" transform="matrix(14.6985 0 -0 -14.6985 -17450 27161.8)" cx="1205.4967" cy="1818.4235" rx="0.18005371" ry="0.18005371"/>
	<ellipse fill="none" stroke="black" stroke-width="0.044999998" stroke-miterlimit="4" transform="matrix(14.6985 0 -0 -14.6985 -17450 27161.8)" cx="1203.5221" cy="1815.3888" rx="0.18005371" ry="0.18005371"/>
	<ellipse fill="none" stroke="black" stroke-width="0.044999998" stroke-miterlimit="4" transform="matrix(14.6985 0 -0 -14.6985 -17450 27161.8)" cx="1201.1367" cy="1812.3312" rx="0.18005371" ry="0.18005371"/>
	<ellipse fill="none" stroke="black" stroke-width="0.044999998" stroke-miterlimit="4" transform="matrix(14.6985 0 -0 -14.6985 -17450 27161.8)" cx="1267.6162" cy="1821.3838" rx="0.18005371" ry="0.18005371"/>
	<ellipse fill="none" stroke="black" stroke-width="0.044999998" stroke-miterlimit="4" transform="matrix(14.6985 0 -0 -14.6985 -17450 27161.8)" cx="1271.5131" cy="1821.2279" rx="0.18005371" ry="0.18005371"/>
	<ellipse fill="none" stroke="black" stroke-width="0.044999998" stroke-miterlimit="4" transform="matrix(14.6985 0 -0 -14.6985 -17450 27161.8)" cx="1274.4277" cy="1819.4553" rx="0.18005371" ry="0.18005371"/>
	<ellipse fill="none" stroke="black" stroke-width="0.044999998" stroke-miterlimit="4" transform="matrix(14.6985 0 -0 -14.6985 -17450 27161.8)" cx="1276.3616" cy="1816.0686" rx="0.18005371" ry="0.18005371"/>
	<ellipse fill="none" stroke="black" stroke-width="0.044999998" stroke-miterlimit="4" transform="matrix(14.6985 0 -0 -14.6985 -17450 27161.8)" cx="1263.6154" cy="1818.9412" rx="0.18005371" ry="0.18005371"/>
	<ellipse fill="none" stroke="black" stroke-width="0.044999998" stroke-miterlimit="4" transform="matrix(14.6985 0 -0 -14.6985 -17450 27161.8)" cx="1259.7184" cy="1819.0966" rx="0.18005371" ry="0.18005371"/>
	<ellipse fill="none" stroke="black" stroke-width="0.044999998" stroke-miterlimit="4" transform="matrix(14.6985 0 -0 -14.6985 -17450 27161.8)" cx="1255.8215" cy="1819.252" rx="0.18005371" ry="0.18005371"/>
	<ellipse fill="none" stroke="black" stroke-width="0.044999998" stroke-miterlimit="4" transform="matrix(14.6985 0 -0 -14.6985 -17450 27161.8)" cx="1251.9246" cy="1819.4075" rx="0.18005371" ry="0.18005371"/>
	<ellipse fill="none" stroke="black" stroke-width="0.044999998" stroke-miterlimit="4" transform="matrix(14.6985 0 -0 -14.6985 -17450 27161.8)" cx="1248.0277" cy="1819.5629" rx="0.18005371" ry="0.18005371"/>
	<ellipse fill="none" stroke="black" stroke-width="0.044999998" stroke-miterlimit="4" transform="matrix(14.6985 0 -0 -14.6985 -17450 27161.8)" cx="1244.1309" cy="1819.7183" rx="0.18005371" ry="0.18005371"/>
	<ellipse fill="none" stroke="black" stroke-width="0.044999998" stroke-miterlimit="4" transform="matrix(14.6985 0 -0 -14.6985 -17450 27161.8)" cx="1240.2339" cy="1819.8737" rx="0.18005371" ry="0.18005371"/>
	<ellipse fill="none" stroke="black" stroke-width="0.044999998" stroke-miterlimit="4" transform="matrix(14.6985 0 -0 -14.6985 -17450 27161.8)" cx="1236.3525" cy="1819.6624" rx="0.18005371" ry="0.18005371"/>
	<ellipse fill="none" stroke="black" stroke-width="0.044999998" stroke-miterlimit="4" transform="matrix(14.6985 0 -0 -14.6985 -17450 27161.8)" cx="1232.4828" cy="1819.1779" rx="0.18005371" ry="0.18005371"/>
	<ellipse fill="none" stroke="black" stroke-width="0.044999998" stroke-miterlimit="4" transform="matrix(14.6985 0 -0 -14.6985 -17450 27161.8)" cx="1228.6129" cy="1818.6935" rx="0.18005371" ry="0.18005371"/>
	<ellipse fill="none" stroke="black" stroke-width="0.044999998" stroke-miterlimit="4" transform="matrix(14.6985 0 -0 -14.6985 -17450 27161.8)" cx="1224.7432" cy="1818.209" rx="0.18005371" ry="0.18005371"/>
	<ellipse fill="none" stroke="black" stroke-width="0.044999998" stroke-miterlimit="4" transform="matrix(14.6985 0 -0 -14.6985 -17450 27161.8)" cx="1220.8734" cy="1817.7245" rx="0.18005371" ry="0.18005371"/>
	<ellipse fill="none" stroke="black" stroke-width="0.044999998" stroke-miterlimit="4" transform="matrix(14.6985 0 -0 -14.6985 -17450 27161.8)" cx="1217.0035" cy="1817.24" rx="0.18005371" ry="0.18005371"/>
	<ellipse fill="none" stroke="black" stroke-width="0.044999998" stroke-miterlimit="4" transform="matrix(14.6985 0 -0 -14.6985 -17450 27161.8)" cx="1213.1338" cy="1816.7555" rx="0.18005371" ry="0.18005371"/>
	<ellipse fill="none" stroke="black" stroke-width="0.044999998" stroke-miterlimit="4" transform="matrix(14.6985 0 -0 -14.6985 -17450 27161.8)" cx="1209.264" cy="1816.271" rx="0.18005371" ry="0.18005371"/>
	<ellipse fill="none" stroke="black" stroke-width="0.044999998" stroke-miterlimit="4" transform="matrix(14.6985 0 -0 -14.6985 -17450 27161.8)" cx="1206.1183" cy="1814.8112" rx="0.18005371" ry="0.18005371"/>
	<ellipse fill="none" stroke="black" stroke-width="0.044999998" stroke-miterlimit="4" transform="matrix(14.6985 0 -0 -14.6985 -17450 27161.8)" cx="1203.9539" cy="1811.6136" rx="0.18005371" ry="0.18005371"/>
	<ellipse fill="none" stroke="black" stroke-width="0.044999998" stroke-miterlimit="4" transform="matrix(14.6985 0 -0 -14.6985 -17450 27161.8)" cx="1201.4178" cy="1808.6509" rx="0.18005371" ry="0.18005371"/>
	<ellipse fill="none" stroke="black" stroke-width="0.044999998" stroke-miterlimit="4" transform="matrix(14.6985 0 -0 -14.6985 -17450 27161.8)" cx="1267.5122" cy="1818.7858" rx="0.18005371" ry="0.18005371"/>
	<ellipse fill="none" stroke="black" stroke-width="0.044999998" stroke-miterlimit="4" transform="matrix(14.6985 0 -0 -14.6985 -17450 27161.8)" cx="1271.4091" cy="1818.6304" rx="0.18005371" ry="0.18005371"/>
	<ellipse fill="none" stroke="black" stroke-width="0.044999998" stroke-miterlimit="4" transform="matrix(14.6985 0 -0 -14.6985 -17450 27161.8)" cx="1273.5991" cy="1815.6665" rx="0.18005371" ry="0.18005371"/>
	<ellipse fill="none" stroke="black" stroke-width="0.044999998" stroke-miterlimit="4" transform="matrix(14.6985 0 -0 -14.6985 -17450 27161.8)" cx="1263.5117" cy="1816.3429" rx="0.18005371" ry="0.18005371"/>
	<ellipse fill="none" stroke="black" stroke-width="0.044999998" stroke-miterlimit="4" transform="matrix(14.6985 0 -0 -14.6985 -17450 27161.8)" cx="1259.6147" cy="1816.4978" rx="0.18005371" ry="0.18005371"/>
	<ellipse fill="none" stroke="black" stroke-width="0.044999998" stroke-miterlimit="4" transform="matrix(14.6985 0 -0 -14.6985 -17450 27161.8)" cx="1255.7179" cy="1816.6526" rx="0.18005371" ry="0.18005371"/>
	<ellipse fill="none" stroke="black" stroke-width="0.044999998" stroke-miterlimit="4" transform="matrix(14.6985 0 -0 -14.6985 -17450 27161.8)" cx="1251.8209" cy="1816.8075" rx="0.18005371" ry="0.18005371"/>
	<ellipse fill="none" stroke="black" stroke-width="0.044999998" stroke-miterlimit="4" transform="matrix(14.6985 0 -0 -14.6985 -17450 27161.8)" cx="1247.924" cy="1816.9623" rx="0.18005371" ry="0.18005371"/>
	<ellipse fill="none" stroke="black" stroke-width="0.044999998" stroke-miterlimit="4" transform="matrix(14.6985 0 -0 -14.6985 -17450 27161.8)" cx="1244.0271" cy="1817.1172" rx="0.18005371" ry="0.18005371"/>
	<ellipse fill="none" stroke="black" stroke-width="0.044999998" stroke-miterlimit="4" transform="matrix(14.6985 0 -0 -14.6985 -17450 27161.8)" cx="1240.1301" cy="1817.272" rx="0.18005371" ry="0.18005371"/>
	<ellipse fill="none" stroke="black" stroke-width="0.044999998" stroke-miterlimit="4" transform="matrix(14.6985 0 -0 -14.6985 -17450 27161.8)" cx="1236.2502" cy="1817.027" rx="0.18005371" ry="0.18005371"/>
	<ellipse fill="none" stroke="black" stroke-width="0.044999998" stroke-miterlimit="4" transform="matrix(14.6985 0 -0 -14.6985 -17450 27161.8)" cx="1232.3804" cy="1816.5425" rx="0.18005371" ry="0.18005371"/>
	<ellipse fill="none" stroke="black" stroke-width="0.044999998" stroke-miterlimit="4" transform="matrix(14.6985 0 -0 -14.6985 -17450 27161.8)" cx="1228.5106" cy="1816.058" rx="0.18005371" ry="0.18005371"/>
	<ellipse fill="none" stroke="black" stroke-width="0.044999998" stroke-miterlimit="4" transform="matrix(14.6985 0 -0 -14.6985 -17450 27161.8)" cx="1224.6409" cy="1815.5735" rx="0.18005371" ry="0.18005371"/>
	<ellipse fill="none" stroke="black" stroke-width="0.044999998" stroke-miterlimit="4" transform="matrix(14.6985 0 -0 -14.6985 -17450 27161.8)" cx="1220.771" cy="1815.089" rx="0.18005371" ry="0.18005371"/>
	<ellipse fill="none" stroke="black" stroke-width="0.044999998" stroke-miterlimit="4" transform="matrix(14.6985 0 -0 -14.6985 -17450 27161.8)" cx="1216.9012" cy="1814.6044" rx="0.18005371" ry="0.18005371"/>
	<ellipse fill="none" stroke="black" stroke-width="0.044999998" stroke-miterlimit="4" transform="matrix(14.6985 0 -0 -14.6985 -17450 27161.8)" cx="1213.0315" cy="1814.1199" rx="0.18005371" ry="0.18005371"/>
	<ellipse fill="none" stroke="black" stroke-width="0.044999998" stroke-miterlimit="4" transform="matrix(14.6985 0 -0 -14.6985 -17450 27161.8)" cx="1209.1617" cy="1813.6354" rx="0.18005371" ry="0.18005371"/>
	<ellipse fill="none" stroke="black" stroke-width="0.044999998" stroke-miterlimit="4" transform="matrix(14.6985 0 -0 -14.6985 -17450 27161.8)" cx="1206.7709" cy="1810.9032" rx="0.18005371" ry="0.18005371"/>
	<ellipse fill="none" stroke="black" stroke-width="0.044999998" stroke-miterlimit="4" transform="matrix(14.6985 0 -0 -14.6985 -17450 27161.8)" cx="1204.2319" cy="1807.9427" rx="0.18005371" ry="0.18005371"/>
	<ellipse fill="none" stroke="black" stroke-width="0.044999998" stroke-miterlimit="4" transform="matrix(14.6985 0 -0 -14.6985 -17450 27161.8)" cx="1267.4086" cy="1816.1881" rx="0.18005371" ry="0.18005371"/>
	<ellipse fill="none" stroke="black" stroke-width="0.044999998" stroke-miterlimit="4" transform="matrix(14.6985 0 -0 -14.6985 -17450 27161.8)" cx="1270.8385" cy="1815.2651" rx="0.18005371" ry="0.18005371"/>
</svg>
