<?xml version="1.0" encoding="utf-8" ?>
<svg xmlns="http://www.w3.org/2000/svg" xmlns:xlink="http://www.w3.org/1999/xlink" width="1500" height="900">
	<rect fill="white" width="1500" height="900"/>
	<path fill="none" stroke="black" stroke-width="0.044999998" stroke-miterlimit="4" transform="matrix(26.8657 0 -0 -26.8657 -30304.6 28003.6)" d="M1181.04 1018.88L1181.04 1018.88L1130.8 1023.82L1140.45 1032.33L1171.89 1028.27L1181.04 1018.88Z"/>
	<path fill="none" stroke="gray" stroke-width="0.022499999" stroke-miterlimit="4" transform="matrix(26.8657 0 -0 -26.8657 -30304.6 28003.6)" d="M1139.35 1031.36L1139.35 1031.36L1130.8 1023.82L1181.04 1018.88L1173.12 1027L1139.35 1031.36Z"/>
	<path fill="none" stroke="gray" stroke-width="0.022499999" stroke-miterlimit="4" transform="matrix(26.8657 0 -0 -26.8657 -30304.6 28003.6)" d="M1137.65 1029.86L1137.65 1029.86L1130.8 1023.82L1181.04 1018.88L1175.03 1025.03L1137.65 1029.86Z"/>
	<path fill="none" stroke="gray" stroke-width="0.022499999" stroke-miterlimit="4" transform="matrix(26.8657 0 -0 -26.8657 -30304.6 28003.6)" d="M1135.06 1027.58L1135.06 1027.58L1130.8 1023.82L1181.04 1018.88L1177.95 1022.04L1135.06 1027.58Z"/>
	<path fill="none" stroke="gray" stroke-width="0.022499999" stroke-miterlimit="4" transform="matrix(26.8657 0 -0 -26.8657 -30304.6 28003.6)" d="M1132.46 1025.29L1132.46 1025.29L1130.8 1023.82L1181.04 1018.88L1180.88 1019.04L1132.46 1025.29Z"/>
	<ellipse fill="none" stroke="red" stroke-width="0.044999998" stroke-miterlimit="4" transform="matrix(26.8657 0 -0 -26.8657 -30304.6 28003.6)" cx="1140.453" cy="1032.33" rx="0.18005371" ry="0.18005371"/>
	<ellipse fill="none" stroke="red" stroke-width="0.044999998" stroke-miterlimit="4" transform="matrix(26.8657 0 -0 -26.8657 -30304.6 28003.6)" cx="1141.3512" cy="1032.2141" rx="0.18005371" ry="0.18005371"/>
	<ellipse fill="none" stroke="red" stroke-width="0.044999998" stroke-miterlimit="4" transform="matrix(26.8657 0 -0 -26.8657 -30304.6 28003.6)" cx="1142.2494" cy="1032.0981" rx="0.18005371" ry="0.18005371"/>
	<ellipse fill="none" stroke="red" stroke-width="0.044999998" stroke-miterlimit="4" transform="matrix(26.8657 0 -0 -26.8657 -30304.6 28003.6)" cx="1143.1476" cy="1031.9822" rx="0.18005371" ry="0.18005371"/>
	<ellipse fill="none" stroke="red" stroke-width="0.044999998" stroke-miterlimit="4" transform="matrix(26.8657 0 -0 -26.8657 -30304.6 28003.6)" cx="1144.0457" cy="1031.8662" rx="0.18005371" ry="0.18005371"/>
	<ellipse fill="none" stroke="red" stroke-width="0.044999998" stroke-miterlimit="4" transform="matrix(26.8657 0 -0 -26.8657 -30304.6 28003.6)" cx="1144.9438" cy="1031.7502" rx="0.18005371" ry="0.18005371"/>
	<ellipse fill="none" stroke="red" stroke-width="0.044999998" stroke-miterlimit="4" transform="matrix(26.8657 0 -0 -26.8657 -30304.6 28003.6)" cx="1145.842" cy="1031.6344" rx="0.18005371" ry="0.18005371"/>
	<ellipse fill="none" stroke="red" stroke-width="0.044999998" stroke-miterlimit="4" transform="matrix(26.8657 0 -0 -26.8657 -30304.6 28003.6)" cx="1146.7402" cy="1031.5184" rx="0.18005371" ry="0.18005371"/>
	<ellipse fill="none" stroke="red" stroke-width="0.044999998" stroke-miterlimit="4" transform="matrix(26.8657 0 -0 -26.8657 -30304.6 28003.6)" cx="1147.6384" cy="1031.4025" rx="0.18005371" ry="0.18005371"/>
	<ellipse fill="none" stroke="red" stroke-width="0.044999998" stroke-miterlimit="4" transform="matrix(26.8657 0 -0 -26.8657 -30304.6 28003.6)" cx="1148.5365" cy="1031.2865" rx="0.18005371" ry="0.18005371"/>
	<ellipse fill="none" stroke="red" stroke-width="0.044999998" stroke-miterlimit="4" transform="matrix(26.8657 0 -0 -26.8657 -30304.6 28003.6)" cx="1149.4347" cy="1031.1705" rx="0.18005371" ry="0.18005371"/>
	<ellipse fill="none" stroke="red" stroke-width="0.044999998" stroke-miterlimit="4" transform="matrix(26.8657 0 -0 -26.8657 -30304.6 28003.6)" cx="1150.3329" cy="1031.0547" rx="0.18005371" ry="0.18005371"/>
	<ellipse fill="none" stroke="red" stroke-width="0.044999998" stroke-miterlimit="4" transform="matrix(26.8657 0 -0 -26.8657 -30304.6 28003.6)" cx="1151.2311" cy="1030.9387" rx="0.18005371" ry="0.18005371"/>
	<ellipse fill="none" stroke="red" stroke-width="0.044999998" stroke-miterlimit="4" transform="matrix(26.8657 0 -0 -26.8657 -30304.6 28003.6)" cx="1152.1293" cy="1030.8228" rx="0.18005371" ry="0.18005371"/>
	<ellipse fill="none" stroke="red" stroke-width="0.044999998" stroke-miterlimit="4" transform="matrix(26.8657 0 -0 -26.8657 -30304.6 28003.6)" cx="1153.0273" cy="1030.7068" rx="0.18005371" ry="0.18005371"/>
	<ellipse fill="none" stroke="red" stroke-width="0.044999998" stroke-miterlimit="4" transform="matrix(26.8657 0 -0 -26.8657 -30304.6 28003.6)" cx="1153.9255" cy="1030.5908" rx="0.18005371" ry="0.18005371"/>
	<ellipse fill="none" stroke="red" stroke-width="0.044999998" stroke-miterlimit="4" transform="matrix(26.8657 0 -0 -26.8657 -30304.6 28003.6)" cx="1154.8237" cy="1030.475" rx="0.18005371" ry="0.18005371"/>
	<ellipse fill="none" stroke="red" stroke-width="0.044999998" stroke-miterlimit="4" transform="matrix(26.8657 0 -0 -26.8657 -30304.6 28003.6)" cx="1155.7219" cy="1030.359" rx="0.18005371" ry="0.18005371"/>
	<ellipse fill="none" stroke="red" stroke-width="0.044999998" stroke-miterlimit="4" transform="matrix(26.8657 0 -0 -26.8657 -30304.6 28003.6)" cx="1156.6201" cy="1030.243" rx="0.18005371" ry="0.18005371"/>
	<ellipse fill="none" stroke="red" stroke-width="0.044999998" stroke-miterlimit="4" transform="matrix(26.8657 0 -0 -26.8657 -30304.6 28003.6)" cx="1157.5183" cy="1030.1271" rx="0.18005371" ry="0.18005371"/>
	<ellipse fill="none" stroke="red" stroke-width="0.044999998" stroke-miterlimit="4" transform="matrix(26.8657 0 -0 -26.8657 -30304.6 28003.6)" cx="1158.4164" cy="1030.0111" rx="0.18005371" ry="0.18005371"/>
	<ellipse fill="none" stroke="red" stroke-width="0.044999998" stroke-miterlimit="4" transform="matrix(26.8657 0 -0 -26.8657 -30304.6 28003.6)" cx="1159.3146" cy="1029.8953" rx="0.18005371" ry="0.18005371"/>
	<ellipse fill="none" stroke="red" stroke-width="0.044999998" stroke-miterlimit="4" transform="matrix(26.8657 0 -0 -26.8657 -30304.6 28003.6)" cx="1160.2128" cy="1029.7793" rx="0.18005371" ry="0.18005371"/>
	<ellipse fill="none" stroke="red" stroke-width="0.044999998" stroke-miterlimit="4" transform="matrix(26.8657 0 -0 -26.8657 -30304.6 28003.6)" cx="1161.111" cy="1029.6633" rx="0.18005371" ry="0.18005371"/>
	<ellipse fill="none" stroke="red" stroke-width="0.044999998" stroke-miterlimit="4" transform="matrix(26.8657 0 -0 -26.8657 -30304.6 28003.6)" cx="1162.0092" cy="1029.5474" rx="0.18005371" ry="0.18005371"/>
	<ellipse fill="none" stroke="red" stroke-width="0.044999998" stroke-miterlimit="4" transform="matrix(26.8657 0 -0 -26.8657 -30304.6 28003.6)" cx="1162.9072" cy="1029.4314" rx="0.18005371" ry="0.18005371"/>
	<ellipse fill="none" stroke="red" stroke-width="0.044999998" stroke-miterlimit="4" transform="matrix(26.8657 0 -0 -26.8657 -30304.6 28003.6)" cx="1163.8054" cy="1029.3154" rx="0.18005371" ry="0.18005371"/>
	<ellipse fill="none" stroke="red" stroke-width="0.044999998" stroke-miterlimit="4" transform="matrix(26.8657 0 -0 -26.8657 -30304.6 28003.6)" cx="1164.7036" cy="1029.1996" rx="0.18005371" ry="0.18005371"/>
	<ellipse fill="none" stroke="red" stroke-width="0.044999998" stroke-miterlimit="4" transform="matrix(26.8657 0 -0 -26.8657 -30304.6 28003.6)" cx="1165.6018" cy="1029.0836" rx="0.18005371" ry="0.18005371"/>
	<ellipse fill="none" stroke="red" stroke-width="0.044999998" stroke-miterlimit="4" transform="matrix(26.8657 0 -0 -26.8657 -30304.6 28003.6)" cx="1166.5" cy="1028.9677" rx="0.18005371" ry="0.18005371"/>
	<ellipse fill="none" stroke="red" stroke-width="0.044999998" stroke-miterlimit="4" transform="matrix(26.8657 0 -0 -26.8657 -30304.6 28003.6)" cx="1167.3981" cy="1028.8517" rx="0.18005371" ry="0.18005371"/>
	<ellipse fill="none" stroke="red" stroke-width="0.044999998" stroke-miterlimit="4" transform="matrix(26.8657 0 -0 -26.8657 -30304.6 28003.6)" cx="1168.2963" cy="1028.7357" rx="0.18005371" ry="0.18005371"/>
	<ellipse fill="none" stroke="red" stroke-width="0.044999998" stroke-miterlimit="4" transform="matrix(26.8657 0 -0 -26.8657 -30304.6 28003.6)" cx="1169.1945" cy="1028.6199" rx="0.18005371" ry="0.18005371"/>
	<ellipse fill="none" stroke="red" stroke-width="0.044999998" stroke-miterlimit="4" transform="matrix(26.8657 0 -0 -26.8657 -30304.6 28003.6)" cx="1170.0927" cy="1028.5039" rx="0.18005371" ry="0.18005371"/>
	<ellipse fill="none" stroke="red" stroke-width="0.044999998" stroke-miterlimit="4" transform="matrix(26.8657 0 -0 -26.8657 -30304.6 28003.6)" cx="1170.9908" cy="1028.3879" rx="0.18005371" ry="0.18005371"/>
	<ellipse fill="none" stroke="red" stroke-width="0.044999998" stroke-miterlimit="4" transform="matrix(26.8657 0 -0 -26.8657 -30304.6 28003.6)" cx="1171.8889" cy="1028.272" rx="0.18005371" ry="0.18005371"/>
	<ellipse fill="none" stroke="purple" stroke-width="0.044999998" stroke-miterlimit="4" transform="matrix(26.8657 0 -0 -26.8657 -30304.6 28003.6)" cx="1173.12" cy="1027" rx="0.18005371" ry="0.18005371"/>
	<ellipse fill="none" stroke="purple" stroke-width="0.044999998" stroke-miterlimit="4" transform="matrix(26.8657 0 -0 -26.8657 -30304.6 28003.6)" cx="1170.5223" cy="1027.3353" rx="0.18005371" ry="0.18005371"/>
	<ellipse fill="none" stroke="purple" stroke-width="0.044999998" stroke-miterlimit="4" transform="matrix(26.8657 0 -0 -26.8657 -30304.6 28003.6)" cx="1167.9246" cy="1027.6708" rx="0.18005371" ry="0.18005371"/>
	<ellipse fill="none" stroke="purple" stroke-width="0.044999998" stroke-miterlimit="4" transform="matrix(26.8657 0 -0 -26.8657 -30304.6 28003.6)" cx="1165.3269" cy="1028.0061" rx="0.18005371" ry="0.18005371"/>
	<ellipse fill="none" stroke="purple" stroke-width="0.044999998" stroke-miterlimit="4" transform="matrix(26.8657 0 -0 -26.8657 -30304.6 28003.6)" cx="1162.7292" cy="1028.3416" rx="0.18005371" ry="0.18005371"/>
	<ellipse fill="none" stroke="purple" stroke-width="0.044999998" stroke-miterlimit="4" transform="matrix(26.8657 0 -0 -26.8657 -30304.6 28003.6)" cx="1160.1316" cy="1028.6769" rx="0.18005371" ry="0.18005371"/>
	<ellipse fill="none" stroke="purple" stroke-width="0.044999998" stroke-miterlimit="4" transform="matrix(26.8657 0 -0 -26.8657 -30304.6 28003.6)" cx="1157.5338" cy="1029.0123" rx="0.18005371" ry="0.18005371"/>
	<ellipse fill="none" stroke="purple" stroke-width="0.044999998" stroke-miterlimit="4" transform="matrix(26.8657 0 -0 -26.8657 -30304.6 28003.6)" cx="1154.9362" cy="1029.3477" rx="0.18005371" ry="0.18005371"/>
	<ellipse fill="none" stroke="purple" stroke-width="0.044999998" stroke-miterlimit="4" transform="matrix(26.8657 0 -0 -26.8657 -30304.6 28003.6)" cx="1152.3385" cy="1029.6831" rx="0.18005371" ry="0.18005371"/>
	<ellipse fill="none" stroke="purple" stroke-width="0.044999998" stroke-miterlimit="4" transform="matrix(26.8657 0 -0 -26.8657 -30304.6 28003.6)" cx="1149.7407" cy="1030.0184" rx="0.18005371" ry="0.18005371"/>
	<ellipse fill="none" stroke="purple" stroke-width="0.044999998" stroke-miterlimit="4" transform="matrix(26.8657 0 -0 -26.8657 -30304.6 28003.6)" cx="1147.1431" cy="1030.3539" rx="0.18005371" ry="0.18005371"/>
	<ellipse fill="none" stroke="purple" stroke-width="0.044999998" stroke-miterlimit="4" transform="matrix(26.8657 0 -0 -26.8657 -30304.6 28003.6)" cx="1144.5454" cy="1030.6892" rx="0.18005371" ry="0.18005371"/>
	<ellipse fill="none" stroke="purple" stroke-width="0.044999998" stroke-miterlimit="4" transform="matrix(26.8657 0 -0 -26.8657 -30304.6 28003.6)" cx="1141.9476" cy="1031.0247" rx="0.18005371" ry="0.18005371"/>
	<ellipse fill="none" stroke="purple" stroke-width="0.044999998" stroke-miterlimit="4" transform="matrix(26.8657 0 -0 -26.8657 -30304.6 28003.6)" cx="1139.35" cy="1031.36" rx="0.18005371" ry="0.18005371"/>
	<ellipse fill="none" stroke="black" stroke-width="0.044999998" stroke-miterlimit="4" transform="matrix(26.8657 0 -0 -26.8657 -30304.6 28003.6)" cx="1175.03" cy="1025.03" rx="0.18005371" ry="0.18005371"/>
	<ellipse fill="none" stroke="black" stroke-width="0.044999998" stroke-miterlimit="4" transform="matrix(26.8657 0 -0 -26.8657 -30304.6 28003.6)" cx="1171.292" cy="1025.5129" rx="0.18005371" ry="0.18005371"/>
	<ellipse fill="none" stroke="black" stroke-width="0.044999998" stroke-miterlimit="4" transform="matrix(26.8657 0 -0 -26.8657 -30304.6 28003.6)" cx="1167.554" cy="1025.996" rx="0.18005371" ry="0.18005371"/>
	<ellipse fill="none" stroke="black" stroke-width="0.044999998" stroke-miterlimit="4" transform="matrix(26.8657 0 -0 -26.8657 -30304.6 28003.6)" cx="1163.816" cy="1026.479" rx="0.18005371" ry="0.18005371"/>
	<ellipse fill="none" stroke="black" stroke-width="0.044999998" stroke-miterlimit="4" transform="matrix(26.8657 0 -0 -26.8657 -30304.6 28003.6)" cx="1160.078" cy="1026.962" rx="0.18005371" ry="0.18005371"/>
	<ellipse fill="none" stroke="black" stroke-width="0.044999998" stroke-miterlimit="4" transform="matrix(26.8657 0 -0 -26.8657 -30304.6 28003.6)" cx="1156.34" cy="1027.4449" rx="0.18005371" ry="0.18005371"/>
	<ellipse fill="none" stroke="black" stroke-width="0.044999998" stroke-miterlimit="4" transform="matrix(26.8657 0 -0 -26.8657 -30304.6 28003.6)" cx="1152.6021" cy="1027.928" rx="0.18005371" ry="0.18005371"/>
	<ellipse fill="none" stroke="black" stroke-width="0.044999998" stroke-miterlimit="4" transform="matrix(26.8657 0 -0 -26.8657 -30304.6 28003.6)" cx="1148.864" cy="1028.411" rx="0.18005371" ry="0.18005371"/>
	<ellipse fill="none" stroke="black" stroke-width="0.044999998" stroke-miterlimit="4" transform="matrix(26.8657 0 -0 -26.8657 -30304.6 28003.6)" cx="1145.126" cy="1028.894" rx="0.18005371" ry="0.18005371"/>
	<ellipse fill="none" stroke="black" stroke-width="0.044999998" stroke-miterlimit="4" transform="matrix(26.8657 0 -0 -26.8657 -30304.6 28003.6)" cx="1141.3879" cy="1029.377" rx="0.18005371" ry="0.18005371"/>
	<ellipse fill="none" stroke="black" stroke-width="0.044999998" stroke-miterlimit="4" transform="matrix(26.8657 0 -0 -26.8657 -30304.6 28003.6)" cx="1137.65" cy="1029.86" rx="0.18005371" ry="0.18005371"/>
	<ellipse fill="none" stroke="black" stroke-width="0.044999998" stroke-miterlimit="4" transform="matrix(26.8657 0 -0 -26.8657 -30304.6 28003.6)" cx="1177.95" cy="1022.04" rx="0.18005371" ry="0.17999268"/>
	<ellipse fill="none" stroke="black" stroke-width="0.044999998" stroke-miterlimit="4" transform="matrix(26.8657 0 -0 -26.8657 -30304.6 28003.6)" cx="1174.0509" cy="1022.5436" rx="0.18005371" ry="0.17999268"/>
	<ellipse fill="none" stroke="black" stroke-width="0.044999998" stroke-miterlimit="4" transform="matrix(26.8657 0 -0 -26.8657 -30304.6 28003.6)" cx="1170.1519" cy="1023.0473" rx="0.18005371" ry="0.17999268"/>
	<ellipse fill="none" stroke="black" stroke-width="0.044999998" stroke-miterlimit="4" transform="matrix(26.8657 0 -0 -26.8657 -30304.6 28003.6)" cx="1166.2527" cy="1023.5509" rx="0.18005371" ry="0.17999268"/>
	<ellipse fill="none" stroke="black" stroke-width="0.044999998" stroke-miterlimit="4" transform="matrix(26.8657 0 -0 -26.8657 -30304.6 28003.6)" cx="1162.3536" cy="1024.0546" rx="0.18005371" ry="0.18002319"/>
	<ellipse fill="none" stroke="black" stroke-width="0.044999998" stroke-miterlimit="4" transform="matrix(26.8657 0 -0 -26.8657 -30304.6 28003.6)" cx="1158.4546" cy="1024.5582" rx="0.18005371" ry="0.18005371"/>
	<ellipse fill="none" stroke="black" stroke-width="0.044999998" stroke-miterlimit="4" transform="matrix(26.8657 0 -0 -26.8657 -30304.6 28003.6)" cx="1154.5554" cy="1025.0618" rx="0.18005371" ry="0.18005371"/>
	<ellipse fill="none" stroke="black" stroke-width="0.044999998" stroke-miterlimit="4" transform="matrix(26.8657 0 -0 -26.8657 -30304.6 28003.6)" cx="1150.6564" cy="1025.5654" rx="0.18005371" ry="0.18005371"/>
	<ellipse fill="none" stroke="black" stroke-width="0.044999998" stroke-miterlimit="4" transform="matrix(26.8657 0 -0 -26.8657 -30304.6 28003.6)" cx="1146.7573" cy="1026.0691" rx="0.18005371" ry="0.18005371"/>
	<ellipse fill="none" stroke="black" stroke-width="0.044999998" stroke-miterlimit="4" transform="matrix(26.8657 0 -0 -26.8657 -30304.6 28003.6)" cx="1142.8582" cy="1026.5728" rx="0.18005371" ry="0.18005371"/>
	<ellipse fill="none" stroke="black" stroke-width="0.044999998" stroke-miterlimit="4" transform="matrix(26.8657 0 -0 -26.8657 -30304.6 28003.6)" cx="1138.9591" cy="1027.0764" rx="0.18005371" ry="0.18005371"/>
	<ellipse fill="none" stroke="black" stroke-width="0.044999998" stroke-miterlimit="4" transform="matrix(26.8657 0 -0 -26.8657 -30304.6 28003.6)" cx="1135.0601" cy="1027.58" rx="0.18005371" ry="0.18005371"/>
	<ellipse fill="none" stroke="black" stroke-width="0.044999998" stroke-miterlimit="4" transform="matrix(26.8657 0 -0 -26.8657 -30304.6 28003.6)" cx="1151.0831" cy="1022.8862" rx="0.18005371" ry="0.17999268"/>
	<ellipse fill="none" stroke="black" stroke-width="0.044999998" stroke-miterlimit="4" transform="matrix(26.8657 0 -0 -26.8657 -30304.6 28003.6)" cx="1147.3585" cy="1023.3669" rx="0.18005371" ry="0.17999268"/>
	<ellipse fill="none" stroke="black" stroke-width="0.044999998" stroke-miterlimit="4" transform="matrix(26.8657 0 -0 -26.8657 -30304.6 28003.6)" cx="1143.6338" cy="1023.8477" rx="0.18005371" ry="0.17999268"/>
	<ellipse fill="none" stroke="black" stroke-width="0.044999998" stroke-miterlimit="4" transform="matrix(26.8657 0 -0 -26.8657 -30304.6 28003.6)" cx="1139.9092" cy="1024.3285" rx="0.18005371" ry="0.18005371"/>
	<ellipse fill="none" stroke="black" stroke-width="0.044999998" stroke-miterlimit="4" transform="matrix(26.8657 0 -0 -26.8657 -30304.6 28003.6)" cx="1136.1846" cy="1024.8092" rx="0.18005371" ry="0.18005371"/>
	<ellipse fill="none" stroke="black" stroke-width="0.044999998" stroke-miterlimit="4" transform="matrix(26.8657 0 -0 -26.8657 -30304.6 28003.6)" cx="1132.46" cy="1025.29" rx="0.18005371" ry="0.18005371"/>
</svg>
