<?xml version="1.0" encoding="utf-8" ?>
<svg xmlns="http://www.w3.org/2000/svg" xmlns:xlink="http://www.w3.org/1999/xlink" width="1500" height="900">
	<rect fill="white" width="1500" height="900"/>
	<path fill="none" stroke="black" stroke-width="0.044999998" stroke-miterlimit="4" transform="matrix(26.8657 0 -0 -26.8657 -30304.6 28003.6)" d="M1147.55 1017.53L1147.55 1019.15"/>
	<path fill="none" stroke="black" stroke-width="0.044999998" stroke-miterlimit="4" transform="matrix(26.8657 0 -0 -26.8657 -30304.6 28003.6)" d="M1147.55 1032.06L1147.55 1033.68"/>
	<path fill="none" stroke="black" stroke-width="0.044999998" stroke-miterlimit="4" transform="matrix(26.8657 0 -0 -26.8657 -30304.6 28003.6)" d="M1155.92 1017.53L1155.92 1019.15"/>
	<path fill="none" stroke="black" stroke-width="0.044999998" stroke-miterlimit="4" transform="matrix(26.8657 0 -0 -26.8657 -30304.6 28003.6)" d="M1155.92 1032.06L1155.92 1033.68"/>
	<path fill="none" stroke="black" stroke-width="0.044999998" stroke-miterlimit="4" transform="matrix(26.8657 0 -0 -26.8657 -30304.6 28003.6)" d="M1164.29 1017.53L1164.29 1019.15"/>
	<path fill="none" stroke="black" stroke-width="0.044999998" stroke-miterlimit="4" transform="matrix(26.8657 0 -0 -26.8657 -30304.6 28003.6)" d="M1164.29 1032.06L1164.29 1033.68"/>
	<path fill="none" stroke="black" stroke-width="0.044999998" stroke-miterlimit="4" transform="matrix(26.8657 0 -0 -26.8657 -30304.6 28003.6)" d="M1181.04 1018.88L1181.04 1018.88L1130.8 1023.82L1140.45 1032.33L1171.89 1028.27L1181.04 1018.88Z"/>
	<path fill="none" stroke="gray" stroke-width="0.022499999" stroke-miterlimit="4" transform="matrix(26.8657 0 -0 -26.8657 -30304.6 28003.6)" d="M1134.33 1023.47L1134.33 1023.47L1177.01 1019.27L1170.65 1025.8L1141.28 1029.59L1134.33 1023.47Z"/>
	<path fill="none" stroke="gray" stroke-width="0.022499999" stroke-miterlimit="4" transform="matrix(26.8657 0 -0 -26.8657 -30304.6 28003.6)" d="M1137.86 1023.12L1137.86 1023.12L1173.01 1019.66L1169.43 1023.34L1142.11 1026.86L1137.86 1023.12Z"/>
	<path fill="none" stroke="gray" stroke-width="0.022499999" stroke-miterlimit="4" transform="matrix(26.8657 0 -0 -26.8657 -30304.6 28003.6)" d="M1141.4 1022.77L1141.4 1022.77L1168.99 1020.05L1168.2 1020.87L1142.95 1024.13L1141.4 1022.77Z"/>
	<ellipse fill="none" stroke="black" stroke-width="0.044999998" stroke-miterlimit="4" transform="matrix(26.8657 0 -0 -26.8657 -30304.6 28003.6)" cx="1133.6809" cy="1026.3657" rx="0.18005371" ry="0.18005371"/>
	<ellipse fill="none" stroke="black" stroke-width="0.044999998" stroke-miterlimit="4" transform="matrix(26.8657 0 -0 -26.8657 -30304.6 28003.6)" cx="1136.5669" cy="1028.9073" rx="0.18005371" ry="0.18005371"/>
	<ellipse fill="none" stroke="black" stroke-width="0.044999998" stroke-miterlimit="4" transform="matrix(26.8657 0 -0 -26.8657 -30304.6 28003.6)" cx="1139.4528" cy="1031.449" rx="0.18005371" ry="0.18005371"/>
	<ellipse fill="none" stroke="black" stroke-width="0.044999998" stroke-miterlimit="4" transform="matrix(26.8657 0 -0 -26.8657 -30304.6 28003.6)" cx="1142.9449" cy="1032.0083" rx="0.18005371" ry="0.18005371"/>
	<ellipse fill="none" stroke="black" stroke-width="0.044999998" stroke-miterlimit="4" transform="matrix(26.8657 0 -0 -26.8657 -30304.6 28003.6)" cx="1146.7589" cy="1031.516" rx="0.18005371" ry="0.18005371"/>
	<ellipse fill="none" stroke="black" stroke-width="0.044999998" stroke-miterlimit="4" transform="matrix(26.8657 0 -0 -26.8657 -30304.6 28003.6)" cx="1150.5729" cy="1031.0237" rx="0.18005371" ry="0.18005371"/>
	<ellipse fill="none" stroke="black" stroke-width="0.044999998" stroke-miterlimit="4" transform="matrix(26.8657 0 -0 -26.8657 -30304.6 28003.6)" cx="1154.3867" cy="1030.5314" rx="0.18005371" ry="0.18005371"/>
	<ellipse fill="none" stroke="black" stroke-width="0.044999998" stroke-miterlimit="4" transform="matrix(26.8657 0 -0 -26.8657 -30304.6 28003.6)" cx="1158.2007" cy="1030.0389" rx="0.18005371" ry="0.18005371"/>
	<ellipse fill="none" stroke="black" stroke-width="0.044999998" stroke-miterlimit="4" transform="matrix(26.8657 0 -0 -26.8657 -30304.6 28003.6)" cx="1162.0146" cy="1029.5466" rx="0.18005371" ry="0.18005371"/>
	<ellipse fill="none" stroke="black" stroke-width="0.044999998" stroke-miterlimit="4" transform="matrix(26.8657 0 -0 -26.8657 -30304.6 28003.6)" cx="1165.8285" cy="1029.0543" rx="0.18005371" ry="0.18005371"/>
	<ellipse fill="none" stroke="black" stroke-width="0.044999998" stroke-miterlimit="4" transform="matrix(26.8657 0 -0 -26.8657 -30304.6 28003.6)" cx="1169.6425" cy="1028.562" rx="0.18005371" ry="0.18005371"/>
	<ellipse fill="none" stroke="black" stroke-width="0.044999998" stroke-miterlimit="4" transform="matrix(26.8657 0 -0 -26.8657 -30304.6 28003.6)" cx="1172.9922" cy="1027.1403" rx="0.18005371" ry="0.18005371"/>
	<ellipse fill="none" stroke="black" stroke-width="0.044999998" stroke-miterlimit="4" transform="matrix(26.8657 0 -0 -26.8657 -30304.6 28003.6)" cx="1175.6764" cy="1024.3865" rx="0.18005371" ry="0.18005371"/>
	<ellipse fill="none" stroke="black" stroke-width="0.044999998" stroke-miterlimit="4" transform="matrix(26.8657 0 -0 -26.8657 -30304.6 28003.6)" cx="1178.3607" cy="1021.6328" rx="0.18005371" ry="0.17999268"/>
	<ellipse fill="none" stroke="black" stroke-width="0.044999998" stroke-miterlimit="4" transform="matrix(26.8657 0 -0 -26.8657 -30304.6 28003.6)" cx="1174.2197" cy="1022.1348" rx="0.18005371" ry="0.17999268"/>
	<ellipse fill="none" stroke="black" stroke-width="0.044999998" stroke-miterlimit="4" transform="matrix(26.8657 0 -0 -26.8657 -30304.6 28003.6)" cx="1171.4294" cy="1024.9998" rx="0.18005371" ry="0.18005371"/>
	<ellipse fill="none" stroke="black" stroke-width="0.044999998" stroke-miterlimit="4" transform="matrix(26.8657 0 -0 -26.8657 -30304.6 28003.6)" cx="1167.7917" cy="1026.1688" rx="0.18005371" ry="0.18005371"/>
	<ellipse fill="none" stroke="black" stroke-width="0.044999998" stroke-miterlimit="4" transform="matrix(26.8657 0 -0 -26.8657 -30304.6 28003.6)" cx="1163.8256" cy="1026.6807" rx="0.18005371" ry="0.18005371"/>
	<ellipse fill="none" stroke="black" stroke-width="0.044999998" stroke-miterlimit="4" transform="matrix(26.8657 0 -0 -26.8657 -30304.6 28003.6)" cx="1159.8593" cy="1027.1925" rx="0.18005371" ry="0.18005371"/>
	<ellipse fill="none" stroke="black" stroke-width="0.044999998" stroke-miterlimit="4" transform="matrix(26.8657 0 -0 -26.8657 -30304.6 28003.6)" cx="1155.8931" cy="1027.7043" rx="0.18005371" ry="0.18005371"/>
	<ellipse fill="none" stroke="black" stroke-width="0.044999998" stroke-miterlimit="4" transform="matrix(26.8657 0 -0 -26.8657 -30304.6 28003.6)" cx="1151.9268" cy="1028.2161" rx="0.18005371" ry="0.18005371"/>
	<ellipse fill="none" stroke="black" stroke-width="0.044999998" stroke-miterlimit="4" transform="matrix(26.8657 0 -0 -26.8657 -30304.6 28003.6)" cx="1147.9606" cy="1028.7279" rx="0.18005371" ry="0.18005371"/>
	<ellipse fill="none" stroke="black" stroke-width="0.044999998" stroke-miterlimit="4" transform="matrix(26.8657 0 -0 -26.8657 -30304.6 28003.6)" cx="1143.9944" cy="1029.2397" rx="0.18005371" ry="0.18005371"/>
	<ellipse fill="none" stroke="black" stroke-width="0.044999998" stroke-miterlimit="4" transform="matrix(26.8657 0 -0 -26.8657 -30304.6 28003.6)" cx="1140.3326" cy="1028.7559" rx="0.18005371" ry="0.18005371"/>
	<ellipse fill="none" stroke="black" stroke-width="0.044999998" stroke-miterlimit="4" transform="matrix(26.8657 0 -0 -26.8657 -30304.6 28003.6)" cx="1137.3313" cy="1026.1129" rx="0.18005371" ry="0.18005371"/>
	<ellipse fill="none" stroke="black" stroke-width="0.044999998" stroke-miterlimit="4" transform="matrix(26.8657 0 -0 -26.8657 -30304.6 28003.6)" cx="1170.3364" cy="1022.4082" rx="0.18005371" ry="0.17999268"/>
	<ellipse fill="none" stroke="black" stroke-width="0.044999998" stroke-miterlimit="4" transform="matrix(26.8657 0 -0 -26.8657 -30304.6 28003.6)" cx="1166.9166" cy="1023.6638" rx="0.18005371" ry="0.17999268"/>
	<ellipse fill="none" stroke="black" stroke-width="0.044999998" stroke-miterlimit="4" transform="matrix(26.8657 0 -0 -26.8657 -30304.6 28003.6)" cx="1163.1139" cy="1024.1538" rx="0.18005371" ry="0.18002319"/>
	<ellipse fill="none" stroke="black" stroke-width="0.044999998" stroke-miterlimit="4" transform="matrix(26.8657 0 -0 -26.8657 -30304.6 28003.6)" cx="1159.3113" cy="1024.6437" rx="0.18005371" ry="0.18005371"/>
	<ellipse fill="none" stroke="black" stroke-width="0.044999998" stroke-miterlimit="4" transform="matrix(26.8657 0 -0 -26.8657 -30304.6 28003.6)" cx="1155.5085" cy="1025.1337" rx="0.18005371" ry="0.18005371"/>
	<ellipse fill="none" stroke="black" stroke-width="0.044999998" stroke-miterlimit="4" transform="matrix(26.8657 0 -0 -26.8657 -30304.6 28003.6)" cx="1151.7059" cy="1025.6237" rx="0.18005371" ry="0.18005371"/>
	<ellipse fill="none" stroke="black" stroke-width="0.044999998" stroke-miterlimit="4" transform="matrix(26.8657 0 -0 -26.8657 -30304.6 28003.6)" cx="1147.9032" cy="1026.1135" rx="0.18005371" ry="0.18005371"/>
	<ellipse fill="none" stroke="black" stroke-width="0.044999998" stroke-miterlimit="4" transform="matrix(26.8657 0 -0 -26.8657 -30304.6 28003.6)" cx="1144.1005" cy="1026.6035" rx="0.18005371" ry="0.18005371"/>
	<ellipse fill="none" stroke="black" stroke-width="0.044999998" stroke-miterlimit="4" transform="matrix(26.8657 0 -0 -26.8657 -30304.6 28003.6)" cx="1140.7383" cy="1025.653" rx="0.18005371" ry="0.18005371"/>
	<ellipse fill="none" stroke="black" stroke-width="0.044999998" stroke-miterlimit="4" transform="matrix(26.8657 0 -0 -26.8657 -30304.6 28003.6)" cx="1157.1475" cy="1022.297" rx="0.18005371" ry="0.17999268"/>
	<ellipse fill="none" stroke="black" stroke-width="0.044999998" stroke-miterlimit="4" transform="matrix(26.8657 0 -0 -26.8657 -30304.6 28003.6)" cx="1153.0868" cy="1022.8212" rx="0.18005371" ry="0.17999268"/>
	<ellipse fill="none" stroke="black" stroke-width="0.044999998" stroke-miterlimit="4" transform="matrix(26.8657 0 -0 -26.8657 -30304.6 28003.6)" cx="1149.0261" cy="1023.3455" rx="0.18005371" ry="0.17999268"/>
	<ellipse fill="none" stroke="black" stroke-width="0.044999998" stroke-miterlimit="4" transform="matrix(26.8657 0 -0 -26.8657 -30304.6 28003.6)" cx="1144.9656" cy="1023.8698" rx="0.18005371" ry="0.18002319"/>
</svg>
