<?xml version="1.0" encoding="utf-8" ?>
<svg xmlns="http://www.w3.org/2000/svg" xmlns:xlink="http://www.w3.org/1999/xlink" width="1500" height="900">
	<rect fill="white" width="1500" height="900"/>
	<path fill="none" stroke="black" stroke-width="0.044999998" stroke-miterlimit="4" transform="matrix(14.6985 0 -0 -14.6985 -17450 27161.8)" d="M1192.29 1814.3L1192.29 1814.3L1203.38 1804.78L1209.85 1812.32L1238.72 1815.93L1269.72 1814.71L1272.43 1810.7L1284.14 1818.6L1278.21 1828.97L1238.1 1830.57L1199.37 1825.72L1196.44 1819.14L1192.29 1814.3Z"/>
	<path fill="none" stroke="gray" stroke-width="0.022499999" stroke-miterlimit="4" transform="matrix(14.6985 0 -0 -14.6985 -17450 27161.8)" d="M1209.85 1812.32L1209.85 1812.32L1238.72 1815.93L1269.72 1814.71L1272.43 1810.7L1283.22 1817.99L1277.56 1827.89L1238.13 1829.46L1200.11 1824.7L1197.38 1818.55L1193.12 1813.58L1203.38 1804.78L1209.85 1812.32Z"/>
	<path fill="none" stroke="gray" stroke-width="0.022499999" stroke-miterlimit="4" transform="matrix(14.6985 0 -0 -14.6985 -17450 27161.8)" d="M1209.85 1812.32L1209.85 1812.32L1238.72 1815.93L1269.72 1814.71L1272.43 1810.7L1281.81 1817.03L1276.55 1826.23L1238.21 1827.76L1201.28 1823.13L1198.83 1817.63L1194.41 1812.46L1203.38 1804.78L1209.85 1812.32Z"/>
	<path fill="none" stroke="gray" stroke-width="0.022499999" stroke-miterlimit="4" transform="matrix(14.6985 0 -0 -14.6985 -17450 27161.8)" d="M1209.85 1812.32L1209.85 1812.32L1238.72 1815.93L1269.72 1814.71L1272.43 1810.7L1279.64 1815.56L1275 1823.68L1238.31 1825.15L1203.06 1820.73L1201.05 1816.22L1196.38 1810.77L1203.38 1804.78L1209.85 1812.32Z"/>
	<path fill="none" stroke="gray" stroke-width="0.022499999" stroke-miterlimit="4" transform="matrix(14.6985 0 -0 -14.6985 -17450 27161.8)" d="M1209.85 1812.32L1209.85 1812.32L1238.72 1815.93L1269.72 1814.71L1272.43 1810.7L1277.48 1814.11L1273.46 1821.15L1238.47 1822.55L1204.83 1818.34L1203.27 1814.82L1198.35 1809.08L1203.38 1804.78L1209.85 1812.32Z"/>
	<path fill="none" stroke="gray" stroke-width="0.022499999" stroke-miterlimit="4" transform="matrix(14.6985 0 -0 -14.6985 -17450 27161.8)" d="M1209.85 1812.32L1209.85 1812.32L1238.72 1815.93L1269.72 1814.71L1272.43 1810.7L1275.32 1812.65L1271.92 1818.61L1238.57 1819.94L1206.62 1815.94L1205.5 1813.42L1200.33 1807.38L1203.38 1804.78L1209.85 1812.32Z"/>
	<path fill="none" stroke="gray" stroke-width="0.022499999" stroke-miterlimit="4" transform="matrix(14.6985 0 -0 -14.6985 -17450 27161.8)" d="M1209.85 1812.32L1209.85 1812.32L1238.72 1815.93L1269.72 1814.71L1272.43 1810.7L1273.16 1811.19L1270.38 1816.07L1238.67 1817.33L1208.4 1813.54L1207.72 1812.01L1202.3 1805.69L1203.38 1804.78L1209.85 1812.32Z"/>
	<ellipse fill="red" transform="matrix(14.6985 0 -0 -14.6985 -17450 27161.8)" cx="1284.1377" cy="1818.605" rx="0.08996582" ry="0.08996582"/>
	<ellipse fill="red" transform="matrix(14.6985 0 -0 -14.6985 -17450 27161.8)" cx="1283.6816" cy="1819.4025" rx="0.08996582" ry="0.08996582"/>
	<ellipse fill="red" transform="matrix(14.6985 0 -0 -14.6985 -17450 27161.8)" cx="1283.2257" cy="1820.2" rx="0.08996582" ry="0.08996582"/>
	<ellipse fill="red" transform="matrix(14.6985 0 -0 -14.6985 -17450 27161.8)" cx="1282.7697" cy="1820.9973" rx="0.08996582" ry="0.08996582"/>
	<ellipse fill="red" transform="matrix(14.6985 0 -0 -14.6985 -17450 27161.8)" cx="1282.3137" cy="1821.7948" rx="0.08996582" ry="0.08996582"/>
	<ellipse fill="red" transform="matrix(14.6985 0 -0 -14.6985 -17450 27161.8)" cx="1281.8577" cy="1822.5922" rx="0.08996582" ry="0.08996582"/>
	<ellipse fill="red" transform="matrix(14.6985 0 -0 -14.6985 -17450 27161.8)" cx="1281.4017" cy="1823.3896" rx="0.08996582" ry="0.08996582"/>
	<ellipse fill="red" transform="matrix(14.6985 0 -0 -14.6985 -17450 27161.8)" cx="1280.9457" cy="1824.1871" rx="0.08996582" ry="0.08996582"/>
	<ellipse fill="red" transform="matrix(14.6985 0 -0 -14.6985 -17450 27161.8)" cx="1280.4897" cy="1824.9845" rx="0.08996582" ry="0.08996582"/>
	<ellipse fill="red" transform="matrix(14.6985 0 -0 -14.6985 -17450 27161.8)" cx="1280.0337" cy="1825.782" rx="0.08996582" ry="0.08996582"/>
	<ellipse fill="red" transform="matrix(14.6985 0 -0 -14.6985 -17450 27161.8)" cx="1279.5778" cy="1826.5795" rx="0.08996582" ry="0.08996582"/>
	<ellipse fill="red" transform="matrix(14.6985 0 -0 -14.6985 -17450 27161.8)" cx="1279.1217" cy="1827.3768" rx="0.08996582" ry="0.08996582"/>
	<ellipse fill="red" transform="matrix(14.6985 0 -0 -14.6985 -17450 27161.8)" cx="1278.6658" cy="1828.1743" rx="0.08996582" ry="0.08996582"/>
	<ellipse fill="red" transform="matrix(14.6985 0 -0 -14.6985 -17450 27161.8)" cx="1278.2097" cy="1828.9717" rx="0.08996582" ry="0.08996582"/>
	<ellipse fill="red" transform="matrix(14.6985 0 -0 -14.6985 -17450 27161.8)" cx="1277.3184" cy="1829.0072" rx="0.08996582" ry="0.08996582"/>
	<ellipse fill="red" transform="matrix(14.6985 0 -0 -14.6985 -17450 27161.8)" cx="1276.427" cy="1829.0426" rx="0.08996582" ry="0.08996582"/>
	<ellipse fill="red" transform="matrix(14.6985 0 -0 -14.6985 -17450 27161.8)" cx="1275.5355" cy="1829.078" rx="0.08996582" ry="0.08996582"/>
	<ellipse fill="red" transform="matrix(14.6985 0 -0 -14.6985 -17450 27161.8)" cx="1274.6442" cy="1829.1135" rx="0.08996582" ry="0.08996582"/>
	<ellipse fill="red" transform="matrix(14.6985 0 -0 -14.6985 -17450 27161.8)" cx="1273.7528" cy="1829.1489" rx="0.08996582" ry="0.08996582"/>
	<ellipse fill="red" transform="matrix(14.6985 0 -0 -14.6985 -17450 27161.8)" cx="1272.8613" cy="1829.1843" rx="0.08996582" ry="0.08996582"/>
	<ellipse fill="red" transform="matrix(14.6985 0 -0 -14.6985 -17450 27161.8)" cx="1271.97" cy="1829.2197" rx="0.08996582" ry="0.08996582"/>
	<ellipse fill="red" transform="matrix(14.6985 0 -0 -14.6985 -17450 27161.8)" cx="1271.0785" cy="1829.2552" rx="0.08996582" ry="0.08996582"/>
	<ellipse fill="red" transform="matrix(14.6985 0 -0 -14.6985 -17450 27161.8)" cx="1270.1871" cy="1829.2906" rx="0.08996582" ry="0.08996582"/>
	<ellipse fill="red" transform="matrix(14.6985 0 -0 -14.6985 -17450 27161.8)" cx="1269.2958" cy="1829.326" rx="0.08996582" ry="0.08996582"/>
	<ellipse fill="red" transform="matrix(14.6985 0 -0 -14.6985 -17450 27161.8)" cx="1268.4043" cy="1829.3616" rx="0.08996582" ry="0.08996582"/>
	<ellipse fill="red" transform="matrix(14.6985 0 -0 -14.6985 -17450 27161.8)" cx="1267.5129" cy="1829.397" rx="0.08996582" ry="0.08996582"/>
	<ellipse fill="red" transform="matrix(14.6985 0 -0 -14.6985 -17450 27161.8)" cx="1266.6216" cy="1829.4324" rx="0.08996582" ry="0.08996582"/>
	<ellipse fill="red" transform="matrix(14.6985 0 -0 -14.6985 -17450 27161.8)" cx="1265.7301" cy="1829.4678" rx="0.08996582" ry="0.08996582"/>
	<ellipse fill="red" transform="matrix(14.6985 0 -0 -14.6985 -17450 27161.8)" cx="1264.8387" cy="1829.5033" rx="0.08996582" ry="0.08996582"/>
	<ellipse fill="red" transform="matrix(14.6985 0 -0 -14.6985 -17450 27161.8)" cx="1263.9474" cy="1829.5387" rx="0.08996582" ry="0.08996582"/>
	<ellipse fill="red" transform="matrix(14.6985 0 -0 -14.6985 -17450 27161.8)" cx="1263.0559" cy="1829.5741" rx="0.08996582" ry="0.08996582"/>
	<ellipse fill="red" transform="matrix(14.6985 0 -0 -14.6985 -17450 27161.8)" cx="1262.1646" cy="1829.6096" rx="0.08996582" ry="0.08996582"/>
	<ellipse fill="red" transform="matrix(14.6985 0 -0 -14.6985 -17450 27161.8)" cx="1261.2731" cy="1829.645" rx="0.08996582" ry="0.08996582"/>
	<ellipse fill="red" transform="matrix(14.6985 0 -0 -14.6985 -17450 27161.8)" cx="1260.3817" cy="1829.6804" rx="0.08996582" ry="0.08996582"/>
	<ellipse fill="red" transform="matrix(14.6985 0 -0 -14.6985 -17450 27161.8)" cx="1259.4904" cy="1829.7159" rx="0.08996582" ry="0.08996582"/>
	<ellipse fill="red" transform="matrix(14.6985 0 -0 -14.6985 -17450 27161.8)" cx="1258.5989" cy="1829.7513" rx="0.08996582" ry="0.08996582"/>
	<ellipse fill="red" transform="matrix(14.6985 0 -0 -14.6985 -17450 27161.8)" cx="1257.7075" cy="1829.7867" rx="0.08996582" ry="0.08996582"/>
	<ellipse fill="red" transform="matrix(14.6985 0 -0 -14.6985 -17450 27161.8)" cx="1256.8162" cy="1829.8221" rx="0.08996582" ry="0.08996582"/>
	<ellipse fill="red" transform="matrix(14.6985 0 -0 -14.6985 -17450 27161.8)" cx="1255.9247" cy="1829.8577" rx="0.08996582" ry="0.08996582"/>
	<ellipse fill="red" transform="matrix(14.6985 0 -0 -14.6985 -17450 27161.8)" cx="1255.0333" cy="1829.8931" rx="0.08996582" ry="0.08996582"/>
	<ellipse fill="red" transform="matrix(14.6985 0 -0 -14.6985 -17450 27161.8)" cx="1254.142" cy="1829.9285" rx="0.08996582" ry="0.08996582"/>
	<ellipse fill="red" transform="matrix(14.6985 0 -0 -14.6985 -17450 27161.8)" cx="1253.2505" cy="1829.964" rx="0.08996582" ry="0.08996582"/>
	<ellipse fill="red" transform="matrix(14.6985 0 -0 -14.6985 -17450 27161.8)" cx="1252.3591" cy="1829.9994" rx="0.08996582" ry="0.08996582"/>
	<ellipse fill="red" transform="matrix(14.6985 0 -0 -14.6985 -17450 27161.8)" cx="1251.4677" cy="1830.0348" rx="0.08996582" ry="0.08996582"/>
	<ellipse fill="red" transform="matrix(14.6985 0 -0 -14.6985 -17450 27161.8)" cx="1250.5763" cy="1830.0702" rx="0.08996582" ry="0.08996582"/>
	<ellipse fill="red" transform="matrix(14.6985 0 -0 -14.6985 -17450 27161.8)" cx="1249.6849" cy="1830.1057" rx="0.08996582" ry="0.08996582"/>
	<ellipse fill="red" transform="matrix(14.6985 0 -0 -14.6985 -17450 27161.8)" cx="1248.7935" cy="1830.1411" rx="0.08996582" ry="0.08996582"/>
	<ellipse fill="red" transform="matrix(14.6985 0 -0 -14.6985 -17450 27161.8)" cx="1247.9021" cy="1830.1765" rx="0.08996582" ry="0.08996582"/>
	<ellipse fill="red" transform="matrix(14.6985 0 -0 -14.6985 -17450 27161.8)" cx="1247.0107" cy="1830.212" rx="0.08996582" ry="0.08996582"/>
	<ellipse fill="red" transform="matrix(14.6985 0 -0 -14.6985 -17450 27161.8)" cx="1246.1193" cy="1830.2474" rx="0.08996582" ry="0.08996582"/>
	<ellipse fill="red" transform="matrix(14.6985 0 -0 -14.6985 -17450 27161.8)" cx="1245.2279" cy="1830.2828" rx="0.08996582" ry="0.08996582"/>
	<ellipse fill="red" transform="matrix(14.6985 0 -0 -14.6985 -17450 27161.8)" cx="1244.3365" cy="1830.3182" rx="0.08996582" ry="0.08996582"/>
	<ellipse fill="red" transform="matrix(14.6985 0 -0 -14.6985 -17450 27161.8)" cx="1243.4451" cy="1830.3538" rx="0.08996582" ry="0.08996582"/>
	<ellipse fill="red" transform="matrix(14.6985 0 -0 -14.6985 -17450 27161.8)" cx="1242.5537" cy="1830.3892" rx="0.08996582" ry="0.08996582"/>
	<ellipse fill="red" transform="matrix(14.6985 0 -0 -14.6985 -17450 27161.8)" cx="1241.6622" cy="1830.4246" rx="0.08996582" ry="0.08996582"/>
	<ellipse fill="red" transform="matrix(14.6985 0 -0 -14.6985 -17450 27161.8)" cx="1240.7709" cy="1830.4601" rx="0.08996582" ry="0.08996582"/>
	<ellipse fill="red" transform="matrix(14.6985 0 -0 -14.6985 -17450 27161.8)" cx="1239.8795" cy="1830.4955" rx="0.08996582" ry="0.08996582"/>
	<ellipse fill="red" transform="matrix(14.6985 0 -0 -14.6985 -17450 27161.8)" cx="1238.988" cy="1830.5309" rx="0.08996582" ry="0.08996582"/>
	<ellipse fill="red" transform="matrix(14.6985 0 -0 -14.6985 -17450 27161.8)" cx="1238.0967" cy="1830.5664" rx="0.08996582" ry="0.08996582"/>
	<ellipse fill="red" transform="matrix(14.6985 0 -0 -14.6985 -17450 27161.8)" cx="1237.196" cy="1830.4537" rx="0.08996582" ry="0.08996582"/>
	<ellipse fill="red" transform="matrix(14.6985 0 -0 -14.6985 -17450 27161.8)" cx="1236.2954" cy="1830.3411" rx="0.08996582" ry="0.08996582"/>
	<ellipse fill="red" transform="matrix(14.6985 0 -0 -14.6985 -17450 27161.8)" cx="1235.3948" cy="1830.2284" rx="0.08996582" ry="0.08996582"/>
	<ellipse fill="red" transform="matrix(14.6985 0 -0 -14.6985 -17450 27161.8)" cx="1234.494" cy="1830.1157" rx="0.08996582" ry="0.08996582"/>
	<ellipse fill="red" transform="matrix(14.6985 0 -0 -14.6985 -17450 27161.8)" cx="1233.5934" cy="1830.0031" rx="0.08996582" ry="0.08996582"/>
	<ellipse fill="red" transform="matrix(14.6985 0 -0 -14.6985 -17450 27161.8)" cx="1232.6927" cy="1829.8905" rx="0.08996582" ry="0.08996582"/>
	<ellipse fill="red" transform="matrix(14.6985 0 -0 -14.6985 -17450 27161.8)" cx="1231.7921" cy="1829.7778" rx="0.08996582" ry="0.08996582"/>
	<ellipse fill="red" transform="matrix(14.6985 0 -0 -14.6985 -17450 27161.8)" cx="1230.8915" cy="1829.6652" rx="0.08996582" ry="0.08996582"/>
	<ellipse fill="red" transform="matrix(14.6985 0 -0 -14.6985 -17450 27161.8)" cx="1229.9908" cy="1829.5525" rx="0.08996582" ry="0.08996582"/>
	<ellipse fill="red" transform="matrix(14.6985 0 -0 -14.6985 -17450 27161.8)" cx="1229.0901" cy="1829.4398" rx="0.08996582" ry="0.08996582"/>
	<ellipse fill="red" transform="matrix(14.6985 0 -0 -14.6985 -17450 27161.8)" cx="1228.1895" cy="1829.3271" rx="0.08996582" ry="0.08996582"/>
	<ellipse fill="red" transform="matrix(14.6985 0 -0 -14.6985 -17450 27161.8)" cx="1227.2888" cy="1829.2146" rx="0.08996582" ry="0.08996582"/>
	<ellipse fill="red" transform="matrix(14.6985 0 -0 -14.6985 -17450 27161.8)" cx="1226.3882" cy="1829.1019" rx="0.08996582" ry="0.08996582"/>
	<ellipse fill="red" transform="matrix(14.6985 0 -0 -14.6985 -17450 27161.8)" cx="1225.4875" cy="1828.9893" rx="0.08996582" ry="0.08996582"/>
	<ellipse fill="red" transform="matrix(14.6985 0 -0 -14.6985 -17450 27161.8)" cx="1224.5869" cy="1828.8766" rx="0.08996582" ry="0.08996582"/>
	<ellipse fill="red" transform="matrix(14.6985 0 -0 -14.6985 -17450 27161.8)" cx="1223.6863" cy="1828.7639" rx="0.08996582" ry="0.08996582"/>
	<ellipse fill="red" transform="matrix(14.6985 0 -0 -14.6985 -17450 27161.8)" cx="1222.7855" cy="1828.6512" rx="0.08996582" ry="0.08996582"/>
	<ellipse fill="red" transform="matrix(14.6985 0 -0 -14.6985 -17450 27161.8)" cx="1221.8849" cy="1828.5387" rx="0.08996582" ry="0.08996582"/>
	<ellipse fill="red" transform="matrix(14.6985 0 -0 -14.6985 -17450 27161.8)" cx="1220.9843" cy="1828.426" rx="0.08996582" ry="0.08996582"/>
	<ellipse fill="red" transform="matrix(14.6985 0 -0 -14.6985 -17450 27161.8)" cx="1220.0836" cy="1828.3134" rx="0.08996582" ry="0.08996582"/>
	<ellipse fill="red" transform="matrix(14.6985 0 -0 -14.6985 -17450 27161.8)" cx="1219.183" cy="1828.2007" rx="0.08996582" ry="0.08996582"/>
	<ellipse fill="red" transform="matrix(14.6985 0 -0 -14.6985 -17450 27161.8)" cx="1218.2823" cy="1828.088" rx="0.08996582" ry="0.08996582"/>
	<ellipse fill="red" transform="matrix(14.6985 0 -0 -14.6985 -17450 27161.8)" cx="1217.3816" cy="1827.9753" rx="0.08996582" ry="0.08996582"/>
	<ellipse fill="red" transform="matrix(14.6985 0 -0 -14.6985 -17450 27161.8)" cx="1216.481" cy="1827.8628" rx="0.08996582" ry="0.08996582"/>
	<ellipse fill="red" transform="matrix(14.6985 0 -0 -14.6985 -17450 27161.8)" cx="1215.5803" cy="1827.7501" rx="0.08996582" ry="0.08996582"/>
	<ellipse fill="red" transform="matrix(14.6985 0 -0 -14.6985 -17450 27161.8)" cx="1214.6797" cy="1827.6375" rx="0.08996582" ry="0.08996582"/>
	<ellipse fill="red" transform="matrix(14.6985 0 -0 -14.6985 -17450 27161.8)" cx="1213.7791" cy="1827.5248" rx="0.08996582" ry="0.08996582"/>
	<ellipse fill="red" transform="matrix(14.6985 0 -0 -14.6985 -17450 27161.8)" cx="1212.8784" cy="1827.4121" rx="0.08996582" ry="0.08996582"/>
	<ellipse fill="red" transform="matrix(14.6985 0 -0 -14.6985 -17450 27161.8)" cx="1211.9778" cy="1827.2994" rx="0.08996582" ry="0.08996582"/>
	<ellipse fill="red" transform="matrix(14.6985 0 -0 -14.6985 -17450 27161.8)" cx="1211.077" cy="1827.1869" rx="0.08996582" ry="0.08996582"/>
	<ellipse fill="red" transform="matrix(14.6985 0 -0 -14.6985 -17450 27161.8)" cx="1210.1764" cy="1827.0742" rx="0.08996582" ry="0.08996582"/>
	<ellipse fill="red" transform="matrix(14.6985 0 -0 -14.6985 -17450 27161.8)" cx="1209.2758" cy="1826.9615" rx="0.08996582" ry="0.08996582"/>
	<ellipse fill="red" transform="matrix(14.6985 0 -0 -14.6985 -17450 27161.8)" cx="1208.3751" cy="1826.8489" rx="0.08996582" ry="0.08996582"/>
	<ellipse fill="red" transform="matrix(14.6985 0 -0 -14.6985 -17450 27161.8)" cx="1207.4745" cy="1826.7362" rx="0.08996582" ry="0.08996582"/>
	<ellipse fill="red" transform="matrix(14.6985 0 -0 -14.6985 -17450 27161.8)" cx="1206.5739" cy="1826.6235" rx="0.08996582" ry="0.08996582"/>
	<ellipse fill="red" transform="matrix(14.6985 0 -0 -14.6985 -17450 27161.8)" cx="1205.6732" cy="1826.511" rx="0.08996582" ry="0.08996582"/>
	<ellipse fill="red" transform="matrix(14.6985 0 -0 -14.6985 -17450 27161.8)" cx="1204.7725" cy="1826.3983" rx="0.08996582" ry="0.08996582"/>
	<ellipse fill="red" transform="matrix(14.6985 0 -0 -14.6985 -17450 27161.8)" cx="1203.8718" cy="1826.2856" rx="0.08996582" ry="0.08996582"/>
	<ellipse fill="red" transform="matrix(14.6985 0 -0 -14.6985 -17450 27161.8)" cx="1202.9712" cy="1826.173" rx="0.08996582" ry="0.08996582"/>
	<ellipse fill="red" transform="matrix(14.6985 0 -0 -14.6985 -17450 27161.8)" cx="1202.0706" cy="1826.0603" rx="0.08996582" ry="0.08996582"/>
	<ellipse fill="red" transform="matrix(14.6985 0 -0 -14.6985 -17450 27161.8)" cx="1201.1699" cy="1825.9476" rx="0.08996582" ry="0.08996582"/>
	<ellipse fill="red" transform="matrix(14.6985 0 -0 -14.6985 -17450 27161.8)" cx="1200.2693" cy="1825.8351" rx="0.08996582" ry="0.08996582"/>
	<ellipse fill="red" transform="matrix(14.6985 0 -0 -14.6985 -17450 27161.8)" cx="1199.3685" cy="1825.7224" rx="0.08996582" ry="0.08996582"/>
	<ellipse fill="red" transform="matrix(14.6985 0 -0 -14.6985 -17450 27161.8)" cx="1199.0024" cy="1824.9001" rx="0.08996582" ry="0.08996582"/>
	<ellipse fill="red" transform="matrix(14.6985 0 -0 -14.6985 -17450 27161.8)" cx="1198.6364" cy="1824.078" rx="0.08996582" ry="0.08996582"/>
	<ellipse fill="red" transform="matrix(14.6985 0 -0 -14.6985 -17450 27161.8)" cx="1198.2703" cy="1823.2559" rx="0.08996582" ry="0.08996582"/>
	<ellipse fill="red" transform="matrix(14.6985 0 -0 -14.6985 -17450 27161.8)" cx="1197.9041" cy="1822.4336" rx="0.08996582" ry="0.08996582"/>
	<ellipse fill="red" transform="matrix(14.6985 0 -0 -14.6985 -17450 27161.8)" cx="1197.538" cy="1821.6115" rx="0.08996582" ry="0.08996582"/>
	<ellipse fill="red" transform="matrix(14.6985 0 -0 -14.6985 -17450 27161.8)" cx="1197.1719" cy="1820.7893" rx="0.08996582" ry="0.08996582"/>
	<ellipse fill="red" transform="matrix(14.6985 0 -0 -14.6985 -17450 27161.8)" cx="1196.8057" cy="1819.967" rx="0.08996582" ry="0.08996582"/>
	<ellipse fill="red" transform="matrix(14.6985 0 -0 -14.6985 -17450 27161.8)" cx="1196.4396" cy="1819.1449" rx="0.08996582" ry="0.08996582"/>
	<ellipse fill="red" transform="matrix(14.6985 0 -0 -14.6985 -17450 27161.8)" cx="1195.847" cy="1818.452" rx="0.08996582" ry="0.08996582"/>
	<ellipse fill="red" transform="matrix(14.6985 0 -0 -14.6985 -17450 27161.8)" cx="1195.2545" cy="1817.7592" rx="0.08996582" ry="0.08996582"/>
	<ellipse fill="red" transform="matrix(14.6985 0 -0 -14.6985 -17450 27161.8)" cx="1194.662" cy="1817.0664" rx="0.08996582" ry="0.08996582"/>
	<ellipse fill="red" transform="matrix(14.6985 0 -0 -14.6985 -17450 27161.8)" cx="1194.0695" cy="1816.3735" rx="0.08996582" ry="0.08996582"/>
	<ellipse fill="red" transform="matrix(14.6985 0 -0 -14.6985 -17450 27161.8)" cx="1193.4769" cy="1815.6807" rx="0.08996582" ry="0.08996582"/>
	<ellipse fill="red" transform="matrix(14.6985 0 -0 -14.6985 -17450 27161.8)" cx="1192.8843" cy="1814.9879" rx="0.08996582" ry="0.08996582"/>
	<ellipse fill="red" transform="matrix(14.6985 0 -0 -14.6985 -17450 27161.8)" cx="1192.2917" cy="1814.295" rx="0.08996582" ry="0.08996582"/>
	<ellipse fill="purple" transform="matrix(14.6985 0 -0 -14.6985 -17450 27161.8)" cx="1281.8906" cy="1820.3152" rx="0.08996582" ry="0.08996582"/>
	<ellipse fill="purple" transform="matrix(14.6985 0 -0 -14.6985 -17450 27161.8)" cx="1280.6002" cy="1822.5724" rx="0.08996582" ry="0.08996582"/>
	<ellipse fill="purple" transform="matrix(14.6985 0 -0 -14.6985 -17450 27161.8)" cx="1279.3097" cy="1824.8296" rx="0.08996582" ry="0.08996582"/>
	<ellipse fill="purple" transform="matrix(14.6985 0 -0 -14.6985 -17450 27161.8)" cx="1278.0193" cy="1827.0867" rx="0.08996582" ry="0.08996582"/>
	<ellipse fill="purple" transform="matrix(14.6985 0 -0 -14.6985 -17450 27161.8)" cx="1275.8867" cy="1827.9567" rx="0.08996582" ry="0.08996582"/>
	<ellipse fill="purple" transform="matrix(14.6985 0 -0 -14.6985 -17450 27161.8)" cx="1273.2887" cy="1828.0601" rx="0.08996582" ry="0.08996582"/>
	<ellipse fill="purple" transform="matrix(14.6985 0 -0 -14.6985 -17450 27161.8)" cx="1270.6908" cy="1828.1636" rx="0.08996582" ry="0.08996582"/>
	<ellipse fill="purple" transform="matrix(14.6985 0 -0 -14.6985 -17450 27161.8)" cx="1268.0929" cy="1828.267" rx="0.08996582" ry="0.08996582"/>
	<ellipse fill="purple" transform="matrix(14.6985 0 -0 -14.6985 -17450 27161.8)" cx="1265.4949" cy="1828.3704" rx="0.08996582" ry="0.08996582"/>
	<ellipse fill="purple" transform="matrix(14.6985 0 -0 -14.6985 -17450 27161.8)" cx="1262.897" cy="1828.4739" rx="0.08996582" ry="0.08996582"/>
	<ellipse fill="purple" transform="matrix(14.6985 0 -0 -14.6985 -17450 27161.8)" cx="1260.2991" cy="1828.5773" rx="0.08996582" ry="0.08996582"/>
	<ellipse fill="purple" transform="matrix(14.6985 0 -0 -14.6985 -17450 27161.8)" cx="1257.701" cy="1828.6808" rx="0.08996582" ry="0.08996582"/>
	<ellipse fill="purple" transform="matrix(14.6985 0 -0 -14.6985 -17450 27161.8)" cx="1255.1031" cy="1828.7842" rx="0.08996582" ry="0.08996582"/>
	<ellipse fill="purple" transform="matrix(14.6985 0 -0 -14.6985 -17450 27161.8)" cx="1252.5052" cy="1828.8876" rx="0.08996582" ry="0.08996582"/>
	<ellipse fill="purple" transform="matrix(14.6985 0 -0 -14.6985 -17450 27161.8)" cx="1249.9072" cy="1828.9911" rx="0.08996582" ry="0.08996582"/>
	<ellipse fill="purple" transform="matrix(14.6985 0 -0 -14.6985 -17450 27161.8)" cx="1247.3093" cy="1829.0945" rx="0.08996582" ry="0.08996582"/>
	<ellipse fill="purple" transform="matrix(14.6985 0 -0 -14.6985 -17450 27161.8)" cx="1244.7114" cy="1829.198" rx="0.08996582" ry="0.08996582"/>
	<ellipse fill="purple" transform="matrix(14.6985 0 -0 -14.6985 -17450 27161.8)" cx="1242.1134" cy="1829.3014" rx="0.08996582" ry="0.08996582"/>
	<ellipse fill="purple" transform="matrix(14.6985 0 -0 -14.6985 -17450 27161.8)" cx="1239.5155" cy="1829.4048" rx="0.08996582" ry="0.08996582"/>
	<ellipse fill="purple" transform="matrix(14.6985 0 -0 -14.6985 -17450 27161.8)" cx="1236.926" cy="1829.3092" rx="0.08996582" ry="0.08996582"/>
	<ellipse fill="purple" transform="matrix(14.6985 0 -0 -14.6985 -17450 27161.8)" cx="1234.3461" cy="1828.9863" rx="0.08996582" ry="0.08996582"/>
	<ellipse fill="purple" transform="matrix(14.6985 0 -0 -14.6985 -17450 27161.8)" cx="1231.7662" cy="1828.6633" rx="0.08996582" ry="0.08996582"/>
	<ellipse fill="purple" transform="matrix(14.6985 0 -0 -14.6985 -17450 27161.8)" cx="1229.1864" cy="1828.3403" rx="0.08996582" ry="0.08996582"/>
	<ellipse fill="purple" transform="matrix(14.6985 0 -0 -14.6985 -17450 27161.8)" cx="1226.6066" cy="1828.0173" rx="0.08996582" ry="0.08996582"/>
	<ellipse fill="purple" transform="matrix(14.6985 0 -0 -14.6985 -17450 27161.8)" cx="1224.0267" cy="1827.6943" rx="0.08996582" ry="0.08996582"/>
	<ellipse fill="purple" transform="matrix(14.6985 0 -0 -14.6985 -17450 27161.8)" cx="1221.4468" cy="1827.3713" rx="0.08996582" ry="0.08996582"/>
	<ellipse fill="purple" transform="matrix(14.6985 0 -0 -14.6985 -17450 27161.8)" cx="1218.8669" cy="1827.0483" rx="0.08996582" ry="0.08996582"/>
	<ellipse fill="purple" transform="matrix(14.6985 0 -0 -14.6985 -17450 27161.8)" cx="1216.2871" cy="1826.7253" rx="0.08996582" ry="0.08996582"/>
	<ellipse fill="purple" transform="matrix(14.6985 0 -0 -14.6985 -17450 27161.8)" cx="1213.7073" cy="1826.4023" rx="0.08996582" ry="0.08996582"/>
	<ellipse fill="purple" transform="matrix(14.6985 0 -0 -14.6985 -17450 27161.8)" cx="1211.1274" cy="1826.0793" rx="0.08996582" ry="0.08996582"/>
	<ellipse fill="purple" transform="matrix(14.6985 0 -0 -14.6985 -17450 27161.8)" cx="1208.5475" cy="1825.7563" rx="0.08996582" ry="0.08996582"/>
	<ellipse fill="purple" transform="matrix(14.6985 0 -0 -14.6985 -17450 27161.8)" cx="1205.9677" cy="1825.4333" rx="0.08996582" ry="0.08996582"/>
	<ellipse fill="purple" transform="matrix(14.6985 0 -0 -14.6985 -17450 27161.8)" cx="1203.3878" cy="1825.1104" rx="0.08996582" ry="0.08996582"/>
	<ellipse fill="purple" transform="matrix(14.6985 0 -0 -14.6985 -17450 27161.8)" cx="1200.808" cy="1824.7874" rx="0.08996582" ry="0.08996582"/>
	<ellipse fill="purple" transform="matrix(14.6985 0 -0 -14.6985 -17450 27161.8)" cx="1199.3405" cy="1822.9666" rx="0.08996582" ry="0.08996582"/>
	<ellipse fill="purple" transform="matrix(14.6985 0 -0 -14.6985 -17450 27161.8)" cx="1198.2856" cy="1820.5901" rx="0.08996582" ry="0.08996582"/>
	<ellipse fill="purple" transform="matrix(14.6985 0 -0 -14.6985 -17450 27161.8)" cx="1197.1406" cy="1818.2706" rx="0.08996582" ry="0.08996582"/>
	<ellipse fill="purple" transform="matrix(14.6985 0 -0 -14.6985 -17450 27161.8)" cx="1195.4485" cy="1816.2966" rx="0.08996582" ry="0.08996582"/>
	<ellipse transform="matrix(14.6985 0 -0 -14.6985 -17450 27161.8)" cx="1280.4143" cy="1819.4712" rx="0.08996582" ry="0.08996582"/>
	<ellipse transform="matrix(14.6985 0 -0 -14.6985 -17450 27161.8)" cx="1278.4785" cy="1822.8568" rx="0.08996582" ry="0.08996582"/>
	<ellipse transform="matrix(14.6985 0 -0 -14.6985 -17450 27161.8)" cx="1276.5355" cy="1826.2306" rx="0.08996582" ry="0.08996582"/>
	<ellipse transform="matrix(14.6985 0 -0 -14.6985 -17450 27161.8)" cx="1272.6387" cy="1826.3861" rx="0.08996582" ry="0.08996582"/>
	<ellipse transform="matrix(14.6985 0 -0 -14.6985 -17450 27161.8)" cx="1268.7417" cy="1826.5416" rx="0.08996582" ry="0.08996582"/>
	<ellipse transform="matrix(14.6985 0 -0 -14.6985 -17450 27161.8)" cx="1264.8448" cy="1826.6971" rx="0.08996582" ry="0.08996582"/>
	<ellipse transform="matrix(14.6985 0 -0 -14.6985 -17450 27161.8)" cx="1260.948" cy="1826.8527" rx="0.08996582" ry="0.08996582"/>
	<ellipse transform="matrix(14.6985 0 -0 -14.6985 -17450 27161.8)" cx="1257.051" cy="1827.0082" rx="0.08996582" ry="0.08996582"/>
	<ellipse transform="matrix(14.6985 0 -0 -14.6985 -17450 27161.8)" cx="1253.1542" cy="1827.1637" rx="0.08996582" ry="0.08996582"/>
	<ellipse transform="matrix(14.6985 0 -0 -14.6985 -17450 27161.8)" cx="1249.2572" cy="1827.3191" rx="0.08996582" ry="0.08996582"/>
	<ellipse transform="matrix(14.6985 0 -0 -14.6985 -17450 27161.8)" cx="1245.3604" cy="1827.4746" rx="0.08996582" ry="0.08996582"/>
	<ellipse transform="matrix(14.6985 0 -0 -14.6985 -17450 27161.8)" cx="1241.4635" cy="1827.6301" rx="0.08996582" ry="0.08996582"/>
	<ellipse transform="matrix(14.6985 0 -0 -14.6985 -17450 27161.8)" cx="1237.571" cy="1827.6799" rx="0.08996582" ry="0.08996582"/>
	<ellipse transform="matrix(14.6985 0 -0 -14.6985 -17450 27161.8)" cx="1233.7013" cy="1827.1947" rx="0.08996582" ry="0.08996582"/>
	<ellipse transform="matrix(14.6985 0 -0 -14.6985 -17450 27161.8)" cx="1229.8317" cy="1826.7096" rx="0.08996582" ry="0.08996582"/>
	<ellipse transform="matrix(14.6985 0 -0 -14.6985 -17450 27161.8)" cx="1225.9619" cy="1826.2245" rx="0.08996582" ry="0.08996582"/>
	<ellipse transform="matrix(14.6985 0 -0 -14.6985 -17450 27161.8)" cx="1222.0922" cy="1825.7393" rx="0.08996582" ry="0.08996582"/>
	<ellipse transform="matrix(14.6985 0 -0 -14.6985 -17450 27161.8)" cx="1218.2225" cy="1825.2542" rx="0.08996582" ry="0.08996582"/>
	<ellipse transform="matrix(14.6985 0 -0 -14.6985 -17450 27161.8)" cx="1214.3528" cy="1824.7689" rx="0.08996582" ry="0.08996582"/>
	<ellipse transform="matrix(14.6985 0 -0 -14.6985 -17450 27161.8)" cx="1210.4832" cy="1824.2838" rx="0.08996582" ry="0.08996582"/>
	<ellipse transform="matrix(14.6985 0 -0 -14.6985 -17450 27161.8)" cx="1206.6134" cy="1823.7987" rx="0.08996582" ry="0.08996582"/>
	<ellipse transform="matrix(14.6985 0 -0 -14.6985 -17450 27161.8)" cx="1202.7437" cy="1823.3135" rx="0.08996582" ry="0.08996582"/>
	<ellipse transform="matrix(14.6985 0 -0 -14.6985 -17450 27161.8)" cx="1200.2933" cy="1820.9149" rx="0.08996582" ry="0.08996582"/>
	<ellipse transform="matrix(14.6985 0 -0 -14.6985 -17450 27161.8)" cx="1198.6326" cy="1817.399" rx="0.08996582" ry="0.08996582"/>
	<ellipse transform="matrix(14.6985 0 -0 -14.6985 -17450 27161.8)" cx="1196.0983" cy="1814.4347" rx="0.08996582" ry="0.08996582"/>
	<ellipse transform="matrix(14.6985 0 -0 -14.6985 -17450 27161.8)" cx="1272.5345" cy="1823.7788" rx="0.08996582" ry="0.08996582"/>
	<ellipse transform="matrix(14.6985 0 -0 -14.6985 -17450 27161.8)" cx="1268.6377" cy="1823.9349" rx="0.08996582" ry="0.08996582"/>
	<ellipse transform="matrix(14.6985 0 -0 -14.6985 -17450 27161.8)" cx="1264.7408" cy="1824.0911" rx="0.08996582" ry="0.08996582"/>
	<ellipse transform="matrix(14.6985 0 -0 -14.6985 -17450 27161.8)" cx="1260.844" cy="1824.2472" rx="0.08996582" ry="0.08996582"/>
	<ellipse transform="matrix(14.6985 0 -0 -14.6985 -17450 27161.8)" cx="1256.947" cy="1824.4033" rx="0.08996582" ry="0.08996582"/>
	<ellipse transform="matrix(14.6985 0 -0 -14.6985 -17450 27161.8)" cx="1253.0502" cy="1824.5594" rx="0.08996582" ry="0.08996582"/>
	<ellipse transform="matrix(14.6985 0 -0 -14.6985 -17450 27161.8)" cx="1249.1533" cy="1824.7156" rx="0.08996582" ry="0.08996582"/>
	<ellipse transform="matrix(14.6985 0 -0 -14.6985 -17450 27161.8)" cx="1245.2565" cy="1824.8717" rx="0.08996582" ry="0.08996582"/>
	<ellipse transform="matrix(14.6985 0 -0 -14.6985 -17450 27161.8)" cx="1241.3596" cy="1825.0278" rx="0.08996582" ry="0.08996582"/>
	<ellipse transform="matrix(14.6985 0 -0 -14.6985 -17450 27161.8)" cx="1237.4686" cy="1825.0446" rx="0.08996582" ry="0.08996582"/>
	<ellipse transform="matrix(14.6985 0 -0 -14.6985 -17450 27161.8)" cx="1233.5989" cy="1824.5593" rx="0.08996582" ry="0.08996582"/>
	<ellipse transform="matrix(14.6985 0 -0 -14.6985 -17450 27161.8)" cx="1229.7292" cy="1824.0741" rx="0.08996582" ry="0.08996582"/>
	<ellipse transform="matrix(14.6985 0 -0 -14.6985 -17450 27161.8)" cx="1225.8595" cy="1823.5889" rx="0.08996582" ry="0.08996582"/>
	<ellipse transform="matrix(14.6985 0 -0 -14.6985 -17450 27161.8)" cx="1221.9899" cy="1823.1036" rx="0.08996582" ry="0.08996582"/>
	<ellipse transform="matrix(14.6985 0 -0 -14.6985 -17450 27161.8)" cx="1218.1201" cy="1822.6184" rx="0.08996582" ry="0.08996582"/>
	<ellipse transform="matrix(14.6985 0 -0 -14.6985 -17450 27161.8)" cx="1214.2505" cy="1822.1332" rx="0.08996582" ry="0.08996582"/>
	<ellipse transform="matrix(14.6985 0 -0 -14.6985 -17450 27161.8)" cx="1210.3807" cy="1821.6479" rx="0.08996582" ry="0.08996582"/>
	<ellipse transform="matrix(14.6985 0 -0 -14.6985 -17450 27161.8)" cx="1206.511" cy="1821.1627" rx="0.08996582" ry="0.08996582"/>
	<ellipse transform="matrix(14.6985 0 -0 -14.6985 -17450 27161.8)" cx="1202.8882" cy="1820.3446" rx="0.08996582" ry="0.08996582"/>
	<ellipse transform="matrix(14.6985 0 -0 -14.6985 -17450 27161.8)" cx="1201.3007" cy="1816.7823" rx="0.08996582" ry="0.08996582"/>
	<ellipse transform="matrix(14.6985 0 -0 -14.6985 -17450 27161.8)" cx="1198.913" cy="1813.7261" rx="0.08996582" ry="0.08996582"/>
	<ellipse transform="matrix(14.6985 0 -0 -14.6985 -17450 27161.8)" cx="1275.7108" cy="1822.4362" rx="0.08996582" ry="0.08996582"/>
	<ellipse transform="matrix(14.6985 0 -0 -14.6985 -17450 27161.8)" cx="1277.6458" cy="1819.05" rx="0.08996582" ry="0.08996582"/>
	<ellipse transform="matrix(14.6985 0 -0 -14.6985 -17450 27161.8)" cx="1264.6371" cy="1821.5031" rx="0.08996582" ry="0.08996582"/>
	<ellipse transform="matrix(14.6985 0 -0 -14.6985 -17450 27161.8)" cx="1260.7402" cy="1821.6589" rx="0.08996582" ry="0.08996582"/>
	<ellipse transform="matrix(14.6985 0 -0 -14.6985 -17450 27161.8)" cx="1256.8434" cy="1821.8148" rx="0.08996582" ry="0.08996582"/>
	<ellipse transform="matrix(14.6985 0 -0 -14.6985 -17450 27161.8)" cx="1252.9465" cy="1821.9708" rx="0.08996582" ry="0.08996582"/>
	<ellipse transform="matrix(14.6985 0 -0 -14.6985 -17450 27161.8)" cx="1249.0496" cy="1822.1267" rx="0.08996582" ry="0.08996582"/>
	<ellipse transform="matrix(14.6985 0 -0 -14.6985 -17450 27161.8)" cx="1245.1527" cy="1822.2826" rx="0.08996582" ry="0.08996582"/>
	<ellipse transform="matrix(14.6985 0 -0 -14.6985 -17450 27161.8)" cx="1241.2559" cy="1822.4385" rx="0.08996582" ry="0.08996582"/>
	<ellipse transform="matrix(14.6985 0 -0 -14.6985 -17450 27161.8)" cx="1237.3667" cy="1822.4119" rx="0.08996582" ry="0.08996582"/>
	<ellipse transform="matrix(14.6985 0 -0 -14.6985 -17450 27161.8)" cx="1233.4968" cy="1821.9276" rx="0.08996582" ry="0.08996582"/>
	<ellipse transform="matrix(14.6985 0 -0 -14.6985 -17450 27161.8)" cx="1229.6271" cy="1821.4434" rx="0.08996582" ry="0.08996582"/>
	<ellipse transform="matrix(14.6985 0 -0 -14.6985 -17450 27161.8)" cx="1225.7572" cy="1820.959" rx="0.08996582" ry="0.08996582"/>
	<ellipse transform="matrix(14.6985 0 -0 -14.6985 -17450 27161.8)" cx="1221.8875" cy="1820.4747" rx="0.08996582" ry="0.08996582"/>
	<ellipse transform="matrix(14.6985 0 -0 -14.6985 -17450 27161.8)" cx="1218.0176" cy="1819.9904" rx="0.08996582" ry="0.08996582"/>
	<ellipse transform="matrix(14.6985 0 -0 -14.6985 -17450 27161.8)" cx="1214.1478" cy="1819.5061" rx="0.08996582" ry="0.08996582"/>
	<ellipse transform="matrix(14.6985 0 -0 -14.6985 -17450 27161.8)" cx="1210.278" cy="1819.0219" rx="0.08996582" ry="0.08996582"/>
	<ellipse transform="matrix(14.6985 0 -0 -14.6985 -17450 27161.8)" cx="1206.4082" cy="1818.5375" rx="0.08996582" ry="0.08996582"/>
	<ellipse transform="matrix(14.6985 0 -0 -14.6985 -17450 27161.8)" cx="1203.8943" cy="1816.2285" rx="0.08996582" ry="0.08996582"/>
	<ellipse transform="matrix(14.6985 0 -0 -14.6985 -17450 27161.8)" cx="1201.7346" cy="1813.0287" rx="0.08996582" ry="0.08996582"/>
	<ellipse transform="matrix(14.6985 0 -0 -14.6985 -17450 27161.8)" cx="1199.1965" cy="1810.0676" rx="0.08996582" ry="0.08996582"/>
	<ellipse transform="matrix(14.6985 0 -0 -14.6985 -17450 27161.8)" cx="1268.5341" cy="1821.347" rx="0.08996582" ry="0.08996582"/>
	<ellipse transform="matrix(14.6985 0 -0 -14.6985 -17450 27161.8)" cx="1272.4309" cy="1821.1912" rx="0.08996582" ry="0.08996582"/>
	<ellipse transform="matrix(14.6985 0 -0 -14.6985 -17450 27161.8)" cx="1274.8832" cy="1818.6576" rx="0.08996582" ry="0.08996582"/>
	<ellipse transform="matrix(14.6985 0 -0 -14.6985 -17450 27161.8)" cx="1276.8171" cy="1815.2709" rx="0.08996582" ry="0.08996582"/>
	<ellipse transform="matrix(14.6985 0 -0 -14.6985 -17450 27161.8)" cx="1264.5332" cy="1818.9045" rx="0.08996582" ry="0.08996582"/>
	<ellipse transform="matrix(14.6985 0 -0 -14.6985 -17450 27161.8)" cx="1260.6362" cy="1819.0599" rx="0.08996582" ry="0.08996582"/>
	<ellipse transform="matrix(14.6985 0 -0 -14.6985 -17450 27161.8)" cx="1256.7394" cy="1819.2155" rx="0.08996582" ry="0.08996582"/>
	<ellipse transform="matrix(14.6985 0 -0 -14.6985 -17450 27161.8)" cx="1252.8424" cy="1819.3708" rx="0.08996582" ry="0.08996582"/>
	<ellipse transform="matrix(14.6985 0 -0 -14.6985 -17450 27161.8)" cx="1248.9456" cy="1819.5262" rx="0.08996582" ry="0.08996582"/>
	<ellipse transform="matrix(14.6985 0 -0 -14.6985 -17450 27161.8)" cx="1245.0487" cy="1819.6816" rx="0.08996582" ry="0.08996582"/>
	<ellipse transform="matrix(14.6985 0 -0 -14.6985 -17450 27161.8)" cx="1241.1517" cy="1819.837" rx="0.08996582" ry="0.08996582"/>
	<ellipse transform="matrix(14.6985 0 -0 -14.6985 -17450 27161.8)" cx="1237.264" cy="1819.7765" rx="0.08996582" ry="0.08996582"/>
	<ellipse transform="matrix(14.6985 0 -0 -14.6985 -17450 27161.8)" cx="1233.3942" cy="1819.292" rx="0.08996582" ry="0.08996582"/>
	<ellipse transform="matrix(14.6985 0 -0 -14.6985 -17450 27161.8)" cx="1229.5244" cy="1818.8075" rx="0.08996582" ry="0.08996582"/>
	<ellipse transform="matrix(14.6985 0 -0 -14.6985 -17450 27161.8)" cx="1225.6547" cy="1818.323" rx="0.08996582" ry="0.08996582"/>
	<ellipse transform="matrix(14.6985 0 -0 -14.6985 -17450 27161.8)" cx="1221.7848" cy="1817.8386" rx="0.08996582" ry="0.08996582"/>
	<ellipse transform="matrix(14.6985 0 -0 -14.6985 -17450 27161.8)" cx="1217.915" cy="1817.3541" rx="0.08996582" ry="0.08996582"/>
	<ellipse transform="matrix(14.6985 0 -0 -14.6985 -17450 27161.8)" cx="1214.0453" cy="1816.8696" rx="0.08996582" ry="0.08996582"/>
	<ellipse transform="matrix(14.6985 0 -0 -14.6985 -17450 27161.8)" cx="1210.1754" cy="1816.3851" rx="0.08996582" ry="0.08996582"/>
	<ellipse transform="matrix(14.6985 0 -0 -14.6985 -17450 27161.8)" cx="1206.4913" cy="1815.6505" rx="0.08996582" ry="0.08996582"/>
	<ellipse transform="matrix(14.6985 0 -0 -14.6985 -17450 27161.8)" cx="1204.5511" cy="1812.3115" rx="0.08996582" ry="0.08996582"/>
	<ellipse transform="matrix(14.6985 0 -0 -14.6985 -17450 27161.8)" cx="1202.0151" cy="1809.3486" rx="0.08996582" ry="0.08996582"/>
	<ellipse transform="matrix(14.6985 0 -0 -14.6985 -17450 27161.8)" cx="1268.4301" cy="1818.7491" rx="0.08996582" ry="0.08996582"/>
	<ellipse transform="matrix(14.6985 0 -0 -14.6985 -17450 27161.8)" cx="1272.1218" cy="1818.2562" rx="0.08996582" ry="0.08996582"/>
	<ellipse transform="matrix(14.6985 0 -0 -14.6985 -17450 27161.8)" cx="1274.0543" cy="1814.8687" rx="0.08996582" ry="0.08996582"/>
	<ellipse transform="matrix(14.6985 0 -0 -14.6985 -17450 27161.8)" cx="1264.4296" cy="1816.3064" rx="0.08996582" ry="0.08996582"/>
	<ellipse transform="matrix(14.6985 0 -0 -14.6985 -17450 27161.8)" cx="1260.5326" cy="1816.4613" rx="0.08996582" ry="0.08996582"/>
	<ellipse transform="matrix(14.6985 0 -0 -14.6985 -17450 27161.8)" cx="1256.6357" cy="1816.6161" rx="0.08996582" ry="0.08996582"/>
	<ellipse transform="matrix(14.6985 0 -0 -14.6985 -17450 27161.8)" cx="1252.7388" cy="1816.771" rx="0.08996582" ry="0.08996582"/>
	<ellipse transform="matrix(14.6985 0 -0 -14.6985 -17450 27161.8)" cx="1248.8418" cy="1816.9258" rx="0.08996582" ry="0.08996582"/>
	<ellipse transform="matrix(14.6985 0 -0 -14.6985 -17450 27161.8)" cx="1244.9449" cy="1817.0807" rx="0.08996582" ry="0.08996582"/>
	<ellipse transform="matrix(14.6985 0 -0 -14.6985 -17450 27161.8)" cx="1241.048" cy="1817.2355" rx="0.08996582" ry="0.08996582"/>
	<ellipse transform="matrix(14.6985 0 -0 -14.6985 -17450 27161.8)" cx="1237.1616" cy="1817.1411" rx="0.08996582" ry="0.08996582"/>
	<ellipse transform="matrix(14.6985 0 -0 -14.6985 -17450 27161.8)" cx="1233.2919" cy="1816.6566" rx="0.08996582" ry="0.08996582"/>
	<ellipse transform="matrix(14.6985 0 -0 -14.6985 -17450 27161.8)" cx="1229.4221" cy="1816.1721" rx="0.08996582" ry="0.08996582"/>
	<ellipse transform="matrix(14.6985 0 -0 -14.6985 -17450 27161.8)" cx="1225.5522" cy="1815.6876" rx="0.08996582" ry="0.08996582"/>
	<ellipse transform="matrix(14.6985 0 -0 -14.6985 -17450 27161.8)" cx="1221.6825" cy="1815.203" rx="0.08996582" ry="0.08996582"/>
	<ellipse transform="matrix(14.6985 0 -0 -14.6985 -17450 27161.8)" cx="1217.8127" cy="1814.7185" rx="0.08996582" ry="0.08996582"/>
	<ellipse transform="matrix(14.6985 0 -0 -14.6985 -17450 27161.8)" cx="1213.943" cy="1814.234" rx="0.08996582" ry="0.08996582"/>
	<ellipse transform="matrix(14.6985 0 -0 -14.6985 -17450 27161.8)" cx="1210.0731" cy="1813.7495" rx="0.08996582" ry="0.08996582"/>
	<ellipse transform="matrix(14.6985 0 -0 -14.6985 -17450 27161.8)" cx="1207.3688" cy="1811.6005" rx="0.08996582" ry="0.08996582"/>
	<ellipse transform="matrix(14.6985 0 -0 -14.6985 -17450 27161.8)" cx="1204.83" cy="1808.64" rx="0.08996582" ry="0.08996582"/>
	<ellipse transform="matrix(14.6985 0 -0 -14.6985 -17450 27161.8)" cx="1268.3264" cy="1816.1516" rx="0.08996582" ry="0.08996582"/>
	<ellipse transform="matrix(14.6985 0 -0 -14.6985 -17450 27161.8)" cx="1271.2932" cy="1814.467" rx="0.08996582" ry="0.08996582"/>
</svg>
