<?xml version="1.0" encoding="utf-8" ?>
<svg xmlns="http://www.w3.org/2000/svg" xmlns:xlink="http://www.w3.org/1999/xlink" width="1500" height="900">
	<rect fill="white" width="1500" height="900"/>
	<path fill="none" stroke="black" stroke-width="0.044999998" stroke-miterlimit="4" transform="matrix(26.8657 0 -0 -26.8657 -30304.6 28003.6)" d="M1147.55 1017.53L1147.55 1019.15"/>
	<path fill="none" stroke="black" stroke-width="0.044999998" stroke-miterlimit="4" transform="matrix(26.8657 0 -0 -26.8657 -30304.6 28003.6)" d="M1147.55 1032.06L1147.55 1033.68"/>
	<text transform="matrix(26.8657 0 0 26.8657 -30304.6 28003.6)" font-size="0.67499995" font-family="Helvetica" x="1146.3573, " y="-1017.5339, ">
			1
	</text>
	<text transform="matrix(26.8657 0 0 26.8657 -30304.6 28003.6)" font-size="0.67499995" font-family="Helvetica" x="1146.3573, " y="-1033.675, ">
			1
	</text>
	<path fill="none" stroke="black" stroke-width="0.044999998" stroke-miterlimit="4" transform="matrix(26.8657 0 -0 -26.8657 -30304.6 28003.6)" d="M1155.92 1017.53L1155.92 1019.15"/>
	<path fill="none" stroke="black" stroke-width="0.044999998" stroke-miterlimit="4" transform="matrix(26.8657 0 -0 -26.8657 -30304.6 28003.6)" d="M1155.92 1032.06L1155.92 1033.68"/>
	<text transform="matrix(26.8657 0 0 26.8657 -30304.6 28003.6)" font-size="0.67499995" font-family="Helvetica" x="1154.7323, " y="-1017.5339, ">
			2
	</text>
	<text transform="matrix(26.8657 0 0 26.8657 -30304.6 28003.6)" font-size="0.67499995" font-family="Helvetica" x="1154.7323, " y="-1033.675, ">
			2
	</text>
	<path fill="none" stroke="black" stroke-width="0.044999998" stroke-miterlimit="4" transform="matrix(26.8657 0 -0 -26.8657 -30304.6 28003.6)" d="M1164.29 1017.53L1164.29 1019.15"/>
	<path fill="none" stroke="black" stroke-width="0.044999998" stroke-miterlimit="4" transform="matrix(26.8657 0 -0 -26.8657 -30304.6 28003.6)" d="M1164.29 1032.06L1164.29 1033.68"/>
	<text transform="matrix(26.8657 0 0 26.8657 -30304.6 28003.6)" font-size="0.67499995" font-family="Helvetica" x="1163.1072, " y="-1017.5339, ">
			3
	</text>
	<text transform="matrix(26.8657 0 0 26.8657 -30304.6 28003.6)" font-size="0.67499995" font-family="Helvetica" x="1163.1072, " y="-1033.675, ">
			3
	</text>
	<path fill="none" stroke="black" stroke-width="0.044999998" stroke-miterlimit="4" transform="matrix(26.8657 0 -0 -26.8657 -30304.6 28003.6)" d="M1181.04 1018.88L1130.8 1023.82L1140.45 1032.33L1171.89 1028.27L1181.04 1018.88Z"/>
	<path fill="none" stroke="gray" stroke-width="0.022499999" stroke-miterlimit="4" transform="matrix(26.8657 0 -0 -26.8657 -30304.6 28003.6)" d="M1132.29 1023.67L1179.33 1019.04L1171.36 1027.22L1140.81 1031.17L1132.29 1023.67Z"/>
	<path fill="none" stroke="gray" stroke-width="0.022499999" stroke-miterlimit="4" transform="matrix(26.8657 0 -0 -26.8657 -30304.6 28003.6)" d="M1134.59 1023.44L1176.72 1019.29L1170.57 1025.61L1141.34 1029.38L1134.59 1023.44Z"/>
	<path fill="none" stroke="gray" stroke-width="0.022499999" stroke-miterlimit="4" transform="matrix(26.8657 0 -0 -26.8657 -30304.6 28003.6)" d="M1138.13 1023.09L1172.7 1019.68L1169.33 1023.15L1142.17 1026.65L1138.13 1023.09Z"/>
	<path fill="none" stroke="gray" stroke-width="0.022499999" stroke-miterlimit="4" transform="matrix(26.8657 0 -0 -26.8657 -30304.6 28003.6)" d="M1141.66 1022.74L1168.7 1020.07L1168.1 1020.69L1143.02 1023.93L1141.66 1022.74Z"/>
	<ellipse fill="none" stroke="red" stroke-width="0.044999998" stroke-miterlimit="4" transform="matrix(26.8657 0 -0 -26.8657 -30304.6 28003.6)" cx="1131.4849" cy="1024.4316" rx="0.18005371" ry="0.18005371"/>
	<ellipse fill="none" stroke="red" stroke-width="0.044999998" stroke-miterlimit="4" transform="matrix(26.8657 0 -0 -26.8657 -30304.6 28003.6)" cx="1132.1748" cy="1025.0392" rx="0.18005371" ry="0.18005371"/>
	<ellipse fill="none" stroke="red" stroke-width="0.044999998" stroke-miterlimit="4" transform="matrix(26.8657 0 -0 -26.8657 -30304.6 28003.6)" cx="1132.8646" cy="1025.6467" rx="0.18005371" ry="0.18005371"/>
	<ellipse fill="none" stroke="red" stroke-width="0.044999998" stroke-miterlimit="4" transform="matrix(26.8657 0 -0 -26.8657 -30304.6 28003.6)" cx="1133.5544" cy="1026.2543" rx="0.18005371" ry="0.18005371"/>
	<ellipse fill="none" stroke="red" stroke-width="0.044999998" stroke-miterlimit="4" transform="matrix(26.8657 0 -0 -26.8657 -30304.6 28003.6)" cx="1134.2444" cy="1026.8618" rx="0.18005371" ry="0.18005371"/>
	<ellipse fill="none" stroke="red" stroke-width="0.044999998" stroke-miterlimit="4" transform="matrix(26.8657 0 -0 -26.8657 -30304.6 28003.6)" cx="1134.9342" cy="1027.4695" rx="0.18005371" ry="0.18005371"/>
	<ellipse fill="none" stroke="red" stroke-width="0.044999998" stroke-miterlimit="4" transform="matrix(26.8657 0 -0 -26.8657 -30304.6 28003.6)" cx="1135.624" cy="1028.077" rx="0.18005371" ry="0.18005371"/>
	<ellipse fill="none" stroke="red" stroke-width="0.044999998" stroke-miterlimit="4" transform="matrix(26.8657 0 -0 -26.8657 -30304.6 28003.6)" cx="1136.3138" cy="1028.6846" rx="0.18005371" ry="0.18005371"/>
	<ellipse fill="none" stroke="red" stroke-width="0.044999998" stroke-miterlimit="4" transform="matrix(26.8657 0 -0 -26.8657 -30304.6 28003.6)" cx="1137.0038" cy="1029.2921" rx="0.18005371" ry="0.18005371"/>
	<ellipse fill="none" stroke="red" stroke-width="0.044999998" stroke-miterlimit="4" transform="matrix(26.8657 0 -0 -26.8657 -30304.6 28003.6)" cx="1137.6936" cy="1029.8997" rx="0.18005371" ry="0.18005371"/>
	<ellipse fill="none" stroke="red" stroke-width="0.044999998" stroke-miterlimit="4" transform="matrix(26.8657 0 -0 -26.8657 -30304.6 28003.6)" cx="1138.3834" cy="1030.5073" rx="0.18005371" ry="0.18005371"/>
	<ellipse fill="none" stroke="red" stroke-width="0.044999998" stroke-miterlimit="4" transform="matrix(26.8657 0 -0 -26.8657 -30304.6 28003.6)" cx="1139.0734" cy="1031.1149" rx="0.18005371" ry="0.18005371"/>
	<ellipse fill="none" stroke="red" stroke-width="0.044999998" stroke-miterlimit="4" transform="matrix(26.8657 0 -0 -26.8657 -30304.6 28003.6)" cx="1139.7632" cy="1031.7224" rx="0.18005371" ry="0.18005371"/>
	<ellipse fill="none" stroke="red" stroke-width="0.044999998" stroke-miterlimit="4" transform="matrix(26.8657 0 -0 -26.8657 -30304.6 28003.6)" cx="1140.453" cy="1032.33" rx="0.18005371" ry="0.18005371"/>
	<ellipse fill="none" stroke="red" stroke-width="0.044999998" stroke-miterlimit="4" transform="matrix(26.8657 0 -0 -26.8657 -30304.6 28003.6)" cx="1141.3512" cy="1032.2141" rx="0.18005371" ry="0.18005371"/>
	<ellipse fill="none" stroke="red" stroke-width="0.044999998" stroke-miterlimit="4" transform="matrix(26.8657 0 -0 -26.8657 -30304.6 28003.6)" cx="1142.2494" cy="1032.0981" rx="0.18005371" ry="0.18005371"/>
	<ellipse fill="none" stroke="red" stroke-width="0.044999998" stroke-miterlimit="4" transform="matrix(26.8657 0 -0 -26.8657 -30304.6 28003.6)" cx="1143.1476" cy="1031.9822" rx="0.18005371" ry="0.18005371"/>
	<ellipse fill="none" stroke="red" stroke-width="0.044999998" stroke-miterlimit="4" transform="matrix(26.8657 0 -0 -26.8657 -30304.6 28003.6)" cx="1144.0457" cy="1031.8662" rx="0.18005371" ry="0.18005371"/>
	<ellipse fill="none" stroke="red" stroke-width="0.044999998" stroke-miterlimit="4" transform="matrix(26.8657 0 -0 -26.8657 -30304.6 28003.6)" cx="1144.9438" cy="1031.7502" rx="0.18005371" ry="0.18005371"/>
	<ellipse fill="none" stroke="red" stroke-width="0.044999998" stroke-miterlimit="4" transform="matrix(26.8657 0 -0 -26.8657 -30304.6 28003.6)" cx="1145.842" cy="1031.6344" rx="0.18005371" ry="0.18005371"/>
	<ellipse fill="none" stroke="red" stroke-width="0.044999998" stroke-miterlimit="4" transform="matrix(26.8657 0 -0 -26.8657 -30304.6 28003.6)" cx="1146.7402" cy="1031.5184" rx="0.18005371" ry="0.18005371"/>
	<ellipse fill="none" stroke="red" stroke-width="0.044999998" stroke-miterlimit="4" transform="matrix(26.8657 0 -0 -26.8657 -30304.6 28003.6)" cx="1147.6384" cy="1031.4025" rx="0.18005371" ry="0.18005371"/>
	<ellipse fill="none" stroke="red" stroke-width="0.044999998" stroke-miterlimit="4" transform="matrix(26.8657 0 -0 -26.8657 -30304.6 28003.6)" cx="1148.5365" cy="1031.2865" rx="0.18005371" ry="0.18005371"/>
	<ellipse fill="none" stroke="red" stroke-width="0.044999998" stroke-miterlimit="4" transform="matrix(26.8657 0 -0 -26.8657 -30304.6 28003.6)" cx="1149.4347" cy="1031.1705" rx="0.18005371" ry="0.18005371"/>
	<ellipse fill="none" stroke="red" stroke-width="0.044999998" stroke-miterlimit="4" transform="matrix(26.8657 0 -0 -26.8657 -30304.6 28003.6)" cx="1150.3329" cy="1031.0547" rx="0.18005371" ry="0.18005371"/>
	<ellipse fill="none" stroke="red" stroke-width="0.044999998" stroke-miterlimit="4" transform="matrix(26.8657 0 -0 -26.8657 -30304.6 28003.6)" cx="1151.2311" cy="1030.9387" rx="0.18005371" ry="0.18005371"/>
	<ellipse fill="none" stroke="red" stroke-width="0.044999998" stroke-miterlimit="4" transform="matrix(26.8657 0 -0 -26.8657 -30304.6 28003.6)" cx="1152.1293" cy="1030.8228" rx="0.18005371" ry="0.18005371"/>
	<ellipse fill="none" stroke="red" stroke-width="0.044999998" stroke-miterlimit="4" transform="matrix(26.8657 0 -0 -26.8657 -30304.6 28003.6)" cx="1153.0273" cy="1030.7068" rx="0.18005371" ry="0.18005371"/>
	<ellipse fill="none" stroke="red" stroke-width="0.044999998" stroke-miterlimit="4" transform="matrix(26.8657 0 -0 -26.8657 -30304.6 28003.6)" cx="1153.9255" cy="1030.5908" rx="0.18005371" ry="0.18005371"/>
	<ellipse fill="none" stroke="red" stroke-width="0.044999998" stroke-miterlimit="4" transform="matrix(26.8657 0 -0 -26.8657 -30304.6 28003.6)" cx="1154.8237" cy="1030.475" rx="0.18005371" ry="0.18005371"/>
	<ellipse fill="none" stroke="red" stroke-width="0.044999998" stroke-miterlimit="4" transform="matrix(26.8657 0 -0 -26.8657 -30304.6 28003.6)" cx="1155.7219" cy="1030.359" rx="0.18005371" ry="0.18005371"/>
	<ellipse fill="none" stroke="red" stroke-width="0.044999998" stroke-miterlimit="4" transform="matrix(26.8657 0 -0 -26.8657 -30304.6 28003.6)" cx="1156.6201" cy="1030.243" rx="0.18005371" ry="0.18005371"/>
	<ellipse fill="none" stroke="red" stroke-width="0.044999998" stroke-miterlimit="4" transform="matrix(26.8657 0 -0 -26.8657 -30304.6 28003.6)" cx="1157.5183" cy="1030.1271" rx="0.18005371" ry="0.18005371"/>
	<ellipse fill="none" stroke="red" stroke-width="0.044999998" stroke-miterlimit="4" transform="matrix(26.8657 0 -0 -26.8657 -30304.6 28003.6)" cx="1158.4164" cy="1030.0111" rx="0.18005371" ry="0.18005371"/>
	<ellipse fill="none" stroke="red" stroke-width="0.044999998" stroke-miterlimit="4" transform="matrix(26.8657 0 -0 -26.8657 -30304.6 28003.6)" cx="1159.3146" cy="1029.8953" rx="0.18005371" ry="0.18005371"/>
	<ellipse fill="none" stroke="red" stroke-width="0.044999998" stroke-miterlimit="4" transform="matrix(26.8657 0 -0 -26.8657 -30304.6 28003.6)" cx="1160.2128" cy="1029.7793" rx="0.18005371" ry="0.18005371"/>
	<ellipse fill="none" stroke="red" stroke-width="0.044999998" stroke-miterlimit="4" transform="matrix(26.8657 0 -0 -26.8657 -30304.6 28003.6)" cx="1161.111" cy="1029.6633" rx="0.18005371" ry="0.18005371"/>
	<ellipse fill="none" stroke="red" stroke-width="0.044999998" stroke-miterlimit="4" transform="matrix(26.8657 0 -0 -26.8657 -30304.6 28003.6)" cx="1162.0092" cy="1029.5474" rx="0.18005371" ry="0.18005371"/>
	<ellipse fill="none" stroke="red" stroke-width="0.044999998" stroke-miterlimit="4" transform="matrix(26.8657 0 -0 -26.8657 -30304.6 28003.6)" cx="1162.9072" cy="1029.4314" rx="0.18005371" ry="0.18005371"/>
	<ellipse fill="none" stroke="red" stroke-width="0.044999998" stroke-miterlimit="4" transform="matrix(26.8657 0 -0 -26.8657 -30304.6 28003.6)" cx="1163.8054" cy="1029.3154" rx="0.18005371" ry="0.18005371"/>
	<ellipse fill="none" stroke="red" stroke-width="0.044999998" stroke-miterlimit="4" transform="matrix(26.8657 0 -0 -26.8657 -30304.6 28003.6)" cx="1164.7036" cy="1029.1996" rx="0.18005371" ry="0.18005371"/>
	<ellipse fill="none" stroke="red" stroke-width="0.044999998" stroke-miterlimit="4" transform="matrix(26.8657 0 -0 -26.8657 -30304.6 28003.6)" cx="1165.6018" cy="1029.0836" rx="0.18005371" ry="0.18005371"/>
	<ellipse fill="none" stroke="red" stroke-width="0.044999998" stroke-miterlimit="4" transform="matrix(26.8657 0 -0 -26.8657 -30304.6 28003.6)" cx="1166.5" cy="1028.9677" rx="0.18005371" ry="0.18005371"/>
	<ellipse fill="none" stroke="red" stroke-width="0.044999998" stroke-miterlimit="4" transform="matrix(26.8657 0 -0 -26.8657 -30304.6 28003.6)" cx="1167.3981" cy="1028.8517" rx="0.18005371" ry="0.18005371"/>
	<ellipse fill="none" stroke="red" stroke-width="0.044999998" stroke-miterlimit="4" transform="matrix(26.8657 0 -0 -26.8657 -30304.6 28003.6)" cx="1168.2963" cy="1028.7357" rx="0.18005371" ry="0.18005371"/>
	<ellipse fill="none" stroke="red" stroke-width="0.044999998" stroke-miterlimit="4" transform="matrix(26.8657 0 -0 -26.8657 -30304.6 28003.6)" cx="1169.1945" cy="1028.6199" rx="0.18005371" ry="0.18005371"/>
	<ellipse fill="none" stroke="red" stroke-width="0.044999998" stroke-miterlimit="4" transform="matrix(26.8657 0 -0 -26.8657 -30304.6 28003.6)" cx="1170.0927" cy="1028.5039" rx="0.18005371" ry="0.18005371"/>
	<ellipse fill="none" stroke="red" stroke-width="0.044999998" stroke-miterlimit="4" transform="matrix(26.8657 0 -0 -26.8657 -30304.6 28003.6)" cx="1170.9908" cy="1028.3879" rx="0.18005371" ry="0.18005371"/>
	<ellipse fill="none" stroke="red" stroke-width="0.044999998" stroke-miterlimit="4" transform="matrix(26.8657 0 -0 -26.8657 -30304.6 28003.6)" cx="1171.8889" cy="1028.272" rx="0.18005371" ry="0.18005371"/>
	<ellipse fill="none" stroke="red" stroke-width="0.044999998" stroke-miterlimit="4" transform="matrix(26.8657 0 -0 -26.8657 -30304.6 28003.6)" cx="1172.4994" cy="1027.6458" rx="0.18005371" ry="0.18005371"/>
	<ellipse fill="none" stroke="red" stroke-width="0.044999998" stroke-miterlimit="4" transform="matrix(26.8657 0 -0 -26.8657 -30304.6 28003.6)" cx="1173.1097" cy="1027.0197" rx="0.18005371" ry="0.18005371"/>
	<ellipse fill="none" stroke="red" stroke-width="0.044999998" stroke-miterlimit="4" transform="matrix(26.8657 0 -0 -26.8657 -30304.6 28003.6)" cx="1173.7202" cy="1026.3934" rx="0.18005371" ry="0.18005371"/>
	<ellipse fill="none" stroke="red" stroke-width="0.044999998" stroke-miterlimit="4" transform="matrix(26.8657 0 -0 -26.8657 -30304.6 28003.6)" cx="1174.3306" cy="1025.7672" rx="0.18005371" ry="0.18005371"/>
	<ellipse fill="none" stroke="red" stroke-width="0.044999998" stroke-miterlimit="4" transform="matrix(26.8657 0 -0 -26.8657 -30304.6 28003.6)" cx="1174.9409" cy="1025.141" rx="0.18005371" ry="0.18005371"/>
	<ellipse fill="none" stroke="red" stroke-width="0.044999998" stroke-miterlimit="4" transform="matrix(26.8657 0 -0 -26.8657 -30304.6 28003.6)" cx="1175.5514" cy="1024.5148" rx="0.18005371" ry="0.18005371"/>
	<ellipse fill="none" stroke="red" stroke-width="0.044999998" stroke-miterlimit="4" transform="matrix(26.8657 0 -0 -26.8657 -30304.6 28003.6)" cx="1176.1617" cy="1023.8886" rx="0.18005371" ry="0.17999268"/>
	<ellipse fill="none" stroke="red" stroke-width="0.044999998" stroke-miterlimit="4" transform="matrix(26.8657 0 -0 -26.8657 -30304.6 28003.6)" cx="1176.7721" cy="1023.2624" rx="0.18005371" ry="0.17999268"/>
	<ellipse fill="none" stroke="red" stroke-width="0.044999998" stroke-miterlimit="4" transform="matrix(26.8657 0 -0 -26.8657 -30304.6 28003.6)" cx="1177.3826" cy="1022.6362" rx="0.18005371" ry="0.17999268"/>
	<ellipse fill="none" stroke="red" stroke-width="0.044999998" stroke-miterlimit="4" transform="matrix(26.8657 0 -0 -26.8657 -30304.6 28003.6)" cx="1177.9929" cy="1022.01" rx="0.18005371" ry="0.17999268"/>
	<ellipse fill="none" stroke="red" stroke-width="0.044999998" stroke-miterlimit="4" transform="matrix(26.8657 0 -0 -26.8657 -30304.6 28003.6)" cx="1178.6034" cy="1021.3839" rx="0.18005371" ry="0.17999268"/>
	<ellipse fill="none" stroke="red" stroke-width="0.044999998" stroke-miterlimit="4" transform="matrix(26.8657 0 -0 -26.8657 -30304.6 28003.6)" cx="1179.2137" cy="1020.7576" rx="0.18005371" ry="0.17999268"/>
	<ellipse fill="none" stroke="red" stroke-width="0.044999998" stroke-miterlimit="4" transform="matrix(26.8657 0 -0 -26.8657 -30304.6 28003.6)" cx="1179.8241" cy="1020.1314" rx="0.18005371" ry="0.17999268"/>
	<ellipse fill="none" stroke="red" stroke-width="0.044999998" stroke-miterlimit="4" transform="matrix(26.8657 0 -0 -26.8657 -30304.6 28003.6)" cx="1180.4346" cy="1019.5052" rx="0.18005371" ry="0.17999268"/>
	<ellipse fill="none" stroke="purple" stroke-width="0.044999998" stroke-miterlimit="4" transform="matrix(26.8657 0 -0 -26.8657 -30304.6 28003.6)" cx="1177.5496" cy="1020.8673" rx="0.18005371" ry="0.17999268"/>
	<ellipse fill="none" stroke="purple" stroke-width="0.044999998" stroke-miterlimit="4" transform="matrix(26.8657 0 -0 -26.8657 -30304.6 28003.6)" cx="1175.7693" cy="1022.6946" rx="0.18005371" ry="0.17999268"/>
	<ellipse fill="none" stroke="purple" stroke-width="0.044999998" stroke-miterlimit="4" transform="matrix(26.8657 0 -0 -26.8657 -30304.6 28003.6)" cx="1173.9889" cy="1024.5219" rx="0.18005371" ry="0.18005371"/>
	<ellipse fill="none" stroke="purple" stroke-width="0.044999998" stroke-miterlimit="4" transform="matrix(26.8657 0 -0 -26.8657 -30304.6 28003.6)" cx="1172.2085" cy="1026.3491" rx="0.18005371" ry="0.18005371"/>
	<ellipse fill="none" stroke="purple" stroke-width="0.044999998" stroke-miterlimit="4" transform="matrix(26.8657 0 -0 -26.8657 -30304.6 28003.6)" cx="1170.0356" cy="1027.3912" rx="0.18005371" ry="0.18005371"/>
	<ellipse fill="none" stroke="purple" stroke-width="0.044999998" stroke-miterlimit="4" transform="matrix(26.8657 0 -0 -26.8657 -30304.6 28003.6)" cx="1167.5055" cy="1027.7184" rx="0.18005371" ry="0.18005371"/>
	<ellipse fill="none" stroke="purple" stroke-width="0.044999998" stroke-miterlimit="4" transform="matrix(26.8657 0 -0 -26.8657 -30304.6 28003.6)" cx="1164.9752" cy="1028.0455" rx="0.18005371" ry="0.18005371"/>
	<ellipse fill="none" stroke="purple" stroke-width="0.044999998" stroke-miterlimit="4" transform="matrix(26.8657 0 -0 -26.8657 -30304.6 28003.6)" cx="1162.4451" cy="1028.3727" rx="0.18005371" ry="0.18005371"/>
	<ellipse fill="none" stroke="purple" stroke-width="0.044999998" stroke-miterlimit="4" transform="matrix(26.8657 0 -0 -26.8657 -30304.6 28003.6)" cx="1159.9149" cy="1028.6998" rx="0.18005371" ry="0.18005371"/>
	<ellipse fill="none" stroke="purple" stroke-width="0.044999998" stroke-miterlimit="4" transform="matrix(26.8657 0 -0 -26.8657 -30304.6 28003.6)" cx="1157.3848" cy="1029.027" rx="0.18005371" ry="0.18005371"/>
	<ellipse fill="none" stroke="purple" stroke-width="0.044999998" stroke-miterlimit="4" transform="matrix(26.8657 0 -0 -26.8657 -30304.6 28003.6)" cx="1154.8546" cy="1029.3541" rx="0.18005371" ry="0.18005371"/>
	<ellipse fill="none" stroke="purple" stroke-width="0.044999998" stroke-miterlimit="4" transform="matrix(26.8657 0 -0 -26.8657 -30304.6 28003.6)" cx="1152.3245" cy="1029.6813" rx="0.18005371" ry="0.18005371"/>
	<ellipse fill="none" stroke="purple" stroke-width="0.044999998" stroke-miterlimit="4" transform="matrix(26.8657 0 -0 -26.8657 -30304.6 28003.6)" cx="1149.7943" cy="1030.0084" rx="0.18005371" ry="0.18005371"/>
	<ellipse fill="none" stroke="purple" stroke-width="0.044999998" stroke-miterlimit="4" transform="matrix(26.8657 0 -0 -26.8657 -30304.6 28003.6)" cx="1147.264" cy="1030.3354" rx="0.18005371" ry="0.18005371"/>
	<ellipse fill="none" stroke="purple" stroke-width="0.044999998" stroke-miterlimit="4" transform="matrix(26.8657 0 -0 -26.8657 -30304.6 28003.6)" cx="1144.7339" cy="1030.6626" rx="0.18005371" ry="0.18005371"/>
	<ellipse fill="none" stroke="purple" stroke-width="0.044999998" stroke-miterlimit="4" transform="matrix(26.8657 0 -0 -26.8657 -30304.6 28003.6)" cx="1142.2037" cy="1030.9897" rx="0.18005371" ry="0.18005371"/>
	<ellipse fill="none" stroke="purple" stroke-width="0.044999998" stroke-miterlimit="4" transform="matrix(26.8657 0 -0 -26.8657 -30304.6 28003.6)" cx="1139.95" cy="1030.4128" rx="0.18005371" ry="0.18005371"/>
	<ellipse fill="none" stroke="purple" stroke-width="0.044999998" stroke-miterlimit="4" transform="matrix(26.8657 0 -0 -26.8657 -30304.6 28003.6)" cx="1138.0349" cy="1028.7272" rx="0.18005371" ry="0.18005371"/>
	<ellipse fill="none" stroke="purple" stroke-width="0.044999998" stroke-miterlimit="4" transform="matrix(26.8657 0 -0 -26.8657 -30304.6 28003.6)" cx="1136.12" cy="1027.0414" rx="0.18005371" ry="0.18005371"/>
	<ellipse fill="none" stroke="purple" stroke-width="0.044999998" stroke-miterlimit="4" transform="matrix(26.8657 0 -0 -26.8657 -30304.6 28003.6)" cx="1134.205" cy="1025.3557" rx="0.18005371" ry="0.18005371"/>
	<ellipse fill="none" stroke="black" stroke-width="0.044999998" stroke-miterlimit="4" transform="matrix(26.8657 0 -0 -26.8657 -30304.6 28003.6)" cx="1173.9722" cy="1022.1138" rx="0.18005371" ry="0.17999268"/>
	<ellipse fill="none" stroke="black" stroke-width="0.044999998" stroke-miterlimit="4" transform="matrix(26.8657 0 -0 -26.8657 -30304.6 28003.6)" cx="1171.2242" cy="1024.9376" rx="0.18005371" ry="0.18005371"/>
	<ellipse fill="none" stroke="black" stroke-width="0.044999998" stroke-miterlimit="4" transform="matrix(26.8657 0 -0 -26.8657 -30304.6 28003.6)" cx="1167.5927" cy="1025.994" rx="0.18005371" ry="0.18005371"/>
	<ellipse fill="none" stroke="black" stroke-width="0.044999998" stroke-miterlimit="4" transform="matrix(26.8657 0 -0 -26.8657 -30304.6 28003.6)" cx="1163.6848" cy="1026.498" rx="0.18005371" ry="0.18005371"/>
	<ellipse fill="none" stroke="black" stroke-width="0.044999998" stroke-miterlimit="4" transform="matrix(26.8657 0 -0 -26.8657 -30304.6 28003.6)" cx="1159.777" cy="1027.0021" rx="0.18005371" ry="0.18005371"/>
	<ellipse fill="none" stroke="black" stroke-width="0.044999998" stroke-miterlimit="4" transform="matrix(26.8657 0 -0 -26.8657 -30304.6 28003.6)" cx="1155.8693" cy="1027.5061" rx="0.18005371" ry="0.18005371"/>
	<ellipse fill="none" stroke="black" stroke-width="0.044999998" stroke-miterlimit="4" transform="matrix(26.8657 0 -0 -26.8657 -30304.6 28003.6)" cx="1151.9614" cy="1028.0101" rx="0.18005371" ry="0.18005371"/>
	<ellipse fill="none" stroke="black" stroke-width="0.044999998" stroke-miterlimit="4" transform="matrix(26.8657 0 -0 -26.8657 -30304.6 28003.6)" cx="1148.0536" cy="1028.514" rx="0.18005371" ry="0.18005371"/>
	<ellipse fill="none" stroke="black" stroke-width="0.044999998" stroke-miterlimit="4" transform="matrix(26.8657 0 -0 -26.8657 -30304.6 28003.6)" cx="1144.1459" cy="1029.0181" rx="0.18005371" ry="0.18005371"/>
	<ellipse fill="none" stroke="black" stroke-width="0.044999998" stroke-miterlimit="4" transform="matrix(26.8657 0 -0 -26.8657 -30304.6 28003.6)" cx="1140.5059" cy="1028.646" rx="0.18005371" ry="0.18005371"/>
	<ellipse fill="none" stroke="black" stroke-width="0.044999998" stroke-miterlimit="4" transform="matrix(26.8657 0 -0 -26.8657 -30304.6 28003.6)" cx="1137.548" cy="1026.043" rx="0.18005371" ry="0.18005371"/>
	<ellipse fill="none" stroke="black" stroke-width="0.044999998" stroke-miterlimit="4" transform="matrix(26.8657 0 -0 -26.8657 -30304.6 28003.6)" cx="1170.08" cy="1022.3777" rx="0.18005371" ry="0.17999268"/>
	<ellipse fill="none" stroke="black" stroke-width="0.044999998" stroke-miterlimit="4" transform="matrix(26.8657 0 -0 -26.8657 -30304.6 28003.6)" cx="1166.6678" cy="1023.493" rx="0.18005371" ry="0.17999268"/>
	<ellipse fill="none" stroke="black" stroke-width="0.044999998" stroke-miterlimit="4" transform="matrix(26.8657 0 -0 -26.8657 -30304.6 28003.6)" cx="1162.9381" cy="1023.9737" rx="0.18005371" ry="0.17999268"/>
	<ellipse fill="none" stroke="black" stroke-width="0.044999998" stroke-miterlimit="4" transform="matrix(26.8657 0 -0 -26.8657 -30304.6 28003.6)" cx="1159.2083" cy="1024.4543" rx="0.18005371" ry="0.18005371"/>
	<ellipse fill="none" stroke="black" stroke-width="0.044999998" stroke-miterlimit="4" transform="matrix(26.8657 0 -0 -26.8657 -30304.6 28003.6)" cx="1155.4784" cy="1024.9349" rx="0.18005371" ry="0.18005371"/>
	<ellipse fill="none" stroke="black" stroke-width="0.044999998" stroke-miterlimit="4" transform="matrix(26.8657 0 -0 -26.8657 -30304.6 28003.6)" cx="1151.7487" cy="1025.4156" rx="0.18005371" ry="0.18005371"/>
	<ellipse fill="none" stroke="black" stroke-width="0.044999998" stroke-miterlimit="4" transform="matrix(26.8657 0 -0 -26.8657 -30304.6 28003.6)" cx="1148.0188" cy="1025.8962" rx="0.18005371" ry="0.18005371"/>
	<ellipse fill="none" stroke="black" stroke-width="0.044999998" stroke-miterlimit="4" transform="matrix(26.8657 0 -0 -26.8657 -30304.6 28003.6)" cx="1144.2891" cy="1026.377" rx="0.18005371" ry="0.18005371"/>
	<ellipse fill="none" stroke="black" stroke-width="0.044999998" stroke-miterlimit="4" transform="matrix(26.8657 0 -0 -26.8657 -30304.6 28003.6)" cx="1140.9515" cy="1025.5763" rx="0.18005371" ry="0.18005371"/>
	<ellipse fill="none" stroke="black" stroke-width="0.044999998" stroke-miterlimit="4" transform="matrix(26.8657 0 -0 -26.8657 -30304.6 28003.6)" cx="1149.15" cy="1023.1381" rx="0.18005371" ry="0.17999268"/>
	<ellipse fill="none" stroke="black" stroke-width="0.044999998" stroke-miterlimit="4" transform="matrix(26.8657 0 -0 -26.8657 -30304.6 28003.6)" cx="1145.1888" cy="1023.6498" rx="0.18005371" ry="0.17999268"/>
</svg>
