<?xml version="1.0" encoding="utf-8" ?>
<svg xmlns="http://www.w3.org/2000/svg" xmlns:xlink="http://www.w3.org/1999/xlink" width="1500" height="900">
	<rect fill="white" width="1500" height="900"/>
	<path fill="none" stroke="#696969" stroke-width="0.044999998" stroke-miterlimit="4" transform="matrix(26.8657 0 -0 -26.8657 -30304.6 28003.6)" d="M1153.09 1017.53L1153.09 1022.82"/>
	<path fill="#696969" transform="matrix(26.8657 0 -0 -26.8657 -30304.6 28003.6)" d="M1153.09 1020.18L1153.2 1019.95L1152.97 1019.95L1153.09 1020.18Z"/>
	<path fill="none" stroke="#696969" stroke-width="0.044999998" stroke-miterlimit="4" transform="matrix(26.8657 0 -0 -26.8657 -30304.6 28003.6)" d="M1153.09 1022.82L1157.15 1022.3"/>
	<path fill="#696969" transform="matrix(26.8657 0 -0 -26.8657 -30304.6 28003.6)" d="M1155.12 1022.56L1154.88 1022.48L1154.91 1022.7L1155.12 1022.56Z"/>
	<path fill="none" stroke="#696969" stroke-width="0.044999998" stroke-miterlimit="4" transform="matrix(26.8657 0 -0 -26.8657 -30304.6 28003.6)" d="M1153.09 1022.82L1149.03 1023.35"/>
	<path fill="#696969" transform="matrix(26.8657 0 -0 -26.8657 -30304.6 28003.6)" d="M1151.06 1023.08L1151.29 1023.17L1151.27 1022.94L1151.06 1023.08Z"/>
	<path fill="none" stroke="#696969" stroke-width="0.044999998" stroke-miterlimit="4" transform="matrix(26.8657 0 -0 -26.8657 -30304.6 28003.6)" d="M1149.03 1023.35L1144.97 1023.87"/>
	<path fill="#696969" transform="matrix(26.8657 0 -0 -26.8657 -30304.6 28003.6)" d="M1147 1023.61L1147.23 1023.69L1147.2 1023.47L1147 1023.61Z"/>
	<path fill="none" stroke="#696969" stroke-width="0.044999998" stroke-miterlimit="4" transform="matrix(26.8657 0 -0 -26.8657 -30304.6 28003.6)" d="M1153.09 1022.82L1151.71 1025.62"/>
	<path fill="#696969" transform="matrix(26.8657 0 -0 -26.8657 -30304.6 28003.6)" d="M1152.4 1024.22L1152.6 1024.07L1152.39 1023.97L1152.4 1024.22Z"/>
	<path fill="none" stroke="#696969" stroke-width="0.044999998" stroke-miterlimit="4" transform="matrix(26.8657 0 -0 -26.8657 -30304.6 28003.6)" d="M1151.71 1025.62L1155.51 1025.13"/>
	<path fill="#696969" transform="matrix(26.8657 0 -0 -26.8657 -30304.6 28003.6)" d="M1153.61 1025.38L1153.37 1025.3L1153.4 1025.52L1153.61 1025.38Z"/>
	<path fill="none" stroke="#696969" stroke-width="0.044999998" stroke-miterlimit="4" transform="matrix(26.8657 0 -0 -26.8657 -30304.6 28003.6)" d="M1155.51 1025.13L1159.31 1024.64"/>
	<path fill="#696969" transform="matrix(26.8657 0 -0 -26.8657 -30304.6 28003.6)" d="M1157.41 1024.89L1157.17 1024.81L1157.2 1025.03L1157.41 1024.89Z"/>
	<path fill="none" stroke="#696969" stroke-width="0.044999998" stroke-miterlimit="4" transform="matrix(26.8657 0 -0 -26.8657 -30304.6 28003.6)" d="M1159.31 1024.64L1163.11 1024.15"/>
	<path fill="#696969" transform="matrix(26.8657 0 -0 -26.8657 -30304.6 28003.6)" d="M1161.21 1024.4L1160.98 1024.32L1161 1024.54L1161.21 1024.4Z"/>
	<path fill="none" stroke="#696969" stroke-width="0.044999998" stroke-miterlimit="4" transform="matrix(26.8657 0 -0 -26.8657 -30304.6 28003.6)" d="M1163.11 1024.15L1166.92 1023.66"/>
	<path fill="#696969" transform="matrix(26.8657 0 -0 -26.8657 -30304.6 28003.6)" d="M1165.02 1023.91L1164.78 1023.83L1164.81 1024.05L1165.02 1023.91Z"/>
	<path fill="none" stroke="#696969" stroke-width="0.044999998" stroke-miterlimit="4" transform="matrix(26.8657 0 -0 -26.8657 -30304.6 28003.6)" d="M1166.92 1023.66L1170.34 1022.41"/>
	<path fill="#696969" transform="matrix(26.8657 0 -0 -26.8657 -30304.6 28003.6)" d="M1168.63 1023.04L1168.38 1023.01L1168.45 1023.22L1168.63 1023.04Z"/>
	<path fill="none" stroke="#696969" stroke-width="0.044999998" stroke-miterlimit="4" transform="matrix(26.8657 0 -0 -26.8657 -30304.6 28003.6)" d="M1151.71 1025.62L1147.9 1026.11"/>
	<path fill="#696969" transform="matrix(26.8657 0 -0 -26.8657 -30304.6 28003.6)" d="M1149.8 1025.87L1150.04 1025.95L1150.01 1025.73L1149.8 1025.87Z"/>
	<path fill="none" stroke="#696969" stroke-width="0.044999998" stroke-miterlimit="4" transform="matrix(26.8657 0 -0 -26.8657 -30304.6 28003.6)" d="M1147.9 1026.11L1144.1 1026.6"/>
	<path fill="#696969" transform="matrix(26.8657 0 -0 -26.8657 -30304.6 28003.6)" d="M1146 1026.36L1146.24 1026.44L1146.21 1026.22L1146 1026.36Z"/>
	<path fill="none" stroke="#696969" stroke-width="0.044999998" stroke-miterlimit="4" transform="matrix(26.8657 0 -0 -26.8657 -30304.6 28003.6)" d="M1144.1 1026.6L1140.74 1025.65"/>
	<path fill="#696969" transform="matrix(26.8657 0 -0 -26.8657 -30304.6 28003.6)" d="M1142.42 1026.13L1142.61 1026.3L1142.67 1026.08L1142.42 1026.13Z"/>
	<path fill="none" stroke="#696969" stroke-width="0.044999998" stroke-miterlimit="4" transform="matrix(26.8657 0 -0 -26.8657 -30304.6 28003.6)" d="M1151.71 1025.62L1151.93 1028.22"/>
	<path fill="#696969" transform="matrix(26.8657 0 -0 -26.8657 -30304.6 28003.6)" d="M1151.82 1026.92L1151.91 1026.69L1151.69 1026.71L1151.82 1026.92Z"/>
	<path fill="none" stroke="#696969" stroke-width="0.044999998" stroke-miterlimit="4" transform="matrix(26.8657 0 -0 -26.8657 -30304.6 28003.6)" d="M1151.93 1028.22L1155.89 1027.7"/>
	<path fill="#696969" transform="matrix(26.8657 0 -0 -26.8657 -30304.6 28003.6)" d="M1153.91 1027.96L1153.67 1027.88L1153.7 1028.1L1153.91 1027.96Z"/>
	<path fill="none" stroke="#696969" stroke-width="0.044999998" stroke-miterlimit="4" transform="matrix(26.8657 0 -0 -26.8657 -30304.6 28003.6)" d="M1155.89 1027.7L1159.86 1027.19"/>
	<path fill="#696969" transform="matrix(26.8657 0 -0 -26.8657 -30304.6 28003.6)" d="M1157.88 1027.45L1157.64 1027.37L1157.67 1027.59L1157.88 1027.45Z"/>
	<path fill="none" stroke="#696969" stroke-width="0.044999998" stroke-miterlimit="4" transform="matrix(26.8657 0 -0 -26.8657 -30304.6 28003.6)" d="M1159.86 1027.19L1163.83 1026.68"/>
	<path fill="#696969" transform="matrix(26.8657 0 -0 -26.8657 -30304.6 28003.6)" d="M1161.84 1026.94L1161.6 1026.85L1161.63 1027.08L1161.84 1026.94Z"/>
	<path fill="none" stroke="#696969" stroke-width="0.044999998" stroke-miterlimit="4" transform="matrix(26.8657 0 -0 -26.8657 -30304.6 28003.6)" d="M1163.83 1026.68L1167.79 1026.17"/>
	<path fill="#696969" transform="matrix(26.8657 0 -0 -26.8657 -30304.6 28003.6)" d="M1165.81 1026.42L1165.57 1026.34L1165.6 1026.57L1165.81 1026.42Z"/>
	<path fill="none" stroke="#696969" stroke-width="0.044999998" stroke-miterlimit="4" transform="matrix(26.8657 0 -0 -26.8657 -30304.6 28003.6)" d="M1167.79 1026.17L1171.43 1025"/>
	<path fill="#696969" transform="matrix(26.8657 0 -0 -26.8657 -30304.6 28003.6)" d="M1169.61 1025.58L1169.36 1025.55L1169.43 1025.76L1169.61 1025.58Z"/>
	<path fill="none" stroke="#696969" stroke-width="0.044999998" stroke-miterlimit="4" transform="matrix(26.8657 0 -0 -26.8657 -30304.6 28003.6)" d="M1171.43 1025L1174.22 1022.13"/>
	<path fill="#696969" transform="matrix(26.8657 0 -0 -26.8657 -30304.6 28003.6)" d="M1172.82 1023.57L1172.59 1023.65L1172.75 1023.81L1172.82 1023.57Z"/>
	<path fill="none" stroke="#696969" stroke-width="0.044999998" stroke-miterlimit="4" transform="matrix(26.8657 0 -0 -26.8657 -30304.6 28003.6)" d="M1151.93 1028.22L1147.96 1028.73"/>
	<path fill="#696969" transform="matrix(26.8657 0 -0 -26.8657 -30304.6 28003.6)" d="M1149.94 1028.47L1150.18 1028.55L1150.15 1028.33L1149.94 1028.47Z"/>
	<path fill="none" stroke="#696969" stroke-width="0.044999998" stroke-miterlimit="4" transform="matrix(26.8657 0 -0 -26.8657 -30304.6 28003.6)" d="M1147.96 1028.73L1143.99 1029.24"/>
	<path fill="#696969" transform="matrix(26.8657 0 -0 -26.8657 -30304.6 28003.6)" d="M1145.98 1028.98L1146.22 1029.07L1146.19 1028.84L1145.98 1028.98Z"/>
	<path fill="none" stroke="#696969" stroke-width="0.044999998" stroke-miterlimit="4" transform="matrix(26.8657 0 -0 -26.8657 -30304.6 28003.6)" d="M1143.99 1029.24L1140.33 1028.76"/>
	<path fill="#696969" transform="matrix(26.8657 0 -0 -26.8657 -30304.6 28003.6)" d="M1142.16 1029L1142.37 1029.14L1142.4 1028.92L1142.16 1029Z"/>
	<path fill="none" stroke="#696969" stroke-width="0.044999998" stroke-miterlimit="4" transform="matrix(26.8657 0 -0 -26.8657 -30304.6 28003.6)" d="M1140.33 1028.76L1137.33 1026.11"/>
	<path fill="#696969" transform="matrix(26.8657 0 -0 -26.8657 -30304.6 28003.6)" d="M1138.83 1027.43L1138.93 1027.67L1139.08 1027.5L1138.83 1027.43Z"/>
	<path fill="none" stroke="#696969" stroke-width="0.044999998" stroke-miterlimit="4" transform="matrix(26.8657 0 -0 -26.8657 -30304.6 28003.6)" d="M1151.93 1028.22L1150.57 1031.02"/>
	<path fill="#696969" transform="matrix(26.8657 0 -0 -26.8657 -30304.6 28003.6)" d="M1151.25 1029.62L1151.45 1029.47L1151.25 1029.37L1151.25 1029.62Z"/>
	<path fill="none" stroke="#696969" stroke-width="0.044999998" stroke-miterlimit="4" transform="matrix(26.8657 0 -0 -26.8657 -30304.6 28003.6)" d="M1150.57 1031.02L1146.76 1031.52"/>
	<path fill="#696969" transform="matrix(26.8657 0 -0 -26.8657 -30304.6 28003.6)" d="M1148.67 1031.27L1148.9 1031.35L1148.87 1031.13L1148.67 1031.27Z"/>
	<path fill="none" stroke="#696969" stroke-width="0.044999998" stroke-miterlimit="4" transform="matrix(26.8657 0 -0 -26.8657 -30304.6 28003.6)" d="M1146.76 1031.52L1142.94 1032.01"/>
	<path fill="#696969" transform="matrix(26.8657 0 -0 -26.8657 -30304.6 28003.6)" d="M1144.85 1031.76L1145.09 1031.84L1145.06 1031.62L1144.85 1031.76Z"/>
	<path fill="none" stroke="#696969" stroke-width="0.044999998" stroke-miterlimit="4" transform="matrix(26.8657 0 -0 -26.8657 -30304.6 28003.6)" d="M1142.94 1032.01L1139.45 1031.45"/>
	<path fill="#696969" transform="matrix(26.8657 0 -0 -26.8657 -30304.6 28003.6)" d="M1141.2 1031.73L1141.4 1031.88L1141.44 1031.65L1141.2 1031.73Z"/>
	<path fill="none" stroke="#696969" stroke-width="0.044999998" stroke-miterlimit="4" transform="matrix(26.8657 0 -0 -26.8657 -30304.6 28003.6)" d="M1139.45 1031.45L1136.57 1028.91"/>
	<path fill="#696969" transform="matrix(26.8657 0 -0 -26.8657 -30304.6 28003.6)" d="M1138.01 1030.18L1138.1 1030.41L1138.25 1030.24L1138.01 1030.18Z"/>
	<path fill="none" stroke="#696969" stroke-width="0.044999998" stroke-miterlimit="4" transform="matrix(26.8657 0 -0 -26.8657 -30304.6 28003.6)" d="M1136.57 1028.91L1133.68 1026.37"/>
	<path fill="#696969" transform="matrix(26.8657 0 -0 -26.8657 -30304.6 28003.6)" d="M1135.12 1027.64L1135.22 1027.87L1135.37 1027.7L1135.12 1027.64Z"/>
	<path fill="none" stroke="#696969" stroke-width="0.044999998" stroke-miterlimit="4" transform="matrix(26.8657 0 -0 -26.8657 -30304.6 28003.6)" d="M1150.57 1031.02L1154.39 1030.53"/>
	<path fill="#696969" transform="matrix(26.8657 0 -0 -26.8657 -30304.6 28003.6)" d="M1152.48 1030.78L1152.24 1030.69L1152.27 1030.92L1152.48 1030.78Z"/>
	<path fill="none" stroke="#696969" stroke-width="0.044999998" stroke-miterlimit="4" transform="matrix(26.8657 0 -0 -26.8657 -30304.6 28003.6)" d="M1154.39 1030.53L1158.2 1030.04"/>
	<path fill="#696969" transform="matrix(26.8657 0 -0 -26.8657 -30304.6 28003.6)" d="M1156.29 1030.29L1156.06 1030.2L1156.08 1030.43L1156.29 1030.29Z"/>
	<path fill="none" stroke="#696969" stroke-width="0.044999998" stroke-miterlimit="4" transform="matrix(26.8657 0 -0 -26.8657 -30304.6 28003.6)" d="M1158.2 1030.04L1162.01 1029.55"/>
	<path fill="#696969" transform="matrix(26.8657 0 -0 -26.8657 -30304.6 28003.6)" d="M1160.11 1029.79L1159.87 1029.71L1159.9 1029.93L1160.11 1029.79Z"/>
	<path fill="none" stroke="#696969" stroke-width="0.044999998" stroke-miterlimit="4" transform="matrix(26.8657 0 -0 -26.8657 -30304.6 28003.6)" d="M1162.01 1029.55L1165.83 1029.05"/>
	<path fill="#696969" transform="matrix(26.8657 0 -0 -26.8657 -30304.6 28003.6)" d="M1163.92 1029.3L1163.68 1029.22L1163.71 1029.44L1163.92 1029.3Z"/>
	<path fill="none" stroke="#696969" stroke-width="0.044999998" stroke-miterlimit="4" transform="matrix(26.8657 0 -0 -26.8657 -30304.6 28003.6)" d="M1165.83 1029.05L1169.64 1028.56"/>
	<path fill="#696969" transform="matrix(26.8657 0 -0 -26.8657 -30304.6 28003.6)" d="M1167.74 1028.81L1167.5 1028.73L1167.53 1028.95L1167.74 1028.81Z"/>
	<path fill="none" stroke="#696969" stroke-width="0.044999998" stroke-miterlimit="4" transform="matrix(26.8657 0 -0 -26.8657 -30304.6 28003.6)" d="M1169.64 1028.56L1172.99 1027.14"/>
	<path fill="#696969" transform="matrix(26.8657 0 -0 -26.8657 -30304.6 28003.6)" d="M1171.32 1027.85L1171.07 1027.84L1171.15 1028.04L1171.32 1027.85Z"/>
	<path fill="none" stroke="#696969" stroke-width="0.044999998" stroke-miterlimit="4" transform="matrix(26.8657 0 -0 -26.8657 -30304.6 28003.6)" d="M1172.99 1027.14L1175.68 1024.39"/>
	<path fill="#696969" transform="matrix(26.8657 0 -0 -26.8657 -30304.6 28003.6)" d="M1174.33 1025.76L1174.1 1025.85L1174.26 1026L1174.33 1025.76Z"/>
	<path fill="none" stroke="#696969" stroke-width="0.044999998" stroke-miterlimit="4" transform="matrix(26.8657 0 -0 -26.8657 -30304.6 28003.6)" d="M1175.68 1024.39L1178.36 1021.63"/>
	<path fill="#696969" transform="matrix(26.8657 0 -0 -26.8657 -30304.6 28003.6)" d="M1177.02 1023.01L1176.78 1023.09L1176.94 1023.25L1177.02 1023.01Z"/>
	<ellipse fill="red" transform="matrix(26.8657 0 -0 -26.8657 -30304.6 28003.6)" cx="1153.0868" cy="1017.5339" rx="0.44995117" ry="0.45001221"/>
	<ellipse transform="matrix(26.8657 0 -0 -26.8657 -30304.6 28003.6)" cx="1153.0868" cy="1022.8212" rx="0.18005371" ry="0.17999268"/>
	<text transform="matrix(26.8657 0 0 26.8657 -30304.6 28003.6)" font-size="0.44999999" font-family="Helvetica" x="1152.5992, 1152.8495, 1152.9745, 1153.3494, " y="-1023.3712, ">
			0 ms
	</text>
	<ellipse transform="matrix(26.8657 0 -0 -26.8657 -30304.6 28003.6)" cx="1157.1475" cy="1022.297" rx="0.18005371" ry="0.17999268"/>
	<text transform="matrix(26.8657 0 0 26.8657 -30304.6 28003.6)" font-size="0.44999999" font-family="Helvetica" x="1156.5348, 1156.785, 1157.0353, 1157.1604, 1157.5352, " y="-1022.847, ">
			25 ms
	</text>
	<ellipse transform="matrix(26.8657 0 -0 -26.8657 -30304.6 28003.6)" cx="1149.0261" cy="1023.3455" rx="0.18005371" ry="0.17999268"/>
	<text transform="matrix(26.8657 0 0 26.8657 -30304.6 28003.6)" font-size="0.44999999" font-family="Helvetica" x="1148.4135, 1148.6637, 1148.9139, 1149.0391, 1149.4138, " y="-1023.8955, ">
			25 ms
	</text>
	<ellipse transform="matrix(26.8657 0 -0 -26.8657 -30304.6 28003.6)" cx="1144.9656" cy="1023.8698" rx="0.18005371" ry="0.18002319"/>
	<text transform="matrix(26.8657 0 0 26.8657 -30304.6 28003.6)" font-size="0.44999999" font-family="Helvetica" x="1144.3529, 1144.6031, 1144.8534, 1144.9785, 1145.3533, " y="-1024.4198, ">
			50 ms
	</text>
	<ellipse transform="matrix(26.8657 0 -0 -26.8657 -30304.6 28003.6)" cx="1151.7059" cy="1025.6237" rx="0.18005371" ry="0.18005371"/>
	<text transform="matrix(26.8657 0 0 26.8657 -30304.6 28003.6)" font-size="0.44999999" font-family="Helvetica" x="1151.0933, 1151.3435, 1151.5938, 1151.7189, 1152.0936, " y="-1026.1737, ">
			50 ms
	</text>
	<ellipse transform="matrix(26.8657 0 -0 -26.8657 -30304.6 28003.6)" cx="1155.5085" cy="1025.1337" rx="0.18005371" ry="0.18005371"/>
	<text transform="matrix(26.8657 0 0 26.8657 -30304.6 28003.6)" font-size="0.44999999" font-family="Helvetica" x="1154.8959, 1155.1461, 1155.3964, 1155.5215, 1155.8962, " y="-1025.6837, ">
			75 ms
	</text>
	<ellipse transform="matrix(26.8657 0 -0 -26.8657 -30304.6 28003.6)" cx="1147.9032" cy="1026.1135" rx="0.18005371" ry="0.18005371"/>
	<text transform="matrix(26.8657 0 0 26.8657 -30304.6 28003.6)" font-size="0.44999999" font-family="Helvetica" x="1147.2905, 1147.5408, 1147.791, 1147.9161, 1148.2909, " y="-1026.6636, ">
			75 ms
	</text>
	<ellipse transform="matrix(26.8657 0 -0 -26.8657 -30304.6 28003.6)" cx="1159.3113" cy="1024.6437" rx="0.18005371" ry="0.18005371"/>
	<text transform="matrix(26.8657 0 0 26.8657 -30304.6 28003.6)" font-size="0.44999999" font-family="Helvetica" x="1158.5735, 1158.8237, 1159.074, 1159.3243, 1159.4493, 1159.8242, " y="-1025.1937, ">
			100 ms
	</text>
	<ellipse transform="matrix(26.8657 0 -0 -26.8657 -30304.6 28003.6)" cx="1144.1005" cy="1026.6035" rx="0.18005371" ry="0.18005371"/>
	<text transform="matrix(26.8657 0 0 26.8657 -30304.6 28003.6)" font-size="0.44999999" font-family="Helvetica" x="1143.3627, 1143.6129, 1143.8632, 1144.1135, 1144.2385, 1144.6134, " y="-1027.1536, ">
			100 ms
	</text>
	<ellipse transform="matrix(26.8657 0 -0 -26.8657 -30304.6 28003.6)" cx="1151.9268" cy="1028.2161" rx="0.18005371" ry="0.18005371"/>
	<text transform="matrix(26.8657 0 0 26.8657 -30304.6 28003.6)" font-size="0.44999999" font-family="Helvetica" x="1151.189, 1151.4392, 1151.6895, 1151.9398, 1152.0648, 1152.4397, " y="-1028.7661, ">
			100 ms
	</text>
	<ellipse transform="matrix(26.8657 0 -0 -26.8657 -30304.6 28003.6)" cx="1163.1139" cy="1024.1538" rx="0.18005371" ry="0.18002319"/>
	<text transform="matrix(26.8657 0 0 26.8657 -30304.6 28003.6)" font-size="0.44999999" font-family="Helvetica" x="1162.3761, 1162.6263, 1162.8766, 1163.127, 1163.252, 1163.6268, " y="-1024.7039, ">
			125 ms
	</text>
	<ellipse transform="matrix(26.8657 0 -0 -26.8657 -30304.6 28003.6)" cx="1140.7383" cy="1025.653" rx="0.18005371" ry="0.18005371"/>
	<text transform="matrix(26.8657 0 0 26.8657 -30304.6 28003.6)" font-size="0.44999999" font-family="Helvetica" x="1140.0005, 1140.2507, 1140.501, 1140.7513, 1140.8763, 1141.2512, " y="-1026.203, ">
			125 ms
	</text>
	<ellipse transform="matrix(26.8657 0 -0 -26.8657 -30304.6 28003.6)" cx="1155.8931" cy="1027.7043" rx="0.18005371" ry="0.18005371"/>
	<text transform="matrix(26.8657 0 0 26.8657 -30304.6 28003.6)" font-size="0.44999999" font-family="Helvetica" x="1155.1553, 1155.4055, 1155.6558, 1155.9061, 1156.0311, 1156.406, " y="-1028.2544, ">
			125 ms
	</text>
	<ellipse transform="matrix(26.8657 0 -0 -26.8657 -30304.6 28003.6)" cx="1147.9606" cy="1028.7279" rx="0.18005371" ry="0.18005371"/>
	<text transform="matrix(26.8657 0 0 26.8657 -30304.6 28003.6)" font-size="0.44999999" font-family="Helvetica" x="1147.2228, 1147.473, 1147.7233, 1147.9736, 1148.0986, 1148.4735, " y="-1029.278, ">
			125 ms
	</text>
	<ellipse transform="matrix(26.8657 0 -0 -26.8657 -30304.6 28003.6)" cx="1166.9166" cy="1023.6638" rx="0.18005371" ry="0.17999268"/>
	<text transform="matrix(26.8657 0 0 26.8657 -30304.6 28003.6)" font-size="0.44999999" font-family="Helvetica" x="1166.1788, 1166.4291, 1166.6793, 1166.9297, 1167.0547, 1167.4296, " y="-1024.2139, ">
			150 ms
	</text>
	<ellipse transform="matrix(26.8657 0 -0 -26.8657 -30304.6 28003.6)" cx="1159.8593" cy="1027.1925" rx="0.18005371" ry="0.18005371"/>
	<text transform="matrix(26.8657 0 0 26.8657 -30304.6 28003.6)" font-size="0.44999999" font-family="Helvetica" x="1159.1215, 1159.3717, 1159.6219, 1159.8723, 1159.9973, 1160.3722, " y="-1027.7426, ">
			150 ms
	</text>
	<ellipse transform="matrix(26.8657 0 -0 -26.8657 -30304.6 28003.6)" cx="1143.9944" cy="1029.2397" rx="0.18005371" ry="0.18005371"/>
	<text transform="matrix(26.8657 0 0 26.8657 -30304.6 28003.6)" font-size="0.44999999" font-family="Helvetica" x="1143.2566, 1143.5068, 1143.7571, 1144.0074, 1144.1324, 1144.5073, " y="-1029.7898, ">
			150 ms
	</text>
	<ellipse transform="matrix(26.8657 0 -0 -26.8657 -30304.6 28003.6)" cx="1150.5729" cy="1031.0237" rx="0.18005371" ry="0.18005371"/>
	<text transform="matrix(26.8657 0 0 26.8657 -30304.6 28003.6)" font-size="0.44999999" font-family="Helvetica" x="1149.8351, 1150.0853, 1150.3356, 1150.5859, 1150.7109, 1151.0858, " y="-1031.5737, ">
			150 ms
	</text>
	<ellipse transform="matrix(26.8657 0 -0 -26.8657 -30304.6 28003.6)" cx="1170.3364" cy="1022.4082" rx="0.18005371" ry="0.17999268"/>
	<text transform="matrix(26.8657 0 0 26.8657 -30304.6 28003.6)" font-size="0.44999999" font-family="Helvetica" x="1169.5986, 1169.8489, 1170.0991, 1170.3495, 1170.4745, 1170.8494, " y="-1022.9582, ">
			175 ms
	</text>
	<ellipse transform="matrix(26.8657 0 -0 -26.8657 -30304.6 28003.6)" cx="1163.8256" cy="1026.6807" rx="0.18005371" ry="0.18005371"/>
	<text transform="matrix(26.8657 0 0 26.8657 -30304.6 28003.6)" font-size="0.44999999" font-family="Helvetica" x="1163.0878, 1163.338, 1163.5883, 1163.8386, 1163.9636, 1164.3385, " y="-1027.2307, ">
			175 ms
	</text>
	<ellipse transform="matrix(26.8657 0 -0 -26.8657 -30304.6 28003.6)" cx="1140.3326" cy="1028.7559" rx="0.18005371" ry="0.18005371"/>
	<text transform="matrix(26.8657 0 0 26.8657 -30304.6 28003.6)" font-size="0.44999999" font-family="Helvetica" x="1139.5948, 1139.8451, 1140.0953, 1140.3457, 1140.4707, 1140.8456, " y="-1029.3059, ">
			175 ms
	</text>
	<ellipse transform="matrix(26.8657 0 -0 -26.8657 -30304.6 28003.6)" cx="1146.7589" cy="1031.516" rx="0.18005371" ry="0.18005371"/>
	<text transform="matrix(26.8657 0 0 26.8657 -30304.6 28003.6)" font-size="0.44999999" font-family="Helvetica" x="1146.0211, 1146.2714, 1146.5216, 1146.772, 1146.897, 1147.2719, " y="-1032.066, ">
			175 ms
	</text>
	<ellipse transform="matrix(26.8657 0 -0 -26.8657 -30304.6 28003.6)" cx="1154.3867" cy="1030.5314" rx="0.18005371" ry="0.18005371"/>
	<text transform="matrix(26.8657 0 0 26.8657 -30304.6 28003.6)" font-size="0.44999999" font-family="Helvetica" x="1153.6489, 1153.8992, 1154.1494, 1154.3998, 1154.5248, 1154.8997, " y="-1031.0814, ">
			175 ms
	</text>
	<ellipse transform="matrix(26.8657 0 -0 -26.8657 -30304.6 28003.6)" cx="1167.7917" cy="1026.1688" rx="0.18005371" ry="0.18005371"/>
	<text transform="matrix(26.8657 0 0 26.8657 -30304.6 28003.6)" font-size="0.44999999" font-family="Helvetica" x="1167.054, 1167.3042, 1167.5544, 1167.8048, 1167.9298, 1168.3047, " y="-1026.7189, ">
			200 ms
	</text>
	<ellipse transform="matrix(26.8657 0 -0 -26.8657 -30304.6 28003.6)" cx="1137.3313" cy="1026.1129" rx="0.18005371" ry="0.18005371"/>
	<text transform="matrix(26.8657 0 0 26.8657 -30304.6 28003.6)" font-size="0.44999999" font-family="Helvetica" x="1136.5935, 1136.8438, 1137.094, 1137.3444, 1137.4694, 1137.8442, " y="-1026.663, ">
			200 ms
	</text>
	<ellipse transform="matrix(26.8657 0 -0 -26.8657 -30304.6 28003.6)" cx="1142.9449" cy="1032.0083" rx="0.18005371" ry="0.18005371"/>
	<text transform="matrix(26.8657 0 0 26.8657 -30304.6 28003.6)" font-size="0.44999999" font-family="Helvetica" x="1142.2072, 1142.4574, 1142.7076, 1142.958, 1143.083, 1143.4579, " y="-1032.5583, ">
			200 ms
	</text>
	<ellipse transform="matrix(26.8657 0 -0 -26.8657 -30304.6 28003.6)" cx="1158.2007" cy="1030.0389" rx="0.18005371" ry="0.18005371"/>
	<text transform="matrix(26.8657 0 0 26.8657 -30304.6 28003.6)" font-size="0.44999999" font-family="Helvetica" x="1157.4629, 1157.7131, 1157.9634, 1158.2137, 1158.3387, 1158.7136, " y="-1030.589, ">
			200 ms
	</text>
	<ellipse transform="matrix(26.8657 0 -0 -26.8657 -30304.6 28003.6)" cx="1171.4294" cy="1024.9998" rx="0.18005371" ry="0.18005371"/>
	<text transform="matrix(26.8657 0 0 26.8657 -30304.6 28003.6)" font-size="0.44999999" font-family="Helvetica" x="1170.6917, 1170.9419, 1171.1921, 1171.4425, 1171.5675, 1171.9424, " y="-1025.5498, ">
			225 ms
	</text>
	<ellipse transform="matrix(26.8657 0 -0 -26.8657 -30304.6 28003.6)" cx="1139.4528" cy="1031.449" rx="0.18005371" ry="0.18005371"/>
	<text transform="matrix(26.8657 0 0 26.8657 -30304.6 28003.6)" font-size="0.44999999" font-family="Helvetica" x="1138.715, 1138.9652, 1139.2155, 1139.4658, 1139.5908, 1139.9657, " y="-1031.999, ">
			225 ms
	</text>
	<ellipse transform="matrix(26.8657 0 -0 -26.8657 -30304.6 28003.6)" cx="1162.0146" cy="1029.5466" rx="0.18005371" ry="0.18005371"/>
	<text transform="matrix(26.8657 0 0 26.8657 -30304.6 28003.6)" font-size="0.44999999" font-family="Helvetica" x="1161.2769, 1161.5271, 1161.7773, 1162.0277, 1162.1527, 1162.5276, " y="-1030.0967, ">
			225 ms
	</text>
	<ellipse transform="matrix(26.8657 0 -0 -26.8657 -30304.6 28003.6)" cx="1174.2197" cy="1022.1348" rx="0.18005371" ry="0.17999268"/>
	<text transform="matrix(26.8657 0 0 26.8657 -30304.6 28003.6)" font-size="0.44999999" font-family="Helvetica" x="1173.4819, 1173.7322, 1173.9824, 1174.2328, 1174.3578, 1174.7327, " y="-1022.6848, ">
			250 ms
	</text>
	<ellipse transform="matrix(26.8657 0 -0 -26.8657 -30304.6 28003.6)" cx="1136.5669" cy="1028.9073" rx="0.18005371" ry="0.18005371"/>
	<text transform="matrix(26.8657 0 0 26.8657 -30304.6 28003.6)" font-size="0.44999999" font-family="Helvetica" x="1135.8291, 1136.0793, 1136.3296, 1136.58, 1136.705, 1137.0798, " y="-1029.4574, ">
			250 ms
	</text>
	<ellipse transform="matrix(26.8657 0 -0 -26.8657 -30304.6 28003.6)" cx="1165.8285" cy="1029.0543" rx="0.18005371" ry="0.18005371"/>
	<text transform="matrix(26.8657 0 0 26.8657 -30304.6 28003.6)" font-size="0.44999999" font-family="Helvetica" x="1165.0907, 1165.3409, 1165.5912, 1165.8416, 1165.9666, 1166.3414, " y="-1029.6044, ">
			250 ms
	</text>
	<ellipse transform="matrix(26.8657 0 -0 -26.8657 -30304.6 28003.6)" cx="1133.6809" cy="1026.3657" rx="0.18005371" ry="0.18005371"/>
	<text transform="matrix(26.8657 0 0 26.8657 -30304.6 28003.6)" font-size="0.44999999" font-family="Helvetica" x="1132.9431, 1133.1934, 1133.4436, 1133.694, 1133.819, 1134.1938, " y="-1026.9158, ">
			275 ms
	</text>
	<ellipse transform="matrix(26.8657 0 -0 -26.8657 -30304.6 28003.6)" cx="1169.6425" cy="1028.562" rx="0.18005371" ry="0.18005371"/>
	<text transform="matrix(26.8657 0 0 26.8657 -30304.6 28003.6)" font-size="0.44999999" font-family="Helvetica" x="1168.9047, 1169.1549, 1169.4052, 1169.6555, 1169.7805, 1170.1554, " y="-1029.1121, ">
			275 ms
	</text>
	<ellipse transform="matrix(26.8657 0 -0 -26.8657 -30304.6 28003.6)" cx="1172.9922" cy="1027.1403" rx="0.18005371" ry="0.18005371"/>
	<text transform="matrix(26.8657 0 0 26.8657 -30304.6 28003.6)" font-size="0.44999999" font-family="Helvetica" x="1172.2544, 1172.5046, 1172.7549, 1173.0052, 1173.1302, 1173.5051, " y="-1027.6903, ">
			300 ms
	</text>
	<ellipse transform="matrix(26.8657 0 -0 -26.8657 -30304.6 28003.6)" cx="1175.6764" cy="1024.3865" rx="0.18005371" ry="0.18005371"/>
	<text transform="matrix(26.8657 0 0 26.8657 -30304.6 28003.6)" font-size="0.44999999" font-family="Helvetica" x="1174.9386, 1175.1888, 1175.4391, 1175.6895, 1175.8145, 1176.1893, " y="-1024.9365, ">
			325 ms
	</text>
	<ellipse transform="matrix(26.8657 0 -0 -26.8657 -30304.6 28003.6)" cx="1178.3607" cy="1021.6328" rx="0.18005371" ry="0.17999268"/>
	<text transform="matrix(26.8657 0 0 26.8657 -30304.6 28003.6)" font-size="0.44999999" font-family="Helvetica" x="1177.6229, 1177.8732, 1178.1234, 1178.3738, 1178.4988, 1178.8737, " y="-1022.1827, ">
			350 ms
	</text>
</svg>
